<svg width="2916" height="1458" viewBox="0 0 2916 1458" fill="none" xmlns="http://www.w3.org/2000/svg">
<g clip-path="url(#clip0)">
<rect width="2916" height="1458" fill="white"/>
<rect width="493.05" height="493.05" rx="16.6645" transform="matrix(0.938191 -0.346117 0.707107 0.707107 737.652 929.092)" fill="#F2F7F9"/>
<path fill-rule="evenodd" clip-rule="evenodd" d="M1341.66 1050.74C1339.49 1048.57 1340.07 1045.95 1342.95 1044.89L1356.87 1039.75C1359.75 1038.69 1363.84 1039.59 1366.01 1041.76L1376.5 1052.25C1378.67 1054.42 1378.1 1057.04 1375.22 1058.1L1361.3 1063.24C1358.42 1064.3 1354.33 1063.4 1352.16 1061.23L1341.66 1050.74Z" fill="#BFD4E4"/>
<path fill-rule="evenodd" clip-rule="evenodd" d="M1369.18 1078.27C1367.02 1076.1 1367.59 1073.48 1370.47 1072.42L1384.39 1067.28C1387.27 1066.22 1391.36 1067.12 1393.53 1069.29L1404.02 1079.78C1406.19 1081.95 1405.62 1084.57 1402.74 1085.63L1388.82 1090.77C1385.94 1091.83 1381.85 1090.93 1379.68 1088.76L1369.18 1078.27Z" fill="#BFD4E4"/>
<path fill-rule="evenodd" clip-rule="evenodd" d="M1071.58 1150.38C1069.41 1148.21 1069.99 1145.59 1072.87 1144.53L1261.11 1075.08C1263.99 1074.02 1268.08 1074.92 1270.25 1077.09L1280.74 1087.58C1282.91 1089.75 1282.34 1092.37 1279.46 1093.43L1091.22 1162.88C1088.34 1163.94 1084.25 1163.04 1082.08 1160.87L1071.58 1150.38Z" fill="#BFD4E4"/>
<path fill-rule="evenodd" clip-rule="evenodd" d="M1099.11 1177.9C1096.94 1175.73 1097.52 1173.11 1100.4 1172.05L1238.97 1120.93C1241.85 1119.87 1245.94 1120.76 1248.11 1122.93L1258.6 1133.43C1260.77 1135.6 1260.2 1138.22 1257.32 1139.28L1118.75 1190.4C1115.87 1191.46 1111.78 1190.56 1109.61 1188.4L1099.11 1177.9Z" fill="#DDEAF3"/>
<path fill-rule="evenodd" clip-rule="evenodd" d="M1396.71 1105.79C1394.54 1103.62 1395.12 1101 1398 1099.94L1411.92 1094.8C1414.8 1093.74 1418.89 1094.64 1421.06 1096.81L1431.55 1107.3C1433.72 1109.47 1433.15 1112.09 1430.27 1113.15L1416.35 1118.29C1413.47 1119.35 1409.38 1118.45 1407.21 1116.28L1396.71 1105.79Z" fill="#BFD4E4"/>
<path fill-rule="evenodd" clip-rule="evenodd" d="M1126.63 1205.42C1124.46 1203.25 1125.04 1200.63 1127.92 1199.57L1266.49 1148.45C1269.37 1147.39 1273.46 1148.28 1275.63 1150.45L1286.13 1160.95C1288.29 1163.12 1287.72 1165.74 1284.84 1166.8L1146.27 1217.92C1143.39 1218.98 1139.3 1218.09 1137.13 1215.92L1126.63 1205.42Z" fill="#DDEAF3"/>
<path fill-rule="evenodd" clip-rule="evenodd" d="M1184.13 1060.78C1127.05 1081.84 1045.9 1064.03 1002.88 1021.01C959.865 977.994 971.262 926.05 1028.34 904.993C1085.42 883.935 1166.56 901.739 1209.58 944.758C1252.6 987.778 1241.2 1039.72 1184.13 1060.78ZM1165.78 1042.43C1209.41 1026.33 1218.12 986.623 1185.24 953.738C1152.35 920.853 1090.32 907.243 1046.69 923.34C1003.06 939.437 994.347 979.144 1027.23 1012.03C1060.12 1044.91 1122.15 1058.52 1165.78 1042.43Z" fill="#DDEAF3"/>
<path fill-rule="evenodd" clip-rule="evenodd" d="M1184.12 1060.78C1241.2 1039.73 1252.6 987.782 1209.58 944.762C1166.56 901.743 1085.42 883.939 1028.34 904.997L1046.69 923.346C1090.32 907.249 1152.35 920.859 1185.23 953.744C1218.12 986.629 1209.41 1026.34 1165.78 1042.43L1184.12 1060.78Z" fill="#DDEAF3"/>
<path fill-rule="evenodd" clip-rule="evenodd" d="M1209.58 944.762C1166.56 901.743 1085.42 883.939 1028.34 904.997L1046.69 923.346C1090.32 907.249 1152.35 920.859 1185.23 953.744L1209.58 944.762Z" fill="#BFD4E4"/>
<path d="M749.436 940.875C742.928 934.367 744.652 926.509 753.287 923.324L1184.45 764.258C1193.09 761.072 1205.36 763.766 1211.87 770.273L1239.37 797.768L776.931 968.37L749.436 940.875Z" fill="#DDEAF3"/>
<path fill-rule="evenodd" clip-rule="evenodd" d="M792.505 946.493C797.542 944.635 798.548 940.051 794.752 936.254C790.955 932.458 783.795 930.887 778.758 932.745C773.721 934.603 772.715 939.187 776.511 942.984C780.308 946.78 787.468 948.351 792.505 946.493ZM818.563 936.879C823.6 935.021 824.606 930.437 820.81 926.641C817.013 922.845 809.853 921.274 804.816 923.132C799.779 924.99 798.773 929.574 802.57 933.37C806.366 937.167 813.526 938.738 818.563 936.879ZM846.866 917.029C850.662 920.825 849.657 925.409 844.62 927.267C839.583 929.125 832.422 927.554 828.626 923.758C824.83 919.962 825.835 915.378 830.872 913.52C835.909 911.661 843.07 913.232 846.866 917.029Z" fill="#F2F7F9"/>
<path d="M1247.18 672.929L1042.66 748.378C1006.03 761.892 998.719 795.228 1026.33 822.836L1085 881.507" stroke="#EBF2F8" stroke-width="5.3021"/>
<path d="M1073.71 877.976C1073.09 878.204 1073.18 878.846 1073.88 879.158L1087.89 885.411C1088.65 885.751 1089.51 885.433 1089.37 884.866L1086.69 874.431C1086.56 873.911 1085.66 873.565 1085.04 873.793L1073.71 877.976Z" fill="white" stroke="#DAE4ED" stroke-width="5.3021"/>
<path d="M1251.56 677.303C1254.76 676.121 1255.4 673.204 1252.99 670.788C1250.57 668.373 1246.02 667.373 1242.81 668.555C1239.61 669.738 1238.97 672.655 1241.38 675.07C1243.8 677.486 1248.35 678.486 1251.56 677.303Z" fill="white" stroke="#DAE4ED" stroke-width="5.3021"/>
<path d="M2201.93 850.123L2304.81 809.532C2341.12 795.202 2347.69 761.711 2319.47 734.728L2184.99 606.139" stroke="#EBF2F8" stroke-width="5.3021"/>
<path d="M2196.36 609.415C2196.98 609.173 2196.87 608.533 2196.17 608.237L2182.02 602.299C2181.25 601.977 2180.4 602.313 2180.55 602.877L2183.46 613.25C2183.61 613.767 2184.51 614.093 2185.12 613.85L2196.36 609.415Z" fill="white" stroke="#DAE4ED" stroke-width="5.3021"/>
<path d="M2197.46 845.848C2194.28 847.101 2193.7 850.032 2196.17 852.393C2198.64 854.754 2203.22 855.651 2206.4 854.398C2209.58 853.144 2210.15 850.213 2207.68 847.852C2205.21 845.491 2200.63 844.594 2197.46 845.848Z" fill="white" stroke="#DAE4ED" stroke-width="5.3021"/>
<path d="M2069.33 1412.75L2172.2 1372.16C2208.52 1357.83 2215.09 1324.34 2186.87 1297.36L2052.39 1168.77" stroke="#EBF2F8" stroke-width="5.3021"/>
<path d="M2063.76 1172.05C2064.38 1171.8 2064.27 1171.16 2063.56 1170.87L2049.41 1164.93C2048.64 1164.61 2047.79 1164.94 2047.95 1165.51L2050.86 1175.88C2051 1176.4 2051.91 1176.72 2052.52 1176.48L2063.76 1172.05Z" fill="white" stroke="#DAE4ED" stroke-width="5.3021"/>
<path d="M2064.85 1408.48C2061.68 1409.73 2061.1 1412.66 2063.57 1415.02C2066.04 1417.38 2070.62 1418.28 2073.8 1417.03C2076.97 1415.77 2077.55 1412.84 2075.08 1410.48C2072.61 1408.12 2068.03 1407.22 2064.85 1408.48Z" fill="white" stroke="#DAE4ED" stroke-width="5.3021"/>
<rect width="493.05" height="493.05" rx="16.6645" transform="matrix(0.938191 -0.346117 0.707107 0.707107 1703.04 914.221)" fill="#F2F7F9"/>
<path fill-rule="evenodd" clip-rule="evenodd" d="M1908.27 969.48C1906.11 967.311 1906.68 964.691 1909.56 963.63L2142.6 877.657C2145.47 876.596 2149.57 877.493 2151.74 879.663L2162.23 890.156C2164.4 892.326 2163.82 894.945 2160.95 896.007L1927.91 981.979C1925.03 983.041 1920.94 982.143 1918.77 979.974L1908.27 969.48Z" fill="#DDEAF3"/>
<path fill-rule="evenodd" clip-rule="evenodd" d="M1934.31 922.193C1932.14 920.024 1932.72 917.404 1935.6 916.343L2061.51 869.89C2064.39 868.828 2068.48 869.726 2070.65 871.895L2081.14 882.389C2083.31 884.558 2082.74 887.178 2079.86 888.239L1953.95 934.692C1951.07 935.754 1946.98 934.856 1944.81 932.687L1934.31 922.193Z" fill="#BFD4E4"/>
<rect width="129.75" height="129.75" rx="16.1618" transform="matrix(0.938191 -0.346117 0.707107 0.707107 2164.05 943.387)" fill="#32C5FF"/>
<rect x="4.98582" y="1.09392" width="123.689" height="123.689" rx="13.1315" transform="matrix(0.938191 -0.346117 0.707107 0.707107 2163.59 945.433)" stroke="#0998FF" stroke-opacity="0.7" stroke-width="6.06069"/>
<path fill-rule="evenodd" clip-rule="evenodd" d="M2279.86 945.873C2277.84 943.855 2274 943.012 2271.32 944L2237.24 956.574C2234.56 957.562 2234.02 960.022 2236.04 962.04L2261.73 987.73C2263.74 989.748 2267.59 990.591 2270.27 989.603L2304.35 977.029C2307.03 976.041 2307.57 973.581 2305.55 971.563L2279.86 945.873ZM2265.03 972.969L2276.64 976.247L2276.88 964.828L2298.85 971.796L2264.76 984.37L2265.03 972.969Z" fill="#F2F7F9"/>
<path fill-rule="evenodd" clip-rule="evenodd" d="M2269.35 1047.27C2267.18 1045.1 2267.76 1042.48 2270.63 1041.42L2381.94 1000.36C2384.82 999.295 2388.91 1000.19 2391.08 1002.36L2401.57 1012.86C2403.74 1015.02 2403.17 1017.64 2400.29 1018.71L2288.98 1059.77C2286.11 1060.83 2282.01 1059.93 2279.84 1057.76L2269.35 1047.27Z" fill="#BFD4E4"/>
<path fill-rule="evenodd" clip-rule="evenodd" d="M2296.88 1074.79C2294.71 1072.62 2295.29 1070 2298.16 1068.94L2348.61 1050.33C2351.49 1049.27 2355.58 1050.17 2357.75 1052.34L2368.24 1062.83C2370.41 1065 2369.83 1067.62 2366.96 1068.68L2316.51 1087.29C2313.64 1088.35 2309.54 1087.45 2307.37 1085.29L2296.88 1074.79Z" fill="#DDEAF3"/>
<rect width="129.75" height="127.155" rx="11.1096" transform="matrix(0.938191 -0.346117 0.707107 0.707107 2020.26 998.143)" fill="#BFD4E4"/>
<path fill-rule="evenodd" clip-rule="evenodd" d="M2135.15 999.724C2133.13 997.706 2129.29 996.862 2126.61 997.85L2092.53 1010.42C2089.85 1011.41 2089.31 1013.87 2091.33 1015.89L2117.02 1041.58C2119.03 1043.6 2122.88 1044.44 2125.56 1043.45L2159.64 1030.88C2162.32 1029.89 2162.86 1027.43 2160.84 1025.41L2135.15 999.724ZM2120.32 1026.55L2131.93 1029.83L2132.17 1018.41L2154.14 1025.38L2120.05 1037.95L2120.32 1026.55Z" fill="#F2F7F9"/>
<path fill-rule="evenodd" clip-rule="evenodd" d="M2123.28 1101.16C2121.11 1098.99 2121.68 1096.37 2124.56 1095.31L2235.87 1054.24C2238.75 1053.18 2242.84 1054.08 2245.01 1056.25L2255.5 1066.74C2257.67 1068.91 2257.1 1071.53 2254.22 1072.59L2142.91 1113.66C2140.03 1114.72 2135.94 1113.82 2133.77 1111.65L2123.28 1101.16Z" fill="#BFD4E4"/>
<path fill-rule="evenodd" clip-rule="evenodd" d="M2150.8 1128.68C2148.63 1126.51 2149.21 1123.89 2152.08 1122.83L2202.53 1104.22C2205.4 1103.16 2209.5 1104.05 2211.67 1106.22L2222.16 1116.72C2224.33 1118.89 2223.75 1121.51 2220.88 1122.57L2170.43 1141.18C2167.55 1142.24 2163.46 1141.34 2161.29 1139.17L2150.8 1128.68Z" fill="#DDEAF3"/>
<rect width="129.75" height="129.75" rx="11.1096" transform="matrix(0.938191 -0.346117 0.707107 0.707107 1872.35 1050.19)" fill="#BFD4E4"/>
<path fill-rule="evenodd" clip-rule="evenodd" d="M1988.16 1052.69C1986.14 1050.67 1982.29 1049.83 1979.62 1050.82L1945.53 1063.39C1942.85 1064.38 1942.31 1066.84 1944.33 1068.86L1970.02 1094.55C1972.04 1096.56 1975.88 1097.41 1978.56 1096.42L2012.65 1083.84C2015.32 1082.86 2015.86 1080.4 2013.85 1078.38L1988.16 1052.69ZM1973.32 1079.51L1984.93 1082.79L1985.18 1071.37L2007.14 1078.34L1973.06 1090.92L1973.32 1079.51Z" fill="#F2F7F9"/>
<rect width="129.326" height="25.9499" rx="5.55482" transform="matrix(0.938191 -0.346117 0.707107 0.707107 1973.67 1150.97)" fill="#BFD4E4"/>
<path fill-rule="evenodd" clip-rule="evenodd" d="M2004.92 1182.5C2002.75 1180.33 2003.33 1177.72 2006.21 1176.65L2056.45 1158.12C2059.33 1157.06 2063.42 1157.95 2065.59 1160.12L2076.08 1170.62C2078.25 1172.79 2077.68 1175.41 2074.8 1176.47L2024.56 1195C2021.68 1196.06 2017.59 1195.17 2015.42 1193L2004.92 1182.5Z" fill="#DDEAF3"/>
<path d="M1714.83 926.004C1708.32 919.496 1710.04 911.638 1718.68 908.453L2149.85 749.387C2158.48 746.201 2170.76 748.894 2177.26 755.402L2204.76 782.897L1742.32 953.499L1714.83 926.004Z" fill="#DDEAF3"/>
<path fill-rule="evenodd" clip-rule="evenodd" d="M1783.95 922.01C1788.99 920.151 1790 915.568 1786.2 911.771C1782.4 907.975 1775.24 906.404 1770.21 908.262C1765.17 910.12 1764.16 914.704 1767.96 918.5C1771.76 922.297 1778.92 923.868 1783.95 922.01ZM1757.9 931.624C1762.93 929.765 1763.94 925.181 1760.14 921.385C1756.35 917.589 1749.19 916.018 1744.15 917.876C1739.11 919.734 1738.11 924.318 1741.9 928.114C1745.7 931.911 1752.86 933.482 1757.9 931.624ZM1812.26 902.159C1816.06 905.955 1815.05 910.539 1810.01 912.397C1804.98 914.255 1797.81 912.684 1794.02 908.888C1790.22 905.092 1791.23 900.508 1796.27 898.65C1801.3 896.792 1808.46 898.363 1812.26 902.159Z" fill="#F2F7F9"/>
<rect width="493.05" height="493.05" rx="16.6645" transform="matrix(0.938191 -0.346117 0.707107 0.707107 1382.58 1345.5)" fill="#F2F7F9"/>
<path fill-rule="evenodd" clip-rule="evenodd" d="M1478.74 1408.34C1476.57 1406.17 1477.15 1403.55 1480.03 1402.49L1834.8 1271.61C1837.67 1270.55 1841.77 1271.45 1843.94 1273.62L1854.43 1284.11C1856.6 1286.28 1856.02 1288.9 1853.15 1289.96L1498.38 1420.84C1495.5 1421.9 1491.41 1421.01 1489.24 1418.84L1478.74 1408.34Z" fill="#BFD4E4"/>
<path fill-rule="evenodd" clip-rule="evenodd" d="M1506.27 1435.86C1504.1 1433.7 1504.68 1431.08 1507.55 1430.01L1777.11 1330.57C1779.99 1329.51 1784.08 1330.41 1786.25 1332.57L1796.74 1343.07C1798.91 1345.24 1798.34 1347.86 1795.46 1348.92L1525.9 1448.36C1523.03 1449.43 1518.93 1448.53 1516.76 1446.36L1506.27 1435.86Z" fill="#BFD4E4"/>
<rect width="207.6" height="25.95" rx="5.55482" transform="matrix(0.938191 -0.346117 0.707107 0.707107 1594.09 1523.68)" fill="#DDEAF3"/>
<path fill-rule="evenodd" clip-rule="evenodd" d="M1570.49 1500.09C1568.32 1497.92 1568.9 1495.3 1571.77 1494.24L1756.12 1426.23C1759 1425.17 1763.09 1426.07 1765.26 1428.24L1775.75 1438.73C1777.92 1440.9 1777.35 1443.52 1774.47 1444.58L1590.12 1512.59C1587.25 1513.65 1583.15 1512.75 1580.99 1510.58L1570.49 1500.09Z" fill="#DDEAF3"/>
<rect width="207.6" height="25.95" rx="5.55482" transform="matrix(0.938191 -0.346117 0.707107 0.707107 1539.04 1468.63)" fill="#DDEAF3"/>
<rect width="207.6" height="25.95" rx="5.55482" transform="matrix(0.938191 -0.346117 0.707107 0.707107 1813.21 1442.84)" fill="#DDEAF3"/>
<path fill-rule="evenodd" clip-rule="evenodd" d="M1789.6 1419.25C1787.44 1417.08 1788.01 1414.46 1790.89 1413.4L1975.23 1345.39C1978.11 1344.33 1982.2 1345.23 1984.37 1347.4L1994.87 1357.89C1997.04 1360.06 1996.46 1362.68 1993.58 1363.74L1809.24 1431.75C1806.36 1432.81 1802.27 1431.91 1800.1 1429.74L1789.6 1419.25Z" fill="#DDEAF3"/>
<rect width="207.6" height="25.95" rx="5.55482" transform="matrix(0.938191 -0.346117 0.707107 0.707107 1758.16 1387.8)" fill="#DDEAF3"/>
<path fill-rule="evenodd" clip-rule="evenodd" d="M1844.66 1474.3C1842.49 1472.13 1843.06 1469.51 1845.94 1468.45L2030.28 1400.44C2033.16 1399.38 2037.25 1400.28 2039.42 1402.45L2049.92 1412.94C2052.09 1415.11 2051.51 1417.73 2048.63 1418.79L1864.29 1486.8C1861.41 1487.86 1857.32 1486.97 1855.15 1484.8L1844.66 1474.3Z" fill="#DDEAF3"/>
<path fill-rule="evenodd" clip-rule="evenodd" d="M1872.18 1501.82C1870.01 1499.66 1870.58 1497.04 1873.46 1495.97L2057.81 1427.97C2060.69 1426.9 2064.78 1427.8 2066.95 1429.97L2077.44 1440.46C2079.61 1442.63 2079.03 1445.25 2076.16 1446.32L1891.81 1514.32C1888.93 1515.39 1884.84 1514.49 1882.67 1512.32L1872.18 1501.82Z" fill="#DDEAF3"/>
<rect width="207.6" height="25.95" rx="5.55482" transform="matrix(0.938191 -0.346117 0.707107 0.707107 1895.78 1525.42)" fill="#DDEAF3"/>
<path d="M1394.36 1357.28C1387.85 1350.78 1389.58 1342.92 1398.21 1339.73L1829.38 1180.67C1838.01 1177.48 1850.29 1180.17 1856.8 1186.68L1884.29 1214.18L1421.85 1384.78L1394.36 1357.28Z" fill="#DDEAF3"/>
<path fill-rule="evenodd" clip-rule="evenodd" d="M1437.43 1362.9C1442.47 1361.04 1443.47 1356.46 1439.68 1352.66C1435.88 1348.87 1428.72 1347.3 1423.68 1349.16C1418.65 1351.01 1417.64 1355.6 1421.44 1359.39C1425.23 1363.19 1432.39 1364.76 1437.43 1362.9ZM1463.49 1353.29C1468.53 1351.43 1469.53 1346.85 1465.73 1343.05C1461.94 1339.26 1454.78 1337.68 1449.74 1339.54C1444.7 1341.4 1443.7 1345.98 1447.49 1349.78C1451.29 1353.58 1458.45 1355.15 1463.49 1353.29ZM1491.79 1333.44C1495.59 1337.24 1494.58 1341.82 1489.54 1343.68C1484.51 1345.54 1477.35 1343.96 1473.55 1340.17C1469.75 1336.37 1470.76 1331.79 1475.8 1329.93C1480.83 1328.07 1487.99 1329.64 1491.79 1333.44Z" fill="#F2F7F9"/>
<rect width="493.05" height="493.05" rx="16.6645" transform="matrix(0.938191 -0.346117 0.707107 0.707107 2357.65 823.767)" fill="#F2F7F9"/>
<path fill-rule="evenodd" clip-rule="evenodd" d="M2769.02 956.419C2766.36 957.401 2764.81 958.941 2764.36 961.04C2763.91 963.14 2764.69 965.199 2766.71 967.217C2768.73 969.235 2771.37 970.606 2774.65 971.333C2777.92 972.058 2780.89 971.93 2783.55 970.948C2786.17 969.983 2787.71 968.447 2788.18 966.34C2788.66 964.233 2787.88 962.169 2785.86 960.151C2783.84 958.133 2781.19 956.767 2777.89 956.047C2774.59 955.332 2771.64 955.454 2769.02 956.419Z" fill="#BFD4E4"/>
<path fill-rule="evenodd" clip-rule="evenodd" d="M2751.56 941.875C2749.34 939.655 2746.4 938.14 2742.73 937.327C2739.07 936.515 2735.77 936.649 2732.85 937.729C2729.92 938.808 2728.2 940.523 2727.7 942.872C2727.2 945.221 2728.06 947.505 2730.28 949.725C2732.5 951.944 2735.44 953.459 2739.1 954.271C2742.77 955.084 2746.06 954.95 2748.99 953.87C2751.91 952.791 2753.63 951.076 2754.13 948.727C2754.63 946.378 2753.78 944.093 2751.56 941.875Z" fill="#BFD4E4"/>
<path fill-rule="evenodd" clip-rule="evenodd" d="M2794.71 900.545C2796.17 900.006 2797.03 899.148 2797.28 897.974C2797.53 896.799 2797.11 895.656 2796 894.546C2794.89 893.436 2793.42 892.679 2791.58 892.274C2789.75 891.867 2788.1 891.935 2786.64 892.474C2785.18 893.014 2784.32 893.872 2784.07 895.046C2783.82 896.221 2784.25 897.362 2785.36 898.472C2786.47 899.582 2787.94 900.34 2789.77 900.746C2791.6 901.153 2793.25 901.085 2794.71 900.545Z" fill="#DDEAF3"/>
<path fill-rule="evenodd" clip-rule="evenodd" d="M2722.21 909.613C2718.98 910.807 2717.08 912.691 2716.53 915.265C2715.98 917.839 2716.93 920.353 2719.39 922.808C2721.84 925.263 2725.08 926.935 2729.09 927.825C2733.11 928.714 2736.73 928.562 2739.97 927.368C2743.21 926.174 2745.1 924.289 2745.65 921.716C2746.2 919.141 2745.25 916.627 2742.8 914.172C2740.34 911.717 2737.11 910.045 2733.09 909.156C2729.08 908.267 2725.45 908.419 2722.21 909.613Z" fill="#BFD4E4"/>
<path fill-rule="evenodd" clip-rule="evenodd" d="M2827.13 909.293C2824.95 908.809 2822.97 908.895 2821.2 909.549C2819.43 910.204 2818.39 911.23 2818.09 912.629C2817.79 914.029 2818.31 915.401 2819.66 916.747C2821 918.091 2822.77 919.008 2824.95 919.49C2827.13 919.974 2829.11 919.888 2830.88 919.233C2832.66 918.579 2833.7 917.553 2833.99 916.153C2834.3 914.754 2833.77 913.382 2832.43 912.037C2831.08 910.692 2829.32 909.777 2827.13 909.293Z" fill="#DDEAF3"/>
<path fill-rule="evenodd" clip-rule="evenodd" d="M2830.22 936.058C2828.18 936.81 2826.98 938.011 2826.63 939.661C2826.28 941.309 2826.87 942.908 2828.42 944.456C2829.97 946.002 2832.03 947.061 2834.6 947.632C2837.17 948.202 2839.48 948.11 2841.52 947.357C2843.56 946.605 2844.75 945.404 2845.11 943.755C2845.46 942.105 2844.87 940.507 2843.32 938.96C2841.77 937.412 2839.71 936.354 2837.14 935.784C2834.57 935.213 2832.26 935.305 2830.22 936.058Z" fill="#DDEAF3"/>
<path fill-rule="evenodd" clip-rule="evenodd" d="M2809.3 955.918C2806.95 956.785 2805.58 958.157 2805.18 960.032C2804.78 961.907 2805.47 963.734 2807.25 965.517C2809.03 967.299 2811.38 968.514 2814.31 969.161C2817.23 969.809 2819.87 969.7 2822.22 968.833C2824.57 967.966 2825.94 966.595 2826.34 964.72C2826.75 962.846 2826.06 961.018 2824.27 959.236C2822.49 957.453 2820.14 956.239 2817.22 955.591C2814.29 954.943 2811.65 955.051 2809.3 955.918Z" fill="#DDEAF3"/>
<path fill-rule="evenodd" clip-rule="evenodd" d="M2741.51 888.135C2737.97 889.443 2735.89 891.497 2735.29 894.296C2734.69 897.095 2735.74 899.84 2738.43 902.53C2741.12 905.22 2744.65 907.049 2749.01 908.016C2753.38 908.983 2757.33 908.812 2760.88 907.504C2764.43 906.195 2766.5 904.142 2767.1 901.343C2767.7 898.545 2766.65 895.8 2763.96 893.11C2761.28 890.42 2757.75 888.591 2753.38 887.623C2749.02 886.656 2745.06 886.826 2741.51 888.135Z" fill="#BFD4E4"/>
<path d="M2369.44 835.55C2362.93 829.042 2364.65 821.184 2373.29 817.999L2804.45 658.933C2813.09 655.747 2825.36 658.44 2831.87 664.948L2859.37 692.443L2396.93 863.045L2369.44 835.55Z" fill="#DDEAF3"/>
<path fill-rule="evenodd" clip-rule="evenodd" d="M2438.56 831.554C2443.6 829.696 2444.61 825.112 2440.81 821.316C2437.02 817.52 2429.85 815.948 2424.82 817.807C2419.78 819.665 2418.77 824.249 2422.57 828.045C2426.37 831.841 2433.53 833.412 2438.56 831.554ZM2412.51 841.168C2417.54 839.31 2418.55 834.726 2414.75 830.93C2410.96 827.134 2403.79 825.563 2398.76 827.421C2393.72 829.279 2392.72 833.863 2396.51 837.659C2400.31 841.455 2407.47 843.026 2412.51 841.168ZM2466.87 811.704C2470.66 815.5 2469.66 820.084 2464.62 821.942C2459.58 823.8 2452.42 822.229 2448.63 818.433C2444.83 814.637 2445.84 810.053 2450.87 808.195C2455.91 806.337 2463.07 807.908 2466.87 811.704Z" fill="#F2F7F9"/>
<rect width="493.05" height="493.05" rx="16.6645" transform="matrix(0.938191 -0.346117 0.707107 0.707107 2096.9 1333.52)" fill="#F2F7F9"/>
<mask id="mask0" style="mask-type:alpha" maskUnits="userSpaceOnUse" x="2104" y="1167" width="797" height="511">
<rect width="493.05" height="493.05" rx="16.6645" transform="matrix(0.938191 -0.346117 0.707107 0.707107 2096.9 1333.52)" fill="white"/>
</mask>
<g mask="url(#mask0)">
</g>
<rect width="166.08" height="25.95" rx="5.55482" transform="matrix(0.938191 -0.346117 0.707107 0.707107 2455.79 1482.45)" fill="#BFD4E4"/>
<path fill-rule="evenodd" clip-rule="evenodd" d="M2431.25 1534.56C2429.08 1532.39 2429.66 1529.77 2432.53 1528.71L2689.92 1433.75C2692.8 1432.69 2696.89 1433.59 2699.06 1435.76L2709.55 1446.25C2711.72 1448.42 2711.15 1451.04 2708.27 1452.1L2450.88 1547.05C2448 1548.12 2443.91 1547.22 2441.74 1545.05L2431.25 1534.56Z" fill="#DDEAF3"/>
<path d="M2108.68 1345.3C2102.18 1338.8 2103.9 1330.94 2112.53 1327.75L2543.7 1168.69C2552.34 1165.5 2564.61 1168.19 2571.12 1174.7L2598.62 1202.2L2136.18 1372.8L2108.68 1345.3Z" fill="#DDEAF3"/>
<path fill-rule="evenodd" clip-rule="evenodd" d="M2151.75 1350.92C2156.79 1349.06 2157.8 1344.48 2154 1340.68C2150.2 1336.89 2143.04 1335.32 2138.01 1337.17C2132.97 1339.03 2131.96 1343.62 2135.76 1347.41C2139.56 1351.21 2146.72 1352.78 2151.75 1350.92ZM2177.81 1341.31C2182.85 1339.45 2183.86 1334.87 2180.06 1331.07C2176.26 1327.27 2169.1 1325.7 2164.07 1327.56C2159.03 1329.42 2158.02 1334 2161.82 1337.8C2165.62 1341.6 2172.78 1343.17 2177.81 1341.31ZM2206.12 1321.46C2209.91 1325.26 2208.91 1329.84 2203.87 1331.7C2198.83 1333.56 2191.67 1331.98 2187.88 1328.19C2184.08 1324.39 2185.08 1319.81 2190.12 1317.95C2195.16 1316.09 2202.32 1317.66 2206.12 1321.46Z" fill="#F2F7F9"/>
<path fill-rule="evenodd" clip-rule="evenodd" d="M2429.96 1416.62C2450.22 1436.88 2488.47 1445.28 2515.35 1435.36C2542.23 1425.44 2547.6 1400.96 2527.34 1380.7C2507.09 1360.44 2468.83 1352.05 2441.95 1361.96C2415.07 1371.88 2409.7 1396.37 2429.96 1416.62ZM2478.58 1378.6C2484.67 1384.69 2483.06 1392.01 2474.98 1395C2466.9 1397.98 2455.46 1395.47 2449.36 1389.38C2443.27 1383.28 2444.88 1375.96 2452.96 1372.98C2461.04 1370 2472.49 1372.51 2478.58 1378.6ZM2465.97 1424.7C2464.7 1424.29 2463.56 1423.62 2463.04 1422.76C2458.6 1415.45 2472.76 1405.35 2481.95 1401.96C2491.09 1398.59 2512.42 1395.6 2521.06 1401.35C2522.08 1402.03 2522.53 1402.96 2522.54 1403.83C2522.72 1412.74 2516.67 1420.8 2505.07 1425.08C2493.48 1429.36 2478.9 1428.9 2465.97 1424.7Z" fill="#DDEAF3"/>
<rect width="493.05" height="493.05" rx="16.6645" transform="matrix(0.938191 -0.346117 0.707107 0.707107 1467.12 361.279)" fill="#F2F7F9"/>
<rect width="171.27" height="25.95" rx="5.55482" transform="matrix(0.938191 -0.346117 0.707107 0.707107 1691.46 378.988)" fill="#DDEAF3"/>
<path fill-rule="evenodd" clip-rule="evenodd" d="M2065.96 560.187C2063.8 558.017 2064.37 555.398 2067.25 554.336L2202.9 504.291C2205.78 503.229 2209.87 504.127 2212.04 506.296L2222.54 516.79C2224.7 518.959 2224.13 521.579 2221.25 522.64L2085.6 572.686C2082.72 573.747 2078.63 572.85 2076.46 570.68L2065.96 560.187Z" fill="#DDEAF3"/>
<path fill-rule="evenodd" clip-rule="evenodd" d="M1798.16 658.988C1795.99 656.819 1796.57 654.2 1799.44 653.138L1995.96 580.638C1998.84 579.577 2002.93 580.474 2005.1 582.644L2015.6 593.137C2017.76 595.307 2017.19 597.926 2014.31 598.988L1817.79 671.487C1814.92 672.549 1810.82 671.651 1808.65 669.482L1798.16 658.988Z" fill="#BFD4E4"/>
<g clip-path="url(#clip1)">
<path fill-rule="evenodd" clip-rule="evenodd" d="M2099.98 392.963C2100.83 393.811 2101.21 394.785 2101.03 395.669L2097.97 409.744C2097.6 411.589 2094.97 412.558 2092.1 411.91C2089.24 411.261 2087.22 409.239 2087.59 407.392L2089.97 396.659L2072.93 392.78C2070.06 392.13 2068.04 390.109 2068.41 388.262C2068.79 386.417 2071.41 385.448 2074.28 386.098L2096.51 391.155C2097.89 391.463 2099.14 392.115 2099.98 392.963Z" fill="#DDEAF3"/>
</g>
<g clip-path="url(#clip2)">
<path fill-rule="evenodd" clip-rule="evenodd" d="M1684.23 546.336C1685.07 547.185 1686.32 547.837 1687.7 548.145L1709.67 552.989C1712.54 553.638 1715.16 552.669 1715.54 550.823C1715.91 548.98 1713.89 546.958 1711.02 546.306L1694.24 542.641L1696.43 531.669C1696.8 529.825 1694.78 527.804 1691.91 527.151C1689.04 526.503 1686.42 527.472 1686.05 529.316L1683.18 543.631C1683 544.515 1683.38 545.488 1684.23 546.336Z" fill="#DDEAF3"/>
</g>
<rect width="25.95" height="176.411" rx="5.55482" transform="matrix(0.938191 -0.346117 0.707107 0.707107 1816.15 410.362)" fill="#DDEAF3"/>
<rect width="25.95" height="176.411" rx="5.55482" transform="matrix(0.938191 -0.346117 0.707107 0.707107 1779.63 423.832)" fill="#DDEAF3"/>
<rect width="25.95" height="176.411" rx="5.55482" transform="matrix(0.938191 -0.346117 0.707107 0.707107 1741.64 435.834)" fill="#DDEAF3"/>
<rect width="25.95" height="176.411" rx="5.55482" transform="matrix(0.938191 -0.346117 0.707107 0.707107 1705.12 449.307)" fill="#DDEAF3"/>
<rect width="25.95" height="176.411" rx="5.55482" transform="matrix(0.938191 -0.346117 0.707107 0.707107 1962.59 356.829)" fill="#DDEAF3"/>
<rect width="25.95" height="176.411" rx="5.55482" transform="matrix(0.938191 -0.346117 0.707107 0.707107 1926.07 370.312)" fill="#DDEAF3"/>
<rect width="25.95" height="176.411" rx="5.55482" transform="matrix(0.938191 -0.346117 0.707107 0.707107 1887.72 381.948)" fill="#DDEAF3"/>
<rect width="25.95" height="176.412" rx="5.55482" transform="matrix(0.938191 -0.346117 0.707107 0.707107 1851.2 395.42)" fill="#DDEAF3"/>
<rect width="25.95" height="176.411" rx="5.55482" transform="matrix(0.938191 -0.346117 0.707107 0.707107 1668.6 462.779)" fill="#DDEAF3"/>
<rect width="25.95" height="134.376" rx="5.55482" transform="matrix(0.938191 -0.346117 0.707107 0.707107 1845.87 440.082)" fill="#BFD4E4"/>
<rect width="25.95" height="116.211" rx="5.55482" transform="matrix(0.938191 -0.346117 0.707107 0.707107 1822.2 466.397)" fill="#BFD4E4"/>
<rect width="25.95" height="134.376" rx="5.55482" transform="matrix(0.938191 -0.346117 0.707107 0.707107 1771.98 466.174)" fill="#BFD4E4"/>
<rect width="25.95" height="96.8328" rx="5.55482" transform="matrix(0.938191 -0.346117 0.707107 0.707107 1762.01 506.193)" fill="#BFD4E4"/>
<rect width="25.95" height="134.376" rx="5.55482" transform="matrix(0.938191 -0.346117 0.707107 0.707107 1991.95 386.195)" fill="#BFD4E4"/>
<rect width="25.95" height="75.5792" rx="5.55482" transform="matrix(0.938191 -0.346117 0.707107 0.707107 1997.63 441.865)" fill="#BFD4E4"/>
<rect width="25.95" height="134.376" rx="5.55482" transform="matrix(0.938191 -0.346117 0.707107 0.707107 1918.91 413.139)" fill="#BFD4E4"/>
<rect width="25.95" height="89.0477" rx="5.55482" transform="matrix(0.938191 -0.346117 0.707107 0.707107 1913.58 457.801)" fill="#BFD4E4"/>
<path fill-rule="evenodd" clip-rule="evenodd" d="M1692.71 486.889C1690.54 484.719 1691.12 482.1 1694 481.038L1707.92 475.902C1710.8 474.84 1714.89 475.738 1717.06 477.907L1814.37 575.221C1816.54 577.391 1815.97 580.01 1813.09 581.072L1799.17 586.208C1796.29 587.27 1792.2 586.372 1790.03 584.203L1692.71 486.889Z" fill="#BFD4E4"/>
<path d="M1478.9 373.063C1472.39 366.555 1474.12 358.697 1482.75 355.511L1913.92 196.445C1922.56 193.26 1934.83 195.953 1941.34 202.461L1968.83 229.956L1506.4 400.558L1478.9 373.063Z" fill="#DDEAF3"/>
<path fill-rule="evenodd" clip-rule="evenodd" d="M1521.97 378.681C1527.01 376.823 1528.01 372.239 1524.22 368.442C1520.42 364.646 1513.26 363.075 1508.22 364.933C1503.19 366.791 1502.18 371.375 1505.98 375.172C1509.77 378.968 1516.94 380.539 1521.97 378.681ZM1548.03 369.068C1553.07 367.21 1554.07 362.626 1550.28 358.83C1546.48 355.033 1539.32 353.462 1534.28 355.32C1529.25 357.179 1528.24 361.763 1532.04 365.559C1535.83 369.355 1542.99 370.926 1548.03 369.068ZM1576.33 349.217C1580.13 353.013 1579.12 357.597 1574.09 359.455C1569.05 361.313 1561.89 359.742 1558.09 355.946C1554.3 352.15 1555.3 347.566 1560.34 345.708C1565.38 343.849 1572.54 345.42 1576.33 349.217Z" fill="#F2F7F9"/>
<rect width="493.05" height="493.05" rx="16.6645" transform="matrix(0.938191 -0.346117 0.707107 0.707107 635.891 299.132)" fill="#F2F7F9"/>
<path fill-rule="evenodd" clip-rule="evenodd" d="M929.605 445.775L915.241 449.766C914.338 450.02 913.202 449.884 912.248 449.403L898.672 442.402C896.456 441.237 893.727 442.244 894.407 443.975L898.416 454.506C898.717 455.228 898.354 455.917 897.566 456.286L885.112 462.189C883.259 463.071 884.334 465.251 886.846 465.711L903.64 468.672C904.728 468.865 905.634 469.403 906.078 470.111L912.424 480.612C913.44 482.259 916.769 482.696 917.755 481.262L923.985 472.185C924.396 471.598 925.28 471.272 926.328 471.321L942.461 472.147C945.01 472.277 945.937 470.31 943.969 468.975L931.591 460.699C930.762 460.133 930.394 459.397 930.613 458.721L934.029 448.305C934.476 446.753 931.748 445.182 929.605 445.775Z" fill="#32C5FF"/>
<path d="M910.437 451.19L910.458 451.201L910.478 451.211C912.526 452.243 915.06 452.571 917.11 451.997C917.113 451.996 917.115 451.996 917.117 451.995L930.226 448.353L927.126 457.803L927.125 457.808C926.643 459.296 927.476 460.956 929.293 462.197L929.311 462.209L929.328 462.22L940.5 469.689L925.921 468.942L925.91 468.941L925.898 468.941C923.584 468.832 921.614 469.559 920.706 470.856L920.701 470.863L920.697 470.869L915.07 479.068L909.348 469.6L909.337 469.581L909.326 469.563C908.35 468.011 906.309 466.797 903.914 466.371L903.906 466.37L888.657 463.681L899.957 458.326C899.959 458.325 899.961 458.324 899.963 458.323C901.662 457.522 902.531 456.008 901.85 454.324L898.267 444.914L910.437 451.19Z" stroke="#0998FF" stroke-opacity="0.7" stroke-width="6.06069"/>
<path fill-rule="evenodd" clip-rule="evenodd" d="M1002.57 418.76L988.21 422.751C987.306 423.005 986.171 422.869 985.217 422.389L971.641 415.387C969.425 414.223 966.696 415.229 967.375 416.961L971.385 427.492C971.685 428.213 971.322 428.902 970.535 429.272L958.081 435.174C956.228 436.056 957.303 438.236 959.815 438.697L976.609 441.657C977.696 441.851 978.602 442.389 979.047 443.096L985.393 453.598C986.409 455.245 989.738 455.681 990.724 454.247L996.953 445.171C997.365 444.583 998.249 444.257 999.297 444.306L1015.43 445.133C1017.98 445.262 1018.91 443.296 1016.94 441.96L1004.56 433.684C1003.73 433.118 1003.36 432.382 1003.58 431.707L1007 421.29C1007.44 419.738 1004.72 418.168 1002.57 418.76Z" fill="#BFD4E4"/>
<path fill-rule="evenodd" clip-rule="evenodd" d="M1075.62 391.817L1061.25 395.808C1060.35 396.062 1059.21 395.926 1058.26 395.445L1044.68 388.444C1042.47 387.279 1039.74 388.286 1040.42 390.017L1044.43 400.548C1044.73 401.27 1044.36 401.959 1043.58 402.329L1031.12 408.231C1029.27 409.113 1030.35 411.293 1032.86 411.753L1049.65 414.714C1050.74 414.907 1051.64 415.445 1052.09 416.153L1058.44 426.654C1059.45 428.301 1062.78 428.738 1063.77 427.304L1070 418.228C1070.41 417.64 1071.29 417.314 1072.34 417.363L1088.47 418.19C1091.02 418.319 1091.95 416.353 1089.98 415.017L1077.6 406.741C1076.77 406.175 1076.4 405.439 1076.62 404.763L1080.04 394.347C1080.49 392.795 1077.76 391.224 1075.62 391.817Z" fill="#BFD4E4"/>
<path fill-rule="evenodd" clip-rule="evenodd" d="M1148.65 364.863L1134.29 368.855C1133.38 369.109 1132.25 368.973 1131.3 368.492L1117.72 361.491C1115.5 360.326 1112.77 361.333 1113.45 363.064L1117.46 373.595C1117.76 374.317 1117.4 375.006 1116.61 375.375L1104.16 381.278C1102.31 382.16 1103.38 384.34 1105.89 384.8L1122.69 387.761C1123.77 387.954 1124.68 388.492 1125.13 389.2L1131.47 399.701C1132.49 401.348 1135.82 401.784 1136.8 400.351L1143.03 391.274C1143.44 390.687 1144.33 390.36 1145.38 390.41L1161.51 391.236C1164.06 391.366 1164.98 389.399 1163.02 388.064L1150.64 379.788C1149.81 379.222 1149.44 378.486 1149.66 377.81L1153.08 367.394C1153.52 365.841 1150.8 364.271 1148.65 364.863Z" fill="#BFD4E4"/>
<path fill-rule="evenodd" clip-rule="evenodd" d="M1221.69 337.92L1207.33 341.911C1206.42 342.165 1205.29 342.03 1204.34 341.549L1190.76 334.547C1188.54 333.383 1185.81 334.389 1186.49 336.121L1190.5 346.652C1190.8 347.373 1190.44 348.062 1189.65 348.432L1177.2 354.335C1175.35 355.216 1176.42 357.396 1178.93 357.857L1195.73 360.818C1196.81 361.011 1197.72 361.549 1198.17 362.257L1204.51 372.758C1205.53 374.405 1208.86 374.841 1209.84 373.408L1216.07 364.331C1216.48 363.743 1217.37 363.417 1218.42 363.466L1234.55 364.293C1237.1 364.423 1238.02 362.456 1236.06 361.12L1223.68 352.845C1222.85 352.278 1222.48 351.542 1222.7 350.867L1226.12 340.45C1226.56 338.898 1223.83 337.328 1221.69 337.92Z" fill="#BFD4E4"/>
<rect width="198.517" height="25.95" rx="5.55482" transform="matrix(0.938191 -0.346117 0.707107 0.707107 874.979 349.086)" fill="#DDEAF3"/>
<path fill-rule="evenodd" clip-rule="evenodd" d="M820.34 336.937C818.171 334.767 818.745 332.148 821.624 331.086L1059.53 243.318C1062.41 242.256 1066.5 243.154 1068.67 245.323L1079.16 255.817C1081.33 257.986 1080.76 260.605 1077.88 261.667L839.973 349.436C837.095 350.497 833.003 349.6 830.834 347.43L820.34 336.937Z" fill="#DDEAF3"/>
<path fill-rule="evenodd" clip-rule="evenodd" d="M1064.14 510.741C1061.97 508.572 1062.54 505.953 1065.42 504.891L1201.07 454.846C1203.95 453.784 1208.04 454.682 1210.21 456.851L1239.06 485.694C1241.23 487.863 1240.65 490.483 1237.77 491.545L1102.12 541.59C1099.24 542.652 1095.15 541.754 1092.98 539.585L1064.14 510.741Z" fill="#DDEAF3"/>
<path d="M647.674 310.915C641.166 304.408 642.89 296.549 651.525 293.364L1082.69 134.298C1091.33 131.112 1103.6 133.806 1110.11 140.313L1137.61 167.808L675.169 338.41L647.674 310.915Z" fill="#DDEAF3"/>
<path fill-rule="evenodd" clip-rule="evenodd" d="M690.744 316.534C695.78 314.676 696.786 310.092 692.99 306.296C689.194 302.5 682.033 300.929 676.996 302.787C671.959 304.645 670.953 309.229 674.75 313.025C678.546 316.821 685.707 318.392 690.744 316.534ZM716.802 306.921C721.839 305.063 722.845 300.479 719.049 296.683C715.253 292.887 708.092 291.316 703.055 293.174C698.018 295.032 697.012 299.616 700.809 303.412C704.605 307.209 711.766 308.78 716.802 306.921ZM745.105 287.07C748.901 290.866 747.896 295.45 742.859 297.309C737.822 299.167 730.661 297.596 726.865 293.799C723.069 290.003 724.074 285.419 729.111 283.561C734.148 281.703 741.309 283.274 745.105 287.07Z" fill="#F2F7F9"/>
<g filter="url(#filter0_d)">
<path fill-rule="evenodd" clip-rule="evenodd" d="M1974 160.713C2007.15 148.726 2014.09 118.784 1989.52 93.8362C1964.95 68.8886 1918.16 58.3824 1885.02 70.3699C1851.88 82.3574 1844.93 112.299 1869.51 137.247C1894.08 162.194 1940.86 172.701 1974 160.713Z" fill="#FFC500"/>
<path d="M1987.02 94.7406C2010.57 118.649 2003.91 147.343 1972.15 158.831C1940.39 170.319 1895.55 160.251 1872.01 136.342C1848.46 112.434 1855.12 83.7401 1886.88 72.252C1918.64 60.764 1963.47 70.8325 1987.02 94.7406Z" stroke="#FF9800" stroke-opacity="0.7" stroke-width="5.3021"/>
<path d="M1936.18 137.28L1907.42 108.078L1920.98 103.172C1923.69 102.195 1926.26 101.74 1928.71 101.809C1931.15 101.868 1933.38 102.331 1935.4 103.2C1937.41 104.058 1939.12 105.2 1940.52 106.626C1941.76 107.881 1942.48 109.024 1942.69 110.057C1942.92 111.084 1942.78 112.009 1942.29 112.832C1941.81 113.65 1941.13 114.374 1940.24 115.004L1940.52 115.289C1941.77 114.917 1943.27 114.799 1945.03 114.935C1946.79 115.071 1948.6 115.526 1950.46 116.298C1952.31 117.07 1954 118.227 1955.52 119.767C1956.96 121.23 1957.81 122.707 1958.08 124.196C1958.35 125.685 1957.87 127.116 1956.63 128.49C1955.4 129.865 1953.26 131.104 1950.2 132.21L1936.18 137.28ZM1937.79 132.444L1947.11 129.073C1950.18 127.963 1951.92 126.728 1952.33 125.369C1952.74 123.995 1952.31 122.667 1951.05 121.383C1950.07 120.395 1948.84 119.603 1947.35 119.009C1945.84 118.405 1944.23 118.075 1942.49 118.019C1940.75 117.953 1939.03 118.226 1937.34 118.838L1927.79 122.291L1937.79 132.444ZM1924.76 119.212L1933.47 116.06C1934.89 115.548 1935.96 114.878 1936.68 114.048C1937.42 113.215 1937.75 112.296 1937.67 111.294C1937.6 110.287 1937.06 109.27 1936.05 108.243C1934.79 106.96 1933.12 106.086 1931.05 105.622C1928.98 105.148 1926.65 105.377 1924.07 106.309L1915.21 109.516L1924.76 119.212Z" fill="white"/>
</g>
<g style="mix-blend-mode:multiply" opacity="0.7" filter="url(#filter1_f)">
<path d="M1585.08 471.621L1222.56 627.632L1566.38 957.329L2089.55 739.271L1585.08 471.621Z" fill="#293450" fill-opacity="0.5"/>
</g>
<g opacity="0.3" filter="url(#filter2_f)">
<path d="M1553.24 316.714L1211.2 672.387L1534.03 995.218L2060.72 763.474L1553.24 316.714Z" fill="url(#paint0_linear)"/>
</g>
<rect x="1162.72" y="623.164" width="495.382" height="495.382" rx="24.2428" transform="rotate(-45 1162.72 623.164)" fill="#F2F7F9"/>
<path fill-rule="evenodd" clip-rule="evenodd" d="M1510.7 624.544C1540.99 594.252 1540.99 545.14 1510.7 514.849C1480.41 484.557 1431.3 484.557 1401.01 514.849C1370.71 545.14 1370.71 594.252 1401.01 624.544C1431.3 654.836 1480.41 654.836 1510.7 624.544Z" fill="#DDEAF3"/>
<path fill-rule="evenodd" clip-rule="evenodd" d="M1446.19 579.115C1443.48 579.115 1441.29 581.308 1441.29 584.013C1441.29 586.718 1443.48 588.911 1446.19 588.911L1464.93 588.696C1467.95 588.696 1470.25 585.989 1469.76 583.008L1464.44 545.334C1464 542.664 1461.48 540.854 1458.81 541.289C1456.14 541.725 1454.33 544.243 1454.77 546.912L1459.16 578.9L1446.19 579.115Z" fill="white"/>
<path fill-rule="evenodd" clip-rule="evenodd" d="M1491.07 767.143C1487.91 763.987 1487.91 758.87 1491.07 755.715L1645.57 601.217C1648.72 598.061 1653.84 598.061 1656.99 601.217L1664 608.225C1667.16 611.381 1667.16 616.497 1664 619.653L1509.5 774.151C1506.35 777.307 1501.23 777.307 1498.08 774.151L1491.07 767.143Z" fill="#DDEAF3"/>
<path fill-rule="evenodd" clip-rule="evenodd" d="M1435.76 767.144C1432.6 763.988 1432.6 758.871 1435.76 755.716L1645.57 545.909C1648.72 542.754 1653.84 542.754 1656.99 545.909L1664 552.917C1667.16 556.073 1667.16 561.19 1664 564.346L1454.2 774.152C1451.04 777.308 1445.92 777.308 1442.77 774.152L1435.76 767.144Z" fill="#DDEAF3"/>
<path fill-rule="evenodd" clip-rule="evenodd" d="M1561.31 782.085C1555 775.774 1555 765.541 1561.31 759.229L1649.07 671.468C1655.38 665.157 1665.62 665.157 1671.93 671.468L1685.94 685.484C1692.26 691.796 1692.26 702.029 1685.94 708.341L1598.18 796.102C1591.87 802.413 1581.64 802.413 1575.33 796.101L1561.31 782.085Z" fill="#32C5FF"/>
<path d="M1563.45 779.943C1558.33 774.814 1558.33 766.5 1563.45 761.372L1651.21 673.611C1656.34 668.483 1664.66 668.483 1669.79 673.611L1683.8 687.627C1688.93 692.755 1688.93 701.07 1683.8 706.198L1596.04 793.959C1590.91 799.087 1582.6 799.087 1577.47 793.959L1563.45 779.943Z" stroke="#0998FF" stroke-opacity="0.7" stroke-width="6.06069"/>
<path d="M1179.86 640.306C1170.4 630.839 1170.4 615.489 1179.86 606.022L1496.1 289.786C1505.57 280.319 1520.92 280.319 1530.38 289.786L1550.11 309.517L1199.59 660.036L1179.86 640.306Z" fill="#DDEAF3"/>
<path fill-rule="evenodd" clip-rule="evenodd" d="M1207.89 629.613C1211.45 626.049 1211.45 620.271 1207.89 616.707C1204.33 613.144 1198.55 613.144 1194.98 616.707C1191.42 620.271 1191.42 626.049 1194.98 629.613C1198.55 633.177 1204.33 633.177 1207.89 629.613ZM1226.32 611.18C1229.89 607.616 1229.89 601.838 1226.32 598.274C1222.76 594.711 1216.98 594.711 1213.42 598.274C1209.85 601.838 1209.85 607.616 1213.42 611.18C1216.98 614.744 1222.76 614.744 1226.32 611.18ZM1244.76 579.836C1248.33 583.4 1248.33 589.177 1244.76 592.741C1241.2 596.305 1235.42 596.305 1231.86 592.741C1228.29 589.177 1228.29 583.4 1231.86 579.836C1235.42 576.272 1241.2 576.272 1244.76 579.836Z" fill="#F2F7F9"/>
<path d="M920.011 1107.91L715.496 1183.36C678.865 1196.88 671.551 1230.21 699.159 1257.82L757.831 1316.49" stroke="#EBF2F8" stroke-width="5.3021"/>
<path d="M746.539 1312.96C745.92 1313.19 746.013 1313.83 746.711 1314.14L760.724 1320.4C761.486 1320.74 762.345 1320.42 762.2 1319.85L759.524 1309.42C759.391 1308.9 758.496 1308.55 757.876 1308.78L746.539 1312.96Z" fill="white" stroke="#DAE4ED" stroke-width="5.3021"/>
<path d="M924.39 1112.29C927.595 1111.11 928.235 1108.19 925.819 1105.78C923.404 1103.36 918.847 1102.36 915.642 1103.54C912.437 1104.72 911.797 1107.64 914.212 1110.06C916.628 1112.47 921.185 1113.47 924.39 1112.29Z" fill="white" stroke="#DAE4ED" stroke-width="5.3021"/>
<g filter="url(#filter3_d)">
<rect x="1430.14" y="214.678" width="212.844" height="212.844" rx="21.9772" transform="rotate(-45 1430.14 214.678)" fill="#32C5FF"/>
<path fill-rule="evenodd" clip-rule="evenodd" d="M1512.03 209.446C1509.49 211.984 1509.49 216.098 1512.03 218.636L1576.36 282.971C1578.9 285.509 1583.01 285.509 1585.55 282.971L1649.89 218.636C1652.42 216.098 1652.42 211.984 1649.89 209.446L1585.55 145.111C1583.01 142.573 1578.9 142.573 1576.36 145.111L1512.03 209.446ZM1591.17 203.824L1595.29 236.543L1572.79 234.46L1576.87 267.138L1634.06 209.951L1591.17 203.824Z" fill="#F2F7F9"/>
</g>
<path d="M1876.62 1090.79L1328.46 1293.02C1291.83 1306.54 1284.51 1339.87 1312.12 1367.48L1469.47 1524.83" stroke="#EBF2F8" stroke-width="5.3021"/>
<path d="M1881 1095.17C1884.2 1093.99 1884.84 1091.07 1882.43 1088.66C1880.01 1086.24 1875.46 1085.24 1872.25 1086.42C1869.05 1087.6 1868.41 1090.52 1870.82 1092.94C1873.24 1095.35 1877.79 1096.35 1881 1095.17Z" fill="white" stroke="#DAE4ED" stroke-width="5.3021"/>
<g filter="url(#filter4_d)">
<rect width="267.659" height="104.378" rx="26.0646" transform="matrix(0.938191 -0.346117 0.707107 0.707107 793.473 680.062)" fill="#F64662"/>
<path d="M876.557 715.597L854.217 693.257L866.085 688.879C869.356 687.672 872.349 687.304 875.066 687.775C877.785 688.236 879.981 689.302 881.653 690.975C882.969 692.291 883.528 693.543 883.33 694.731C883.124 695.912 882.38 696.919 881.098 697.75L881.316 697.968C882.481 697.588 883.778 697.438 885.206 697.519C886.643 697.596 888.067 697.917 889.477 698.481C890.887 699.046 892.145 699.881 893.25 700.987C894.436 702.172 895.103 703.374 895.252 704.594C895.411 705.809 895.002 706.965 894.026 708.062C893.042 709.152 891.44 710.106 889.221 710.925L876.557 715.597ZM878.962 709.424L884.071 707.539C885.827 706.891 886.846 706.167 887.128 705.366C887.42 704.561 887.148 703.741 886.312 702.904C885.388 701.981 884.193 701.386 882.726 701.121C881.268 700.853 879.787 700.996 878.282 701.551L873.028 703.489L878.962 709.424ZM869.832 700.293L874.478 698.579C875.761 698.106 876.576 697.462 876.924 696.647C877.264 695.824 876.994 694.973 876.114 694.093C875.307 693.286 874.275 692.776 873.018 692.563C871.771 692.346 870.453 692.494 869.063 693.006L864.302 694.763L869.832 700.293ZM904.725 705.205L882.385 682.865L888.652 680.553L907.097 698.999L919.805 694.311L923.699 698.205L904.725 705.205ZM943.986 675.43C946.422 677.867 947.882 680.165 948.365 682.326C948.858 684.484 948.509 686.399 947.317 688.074C946.118 689.741 944.206 691.058 941.581 692.026C938.947 692.998 936.132 693.419 933.137 693.29C930.141 693.161 927.181 692.466 924.257 691.205C921.325 689.938 918.648 688.093 916.226 685.671C913.79 683.235 912.326 680.938 911.832 678.781C911.339 676.623 911.692 674.711 912.891 673.044C914.083 671.37 915.996 670.047 918.631 669.075C921.255 668.107 924.065 667.688 927.06 667.817C930.049 667.939 933.005 668.63 935.93 669.891C938.864 671.148 941.549 672.994 943.986 675.43ZM937.632 677.774C935.261 675.404 932.769 673.849 930.155 673.111C927.534 672.366 925.085 672.413 922.808 673.253C920.531 674.093 919.333 675.392 919.214 677.148C919.087 678.897 920.209 680.957 922.58 683.327C924.943 685.691 927.436 687.245 930.057 687.991C932.677 688.736 935.126 688.689 937.404 687.848C939.681 687.008 940.879 685.71 940.998 683.954C941.117 682.198 939.995 680.138 937.632 677.774ZM972.654 660.27L966.315 662.608C964.845 661.468 963.187 660.761 961.34 660.487C959.487 660.205 957.701 660.381 955.984 661.014C953.687 661.861 952.481 663.178 952.364 664.963C952.25 666.737 953.356 668.788 955.683 671.115C958.068 673.5 960.577 675.058 963.21 675.789C965.846 676.509 968.287 676.455 970.536 675.625C972.205 675.01 973.291 674.161 973.794 673.079C974.29 671.99 974.092 670.794 973.198 669.491L979.559 667.175C980.704 668.624 981.345 670.149 981.481 671.752C981.617 673.354 981.139 674.869 980.045 676.298C978.961 677.724 977.15 678.904 974.612 679.841C971.968 680.816 969.154 681.237 966.168 681.104C963.191 680.968 960.246 680.268 957.331 679.004C954.425 677.736 951.758 675.888 949.329 673.459C946.893 671.023 945.429 668.726 944.935 666.569C944.442 664.411 944.79 662.501 945.98 660.837C947.162 659.167 949.056 657.851 951.661 656.89C953.948 656.046 956.328 655.606 958.801 655.57C961.277 655.523 963.705 655.891 966.087 656.675C968.472 657.448 970.661 658.646 972.654 660.27ZM992.89 672.68L970.55 650.34L976.817 648.028L986.667 657.878L987.057 657.734L987.874 643.948L995.385 641.177L994.389 655.238L1017.86 663.469L1010.36 666.235L993.055 660.046L992.808 664.019L999.156 670.368L992.89 672.68ZM1037.98 656.046L1031.26 658.524L1019.15 632.409L1027.23 629.43L1059.79 648L1053.07 650.477L1045.78 646.195L1035.08 650.141L1037.98 656.046ZM1032.99 645.866L1040.51 643.09L1028.41 635.982L1028.18 636.067L1032.99 645.866Z" fill="white"/>
<rect x="5.3605" y="1.17613" width="261.143" height="97.8616" rx="22.8065" transform="matrix(0.938191 -0.346117 0.707107 0.707107 792.972 682.261)" stroke="#ED1325" stroke-opacity="0.7" stroke-width="6.51615"/>
</g>
<g filter="url(#filter5_d)">
<path fill-rule="evenodd" clip-rule="evenodd" d="M1577.44 1139.74C1610.58 1127.75 1617.53 1097.81 1592.95 1072.86C1568.38 1047.92 1521.6 1037.41 1488.46 1049.4C1455.31 1061.39 1448.37 1091.33 1472.94 1116.27C1497.51 1141.22 1544.3 1151.73 1577.44 1139.74Z" fill="#FFC500"/>
<path d="M1590.45 1073.77C1614 1097.68 1607.34 1126.37 1575.58 1137.86C1543.82 1149.35 1498.99 1139.28 1475.44 1115.37C1451.89 1091.46 1458.55 1062.77 1490.31 1051.28C1522.07 1039.79 1566.91 1049.86 1590.45 1073.77Z" stroke="#FF9800" stroke-opacity="0.7" stroke-width="5.3021"/>
<path d="M1540.53 1115.98L1535.61 1117.76L1521.09 1083.4L1525.94 1081.65L1568.94 1105.7L1564.02 1107.48L1528.21 1087.09L1527.91 1087.2L1540.53 1115.98ZM1531.11 1103.91L1550.97 1096.73L1554.05 1099.87L1534.2 1107.05L1531.11 1103.91Z" fill="white"/>
</g>
<rect width="493.05" height="493.05" rx="16.6645" transform="matrix(0.938191 -0.346117 0.707107 0.707107 381.243 1344.67)" fill="#F2F7F9"/>
<path fill-rule="evenodd" clip-rule="evenodd" d="M1039.51 1360.87C1038.66 1360.03 1037.41 1359.37 1036.04 1359.07L1014.07 1354.22C1011.2 1353.57 1008.57 1354.54 1008.2 1356.39C1007.83 1358.23 1009.85 1360.25 1012.71 1360.91L1029.49 1364.57L1027.31 1375.54C1026.93 1377.39 1028.96 1379.41 1031.82 1380.06C1034.69 1380.71 1037.32 1379.74 1037.69 1377.9L1040.55 1363.58C1040.74 1362.7 1040.36 1361.72 1039.51 1360.87Z" fill="#BFD4E4"/>
<path fill-rule="evenodd" clip-rule="evenodd" d="M641.332 1462.59C639.163 1460.42 639.738 1457.8 642.616 1456.74L887.04 1366.57C889.918 1365.5 894.01 1366.4 896.179 1368.57L906.673 1379.06C908.842 1381.23 908.268 1383.85 905.389 1384.91L660.965 1475.09C658.087 1476.15 653.995 1475.25 651.826 1473.08L641.332 1462.59Z" fill="#DDEAF3"/>
<path fill-rule="evenodd" clip-rule="evenodd" d="M642.902 1499.69C640.733 1497.52 641.308 1494.9 644.186 1493.84L940.524 1384.51C943.402 1383.45 947.494 1384.35 949.663 1386.52L960.157 1397.01C962.326 1399.18 961.751 1401.8 958.873 1402.86L662.536 1512.19C659.657 1513.25 655.565 1512.35 653.396 1510.18L642.902 1499.69Z" fill="#DDEAF3"/>
<path fill-rule="evenodd" clip-rule="evenodd" d="M696.383 1517.63C694.214 1515.46 694.788 1512.84 697.667 1511.78L942.091 1421.61C944.969 1420.55 949.061 1421.44 951.23 1423.61L961.724 1434.11C963.893 1436.28 963.318 1438.9 960.44 1439.96L716.016 1530.13C713.138 1531.19 709.046 1530.29 706.877 1528.13L696.383 1517.63Z" fill="#DDEAF3"/>
<path fill-rule="evenodd" clip-rule="evenodd" d="M482.916 1413.02C480.747 1410.85 481.322 1408.23 484.2 1407.17L535.859 1388.11C538.737 1387.05 542.829 1387.95 544.999 1390.12L555.492 1400.61C557.662 1402.78 557.087 1405.4 554.209 1406.46L502.549 1425.52C499.671 1426.58 495.579 1425.68 493.41 1423.51L482.916 1413.02Z" fill="#BFD4E4"/>
<path fill-rule="evenodd" clip-rule="evenodd" d="M570.864 1380.57C568.695 1378.4 569.27 1375.78 572.148 1374.72L623.808 1355.66C626.686 1354.6 630.778 1355.5 632.947 1357.67L643.441 1368.16C645.61 1370.33 645.035 1372.95 642.157 1374.01L590.497 1393.07C587.619 1394.13 583.527 1393.24 581.358 1391.07L570.864 1380.57Z" fill="#DDEAF3"/>
<path fill-rule="evenodd" clip-rule="evenodd" d="M658.815 1348.13C656.645 1345.96 657.22 1343.34 660.098 1342.27L711.758 1323.22C714.636 1322.15 718.728 1323.05 720.897 1325.22L731.391 1335.72C733.56 1337.88 732.985 1340.5 730.107 1341.57L678.448 1360.62C675.569 1361.69 671.478 1360.79 669.308 1358.62L658.815 1348.13Z" fill="#DDEAF3"/>
<path fill-rule="evenodd" clip-rule="evenodd" d="M746.766 1315.68C744.596 1313.51 745.171 1310.89 748.049 1309.83L799.709 1290.77C802.587 1289.71 806.679 1290.6 808.848 1292.77L819.342 1303.27C821.511 1305.44 820.937 1308.06 818.058 1309.12L766.399 1328.18C763.521 1329.24 759.429 1328.34 757.259 1326.17L746.766 1315.68Z" fill="#DDEAF3"/>
<path fill-rule="evenodd" clip-rule="evenodd" d="M834.714 1283.23C832.545 1281.06 833.119 1278.44 835.998 1277.38L887.657 1258.32C890.535 1257.26 894.627 1258.16 896.796 1260.33L907.29 1270.82C909.459 1272.99 908.885 1275.61 906.007 1276.67L854.347 1295.73C851.469 1296.79 847.377 1295.89 845.208 1293.72L834.714 1283.23Z" fill="#DDEAF3"/>
<path d="M393.027 1356.46C386.519 1349.95 388.243 1342.09 396.878 1338.91L828.046 1179.84C836.68 1176.65 848.956 1179.35 855.464 1185.86L882.959 1213.35L420.522 1383.95L393.027 1356.46Z" fill="#DDEAF3"/>
<path fill-rule="evenodd" clip-rule="evenodd" d="M462.153 1352.46C467.19 1350.6 468.196 1346.02 464.399 1342.22C460.603 1338.43 453.442 1336.86 448.406 1338.71C443.369 1340.57 442.363 1345.16 446.159 1348.95C449.955 1352.75 457.116 1354.32 462.153 1352.46ZM436.097 1362.08C441.134 1360.22 442.139 1355.63 438.343 1351.84C434.547 1348.04 427.386 1346.47 422.349 1348.33C417.312 1350.19 416.307 1354.77 420.103 1358.57C423.899 1362.36 431.06 1363.93 436.097 1362.08ZM490.458 1332.61C494.254 1336.41 493.248 1340.99 488.211 1342.85C483.175 1344.71 476.014 1343.14 472.218 1339.34C468.421 1335.55 469.427 1330.96 474.464 1329.1C479.501 1327.24 486.662 1328.82 490.458 1332.61Z" fill="#F2F7F9"/>
<rect width="182.028" height="104.378" rx="26.0646" transform="matrix(0.938191 -0.346117 0.707106 0.707107 2154.2 685.123)" fill="#66C109"/>
<path d="M2224.61 694.749L2231.63 692.159L2248.01 699.287L2248.3 699.18L2245.44 687.066L2252.46 684.476L2256.09 702.907L2263.99 710.805L2257.76 713.1L2249.87 705.203L2224.61 694.749ZM2279.44 705.102L2257.1 682.762L2277.08 675.394L2280.97 679.288L2267.27 684.344L2272.59 689.668L2285.27 684.99L2289.16 688.885L2276.48 693.562L2281.82 698.896L2295.58 693.818L2299.48 697.712L2279.44 705.102ZM2305.79 673.598C2304.79 672.76 2303.61 672.262 2302.23 672.102C2300.87 671.939 2299.44 672.133 2297.94 672.685C2296.41 673.251 2295.46 673.921 2295.12 674.697C2294.77 675.472 2294.96 676.22 2295.68 676.939C2296.46 677.746 2297.52 678.186 2298.86 678.259C2300.2 678.321 2301.63 678.228 2303.14 677.98L2306.28 677.478C2308.29 677.135 2310.23 676.994 2312.12 677.056C2314.01 677.114 2315.78 677.438 2317.41 678.03C2319.05 678.61 2320.49 679.522 2321.73 680.766C2323.77 682.813 2324.38 684.818 2323.57 686.779C2322.76 688.731 2320.54 690.374 2316.92 691.708C2313.32 693.036 2309.84 693.477 2306.46 693.031C2303.08 692.585 2300.14 691.169 2297.65 688.783L2303.72 686.546C2304.94 687.627 2306.37 688.255 2308 688.431C2309.63 688.595 2311.26 688.377 2312.89 687.775C2314.48 687.188 2315.5 686.466 2315.93 685.608C2316.38 684.746 2316.2 683.906 2315.4 683.088C2314.63 682.336 2313.61 681.916 2312.33 681.829C2311.06 681.742 2309.47 681.85 2307.57 682.154L2303.73 682.734C2300.78 683.205 2298.09 683.217 2295.66 682.769C2293.23 682.321 2291.2 681.274 2289.57 679.626C2288.2 678.277 2287.5 676.919 2287.45 675.553C2287.41 674.175 2287.96 672.893 2289.1 671.707C2290.23 670.513 2291.87 669.517 2294.03 668.72C2296.23 667.908 2298.44 667.484 2300.65 667.446C2302.86 667.404 2304.94 667.72 2306.86 668.393C2308.79 669.065 2310.43 670.062 2311.79 671.382L2305.79 673.598Z" fill="white"/>
<rect x="5.3605" y="1.17613" width="175.512" height="97.8617" rx="22.8065" transform="matrix(0.938191 -0.346117 0.707106 0.707107 2153.69 687.323)" stroke="#56A603" stroke-opacity="0.5" stroke-width="6.51615"/>
<g filter="url(#filter6_d)">
<rect width="228.301" height="228.301" rx="21.9772" transform="matrix(0.938191 -0.346117 0.707107 0.707107 713.389 1105.54)" fill="#32C5FF"/>
<path fill-rule="evenodd" clip-rule="evenodd" d="M906.516 1167.1L919.961 1138.2L871.552 1132.13L906.516 1167.1ZM860.495 1106.96C832.042 1117.46 826.354 1143.38 847.799 1164.83C869.244 1186.27 909.741 1195.16 938.194 1184.66C966.647 1174.16 972.335 1148.24 950.89 1126.79C929.445 1105.35 888.948 1096.46 860.495 1106.96Z" fill="#F2F7F9"/>
</g>
<rect width="493.05" height="493.05" rx="16.6645" transform="matrix(0.938191 -0.346117 0.707107 0.707107 -309 979.818)" fill="#F2F7F9"/>
<mask id="mask1" style="mask-type:alpha" maskUnits="userSpaceOnUse" x="-302" y="813" width="797" height="512">
<rect width="493.05" height="493.05" rx="16.6645" transform="matrix(0.938191 -0.346117 0.707107 0.707107 -309 979.818)" fill="white"/>
</mask>
<g mask="url(#mask1)">
</g>
<path fill-rule="evenodd" clip-rule="evenodd" d="M126.88 1191.28C122.542 1186.95 123.691 1181.71 129.447 1179.58L244.1 1137.29C249.857 1135.16 258.04 1136.96 262.379 1141.3L276.126 1155.04C280.465 1159.38 279.315 1164.62 273.559 1166.74L158.906 1209.04C153.15 1211.17 144.966 1209.37 140.628 1205.03L126.88 1191.28Z" fill="#32C5FF"/>
<path d="M128.834 1190.56C125.309 1187.04 126.243 1182.78 130.92 1181.06L245.573 1138.76C250.25 1137.03 256.899 1138.49 260.425 1142.02L274.172 1155.76C277.697 1159.29 276.763 1163.55 272.086 1165.27L157.433 1207.57C152.756 1209.29 146.107 1207.84 142.582 1204.31L128.834 1190.56Z" stroke="#0998FF" stroke-opacity="0.7" stroke-width="4.16612"/>
<rect width="166.08" height="25.95" rx="5.55482" transform="matrix(0.938191 -0.346117 0.707107 0.707107 49.8936 1128.75)" fill="#BFD4E4"/>
<path fill-rule="evenodd" clip-rule="evenodd" d="M25.3497 1180.85C23.1804 1178.68 23.7551 1176.07 26.6334 1175L284.017 1080.05C286.895 1078.99 290.987 1079.89 293.156 1082.05L303.65 1092.55C305.819 1094.72 305.245 1097.34 302.367 1098.4L44.9828 1193.35C42.1046 1194.41 38.0128 1193.52 35.8435 1191.35L25.3497 1180.85Z" fill="#DDEAF3"/>
<path d="M-297.216 991.601C-303.724 985.094 -302 977.236 -293.366 974.05L137.802 814.984C146.437 811.798 158.713 814.492 165.22 820.999L192.715 848.494L-269.721 1019.1L-297.216 991.601Z" fill="#DDEAF3"/>
<path fill-rule="evenodd" clip-rule="evenodd" d="M24.0592 1062.92C44.317 1083.18 82.5721 1091.57 109.45 1081.66C136.328 1071.74 141.701 1047.25 121.443 1027C101.186 1006.74 62.9306 998.344 36.0525 1008.26C9.17443 1018.18 3.80143 1042.66 24.0592 1062.92ZM72.6794 1024.9C78.7714 1030.99 77.1643 1038.31 69.0815 1041.29C60.9986 1044.28 49.5562 1041.77 43.4642 1035.67C37.3722 1029.58 38.9793 1022.26 47.0622 1019.28C55.145 1016.29 66.5874 1018.8 72.6794 1024.9ZM60.0664 1071C58.8029 1070.59 57.6605 1069.92 57.1366 1069.06C52.7005 1061.75 66.8652 1051.65 76.0526 1048.26C85.1941 1044.89 106.52 1041.89 115.159 1047.65C116.179 1048.33 116.627 1049.26 116.644 1050.13C116.819 1059.04 110.767 1067.1 99.1729 1071.38C87.5789 1075.66 73.0047 1075.2 60.0664 1071Z" fill="#DDEAF3"/>
</g>
<defs>
<filter id="filter0_d" x="1740.32" y="53.293" width="381.309" height="310.915" filterUnits="userSpaceOnUse" color-interpolation-filters="sRGB">
<feFlood flood-opacity="0" result="BackgroundImageFix"/>
<feColorMatrix in="SourceAlpha" type="matrix" values="0 0 0 0 0 0 0 0 0 0 0 0 0 0 0 0 0 0 127 0" result="hardAlpha"/>
<feOffset dy="92.8472"/>
<feGaussianBlur stdDeviation="46.4236"/>
<feColorMatrix type="matrix" values="0 0 0 0 0.970833 0 0 0 0 0.706605 0 0 0 0 0.396424 0 0 0 0.3 0"/>
<feBlend mode="normal" in2="BackgroundImageFix" result="effect1_dropShadow"/>
<feBlend mode="normal" in="SourceGraphic" in2="effect1_dropShadow" result="shape"/>
</filter>
<filter id="filter1_f" x="1082.74" y="331.805" width="1146.63" height="765.34" filterUnits="userSpaceOnUse" color-interpolation-filters="sRGB">
<feFlood flood-opacity="0" result="BackgroundImageFix"/>
<feBlend mode="normal" in="SourceGraphic" in2="BackgroundImageFix" result="shape"/>
<feGaussianBlur stdDeviation="69.9081" result="effect1_foregroundBlur"/>
</filter>
<filter id="filter2_f" x="1183.24" y="288.752" width="905.451" height="734.43" filterUnits="userSpaceOnUse" color-interpolation-filters="sRGB">
<feFlood flood-opacity="0" result="BackgroundImageFix"/>
<feBlend mode="normal" in="SourceGraphic" in2="BackgroundImageFix" result="shape"/>
<feGaussianBlur stdDeviation="13.9816" result="effect1_foregroundBlur"/>
</filter>
<filter id="filter3_d" x="1292.71" y="0" width="575.87" height="612.499" filterUnits="userSpaceOnUse" color-interpolation-filters="sRGB">
<feFlood flood-opacity="0" result="BackgroundImageFix"/>
<feColorMatrix in="SourceAlpha" type="matrix" values="0 0 0 0 0 0 0 0 0 0 0 0 0 0 0 0 0 0 127 0" result="hardAlpha"/>
<feOffset dy="109.886"/>
<feGaussianBlur stdDeviation="36.6286"/>
<feColorMatrix type="matrix" values="0 0 0 0 0.121528 0 0 0 0 0.188104 0 0 0 0 0.291667 0 0 0 0.05 0"/>
<feBlend mode="multiply" in2="BackgroundImageFix" result="effect1_dropShadow"/>
<feBlend mode="normal" in="SourceGraphic" in2="effect1_dropShadow" result="shape"/>
</filter>
<filter id="filter4_d" x="713.889" y="574.156" width="484.088" height="325.614" filterUnits="userSpaceOnUse" color-interpolation-filters="sRGB">
<feFlood flood-opacity="0" result="BackgroundImageFix"/>
<feColorMatrix in="SourceAlpha" type="matrix" values="0 0 0 0 0 0 0 0 0 0 0 0 0 0 0 0 0 0 127 0" result="hardAlpha"/>
<feOffset dy="66.3194"/>
<feGaussianBlur stdDeviation="39.7916"/>
<feColorMatrix type="matrix" values="0 0 0 0 0.964706 0 0 0 0 0.27451 0 0 0 0 0.384314 0 0 0 0.15 0"/>
<feBlend mode="normal" in2="BackgroundImageFix" result="effect1_dropShadow"/>
<feBlend mode="normal" in="SourceGraphic" in2="effect1_dropShadow" result="shape"/>
</filter>
<filter id="filter5_d" x="1370.28" y="1032.32" width="328.253" height="257.86" filterUnits="userSpaceOnUse" color-interpolation-filters="sRGB">
<feFlood flood-opacity="0" result="BackgroundImageFix"/>
<feColorMatrix in="SourceAlpha" type="matrix" values="0 0 0 0 0 0 0 0 0 0 0 0 0 0 0 0 0 0 127 0" result="hardAlpha"/>
<feOffset dy="66.3194"/>
<feGaussianBlur stdDeviation="33.1597"/>
<feColorMatrix type="matrix" values="0 0 0 0 0.970833 0 0 0 0 0.706605 0 0 0 0 0.396424 0 0 0 0.3 0"/>
<feBlend mode="normal" in2="BackgroundImageFix" result="effect1_dropShadow"/>
<feBlend mode="normal" in="SourceGraphic" in2="effect1_dropShadow" result="shape"/>
</filter>
<filter id="filter6_d" x="597.478" y="977.791" width="607.447" height="417.491" filterUnits="userSpaceOnUse" color-interpolation-filters="sRGB">
<feFlood flood-opacity="0" result="BackgroundImageFix"/>
<feColorMatrix in="SourceAlpha" type="matrix" values="0 0 0 0 0 0 0 0 0 0 0 0 0 0 0 0 0 0 127 0" result="hardAlpha"/>
<feOffset dy="39.7916"/>
<feGaussianBlur stdDeviation="19.8958"/>
<feColorMatrix type="matrix" values="0 0 0 0 0.196078 0 0 0 0 0.772549 0 0 0 0 1 0 0 0 0.1 0"/>
<feBlend mode="normal" in2="BackgroundImageFix" result="effect1_dropShadow"/>
<feBlend mode="normal" in="SourceGraphic" in2="effect1_dropShadow" result="shape"/>
</filter>
<linearGradient id="paint0_linear" x1="1424.97" y1="871.92" x2="2150.56" y2="664.961" gradientUnits="userSpaceOnUse">
<stop stop-color="#2C608F" stop-opacity="0.42"/>
<stop offset="1" stop-color="white" stop-opacity="0"/>
</linearGradient>
<clipPath id="clip0">
<rect width="2916" height="1458" fill="white"/>
</clipPath>
<clipPath id="clip1">
<rect width="20.76" height="33.7349" fill="white" transform="matrix(-0.938191 0.346117 -0.707107 -0.707107 2109.03 403.287)"/>
</clipPath>
<clipPath id="clip2">
<rect width="20.76" height="33.7349" fill="white" transform="matrix(0.938191 -0.346117 -0.707107 -0.707107 1695.14 555.975)"/>
</clipPath>
</defs>
</svg>
