<svg width="802" height="519" viewBox="0 0 802 519" fill="none" xmlns="http://www.w3.org/2000/svg">
<rect x="14.5" y="224.5" width="299" height="59" rx="11.5" fill="white" stroke="#E5EFFB"/>
<rect x="455" y="139" width="347" height="53" rx="12" fill="#A6DFF1" fill-opacity="0.19"/>
<rect x="14.5" y="295.5" width="299" height="59" rx="11.5" fill="white" stroke="#E5EFFB"/>
<rect x="14.5" y="373.5" width="299" height="59" rx="11.5" fill="white" stroke="#E5EFFB"/>
<rect x="14.5" y="447.5" width="299" height="59" rx="11.5" fill="white" stroke="#E5EFFB"/>
<path d="M85.033 314.354C85.0332 314.354 85.0321 314.356 85.0294 314.36C85.0315 314.356 85.0328 314.354 85.033 314.354ZM84.046 314.062C84.4451 314.227 84.7118 314.378 84.8752 314.5C84.7118 314.622 84.4451 314.773 84.046 314.938C83.133 315.316 81.7513 315.678 79.9698 315.99C76.4229 316.611 71.4834 317 66 317C60.5166 317 55.5771 316.611 52.0302 315.99C50.2487 315.678 48.867 315.316 47.954 314.938C47.5549 314.773 47.2882 314.622 47.1248 314.5C47.2882 314.378 47.5549 314.227 47.954 314.062C48.867 313.684 50.2487 313.322 52.0302 313.01C55.5771 312.389 60.5166 312 66 312C71.4834 312 76.4229 312.389 79.9698 313.01C81.7513 313.322 83.133 313.684 84.046 314.062ZM46.967 314.354C46.9671 314.354 46.9685 314.356 46.9706 314.36C46.9679 314.356 46.9668 314.354 46.967 314.354ZM46.967 314.646C46.9668 314.646 46.9679 314.644 46.9706 314.64C46.9685 314.644 46.9671 314.646 46.967 314.646ZM85.0294 314.64C85.0321 314.644 85.0332 314.646 85.033 314.646C85.0329 314.646 85.0315 314.644 85.0294 314.64Z" stroke="#80D2EB" stroke-width="2"/>
<path d="M47 322C47 322 48.9 325 66 325C83.1 325 85 322 85 322" stroke="#80D2EB" stroke-width="2" stroke-linecap="round"/>
<line x1="47" y1="322" x2="47" y2="315" stroke="#80D2EB" stroke-width="2" stroke-linecap="round"/>
<line x1="85" y1="322" x2="85" y2="315" stroke="#80D2EB" stroke-width="2" stroke-linecap="round"/>
<path d="M47 329C47 329 48.9 332 66 332C83.1 332 85 329 85 329" stroke="#80D2EB" stroke-width="2" stroke-linecap="round"/>
<line x1="47" y1="329" x2="47" y2="322" stroke="#80D2EB" stroke-width="2" stroke-linecap="round"/>
<line x1="85" y1="329" x2="85" y2="322" stroke="#80D2EB" stroke-width="2" stroke-linecap="round"/>
<path d="M47 336C47 336 48.9 339 66 339C83.1 339 85 336 85 336" stroke="#80D2EB" stroke-width="2" stroke-linecap="round"/>
<line x1="47" y1="336" x2="47" y2="329" stroke="#80D2EB" stroke-width="2" stroke-linecap="round"/>
<line x1="85" y1="336" x2="85" y2="329" stroke="#80D2EB" stroke-width="2" stroke-linecap="round"/>
<path d="M85.033 390.354C85.0332 390.354 85.0321 390.356 85.0294 390.36C85.0315 390.356 85.0328 390.354 85.033 390.354ZM84.046 390.062C84.4451 390.227 84.7118 390.378 84.8752 390.5C84.7118 390.622 84.4451 390.773 84.046 390.938C83.133 391.316 81.7513 391.678 79.9698 391.99C76.4229 392.611 71.4834 393 66 393C60.5166 393 55.5771 392.611 52.0302 391.99C50.2487 391.678 48.867 391.316 47.954 390.938C47.5549 390.773 47.2882 390.622 47.1248 390.5C47.2882 390.378 47.5549 390.227 47.954 390.062C48.867 389.684 50.2487 389.322 52.0302 389.01C55.5771 388.389 60.5166 388 66 388C71.4834 388 76.4229 388.389 79.9698 389.01C81.7513 389.322 83.133 389.684 84.046 390.062ZM46.967 390.354C46.9671 390.354 46.9685 390.356 46.9706 390.36C46.9679 390.356 46.9668 390.354 46.967 390.354ZM46.967 390.646C46.9668 390.646 46.9679 390.644 46.9706 390.64C46.9685 390.644 46.9671 390.646 46.967 390.646ZM85.0294 390.64C85.0321 390.644 85.0332 390.646 85.033 390.646C85.0329 390.646 85.0315 390.644 85.0294 390.64Z" stroke="#80D2EB" stroke-width="2"/>
<path d="M47 398C47 398 48.9 401 66 401C83.1 401 85 398 85 398" stroke="#80D2EB" stroke-width="2" stroke-linecap="round"/>
<line x1="47" y1="398" x2="47" y2="391" stroke="#80D2EB" stroke-width="2" stroke-linecap="round"/>
<line x1="85" y1="398" x2="85" y2="391" stroke="#80D2EB" stroke-width="2" stroke-linecap="round"/>
<path d="M47 405C47 405 48.9 408 66 408C83.1 408 85 405 85 405" stroke="#80D2EB" stroke-width="2" stroke-linecap="round"/>
<line x1="47" y1="405" x2="47" y2="398" stroke="#80D2EB" stroke-width="2" stroke-linecap="round"/>
<line x1="85" y1="405" x2="85" y2="398" stroke="#80D2EB" stroke-width="2" stroke-linecap="round"/>
<path d="M47 412C47 412 48.9 415 66 415C83.1 415 85 412 85 412" stroke="#80D2EB" stroke-width="2" stroke-linecap="round"/>
<line x1="47" y1="412" x2="47" y2="405" stroke="#80D2EB" stroke-width="2" stroke-linecap="round"/>
<line x1="85" y1="412" x2="85" y2="405" stroke="#80D2EB" stroke-width="2" stroke-linecap="round"/>
<path d="M87.033 465.354C87.0332 465.354 87.0321 465.356 87.0294 465.36C87.0315 465.356 87.0328 465.354 87.033 465.354ZM86.046 465.062C86.4451 465.227 86.7118 465.378 86.8752 465.5C86.7118 465.622 86.4451 465.773 86.046 465.938C85.133 466.316 83.7513 466.678 81.9698 466.99C78.4229 467.611 73.4834 468 68 468C62.5166 468 57.5771 467.611 54.0302 466.99C52.2487 466.678 50.867 466.316 49.954 465.938C49.5549 465.773 49.2882 465.622 49.1248 465.5C49.2882 465.378 49.5549 465.227 49.954 465.062C50.867 464.684 52.2487 464.322 54.0302 464.01C57.5771 463.389 62.5166 463 68 463C73.4834 463 78.4229 463.389 81.9698 464.01C83.7513 464.322 85.133 464.684 86.046 465.062ZM48.967 465.354C48.9671 465.354 48.9685 465.356 48.9706 465.36C48.9679 465.356 48.9668 465.354 48.967 465.354ZM48.967 465.646C48.9668 465.646 48.9679 465.644 48.9706 465.64C48.9685 465.644 48.9671 465.646 48.967 465.646ZM87.0294 465.64C87.0321 465.644 87.0332 465.646 87.033 465.646C87.0329 465.646 87.0315 465.644 87.0294 465.64Z" stroke="#80D2EB" stroke-width="2"/>
<path d="M49 473C49 473 50.9 476 68 476C85.1 476 87 473 87 473" stroke="#80D2EB" stroke-width="2" stroke-linecap="round"/>
<line x1="49" y1="473" x2="49" y2="466" stroke="#80D2EB" stroke-width="2" stroke-linecap="round"/>
<line x1="87" y1="473" x2="87" y2="466" stroke="#80D2EB" stroke-width="2" stroke-linecap="round"/>
<path d="M49 480C49 480 50.9 483 68 483C85.1 483 87 480 87 480" stroke="#80D2EB" stroke-width="2" stroke-linecap="round"/>
<line x1="49" y1="480" x2="49" y2="473" stroke="#80D2EB" stroke-width="2" stroke-linecap="round"/>
<line x1="87" y1="480" x2="87" y2="473" stroke="#80D2EB" stroke-width="2" stroke-linecap="round"/>
<path d="M49 487C49 487 50.9 490 68 490C85.1 490 87 487 87 487" stroke="#80D2EB" stroke-width="2" stroke-linecap="round"/>
<line x1="49" y1="487" x2="49" y2="480" stroke="#80D2EB" stroke-width="2" stroke-linecap="round"/>
<line x1="87" y1="487" x2="87" y2="480" stroke="#80D2EB" stroke-width="2" stroke-linecap="round"/>
<path d="M181.45 60.475C181.45 60.9083 181.308 61.275 181.025 61.575C180.742 61.8583 180.383 62 179.95 62C179.517 62 179.158 61.8583 178.875 61.575C178.592 61.275 178.45 60.9083 178.45 60.475V50.15C178.45 49.7167 178.592 49.3583 178.875 49.075C179.158 48.775 179.517 48.625 179.95 48.625C180.383 48.625 180.742 48.775 181.025 49.075C181.308 49.3583 181.45 49.7167 181.45 50.15V60.475ZM179.925 47C179.358 47 178.958 46.9083 178.725 46.725C178.492 46.5417 178.375 46.2167 178.375 45.75V45.275C178.375 44.8083 178.5 44.4833 178.75 44.3C179 44.1167 179.4 44.025 179.95 44.025C180.533 44.025 180.942 44.1167 181.175 44.3C181.408 44.4833 181.525 44.8083 181.525 45.275V45.75C181.525 46.2333 181.4 46.5667 181.15 46.75C180.917 46.9167 180.508 47 179.925 47ZM190.408 62.25C189.208 62.25 188.142 62.1 187.208 61.8C186.275 61.5 185.4 60.9917 184.583 60.275C184.133 59.875 183.908 59.4333 183.908 58.95C183.908 58.5667 184.05 58.2333 184.333 57.95C184.617 57.65 184.958 57.5 185.358 57.5C185.675 57.5 185.958 57.6 186.208 57.8C186.875 58.35 187.525 58.75 188.158 59C188.792 59.25 189.542 59.375 190.408 59.375C191.342 59.375 192.142 59.1667 192.808 58.75C193.492 58.3333 193.833 57.8167 193.833 57.2C193.833 56.45 193.5 55.8667 192.833 55.45C192.167 55.0167 191.108 54.6917 189.658 54.475C186.008 53.9417 184.183 52.2417 184.183 49.375C184.183 48.325 184.458 47.4167 185.008 46.65C185.558 45.8667 186.308 45.275 187.258 44.875C188.208 44.4583 189.267 44.25 190.433 44.25C191.483 44.25 192.467 44.4083 193.383 44.725C194.317 45.0417 195.092 45.4583 195.708 45.975C196.192 46.3583 196.433 46.8 196.433 47.3C196.433 47.6833 196.292 48.025 196.008 48.325C195.725 48.6083 195.392 48.75 195.008 48.75C194.758 48.75 194.533 48.675 194.333 48.525C193.9 48.175 193.292 47.8583 192.508 47.575C191.742 47.275 191.05 47.125 190.433 47.125C189.383 47.125 188.567 47.325 187.983 47.725C187.417 48.1083 187.133 48.6167 187.133 49.25C187.133 49.9667 187.425 50.5083 188.008 50.875C188.608 51.2417 189.542 51.5417 190.808 51.775C192.242 52.025 193.383 52.35 194.233 52.75C195.1 53.1333 195.75 53.6667 196.183 54.35C196.617 55.0167 196.833 55.9083 196.833 57.025C196.833 58.075 196.533 59 195.933 59.8C195.35 60.5833 194.567 61.1917 193.583 61.625C192.6 62.0417 191.542 62.25 190.408 62.25ZM213.425 60.05C213.509 60.2667 213.55 60.4667 213.55 60.65C213.55 61.0833 213.409 61.4417 213.125 61.725C212.842 61.9917 212.517 62.125 212.15 62.125C211.85 62.125 211.575 62.0333 211.325 61.85C211.092 61.6667 210.909 61.4167 210.775 61.1L209.475 58.075H202.025L200.725 61.125C200.609 61.4417 200.425 61.6917 200.175 61.875C199.942 62.0417 199.684 62.125 199.4 62.125C198.967 62.125 198.634 62.0083 198.4 61.775C198.184 61.5417 198.075 61.225 198.075 60.825C198.075 60.675 198.1 60.5167 198.15 60.35L204.375 45.4C204.509 45.0667 204.709 44.8083 204.975 44.625C205.242 44.4417 205.542 44.3667 205.875 44.4C206.175 44.4 206.45 44.4917 206.7 44.675C206.967 44.8417 207.159 45.0833 207.275 45.4L213.425 60.05ZM208.25 55.2L205.725 49.35L203.25 55.2H208.25ZM228.445 52.55C228.878 52.55 229.237 52.7 229.52 53C229.803 53.2833 229.945 53.6417 229.945 54.075V59.375C229.945 59.9583 229.687 60.4083 229.17 60.725C227.537 61.7417 225.745 62.25 223.795 62.25C222.145 62.25 220.62 61.85 219.22 61.05C217.82 60.2333 216.712 59.1417 215.895 57.775C215.078 56.3917 214.67 54.8833 214.67 53.25C214.67 51.6167 215.078 50.1167 215.895 48.75C216.712 47.3667 217.82 46.275 219.22 45.475C220.62 44.6583 222.145 44.25 223.795 44.25C225.445 44.25 226.878 44.5833 228.095 45.25C228.345 45.3833 228.528 45.5583 228.645 45.775C228.778 45.9917 228.845 46.225 228.845 46.475C228.845 46.8917 228.703 47.2583 228.42 47.575C228.153 47.875 227.82 48.025 227.42 48.025C227.17 48.025 226.895 47.9583 226.595 47.825C225.695 47.4417 224.762 47.25 223.795 47.25C222.728 47.25 221.745 47.525 220.845 48.075C219.945 48.6083 219.228 49.3333 218.695 50.25C218.178 51.1667 217.92 52.1667 217.92 53.25C217.92 54.3333 218.178 55.3333 218.695 56.25C219.228 57.1667 219.945 57.9 220.845 58.45C221.745 58.9833 222.728 59.25 223.795 59.25C224.262 59.25 224.762 59.2083 225.295 59.125C225.828 59.0417 226.295 58.9333 226.695 58.8V55.55H224.345C223.912 55.55 223.545 55.4083 223.245 55.125C222.962 54.8417 222.82 54.4833 222.82 54.05C222.82 53.6167 222.962 53.2583 223.245 52.975C223.545 52.6917 223.912 52.55 224.345 52.55H228.445ZM236.077 60.475C236.077 60.9083 235.919 61.275 235.602 61.575C235.285 61.8583 234.919 62 234.502 62C234.052 62 233.677 61.8583 233.377 61.575C233.094 61.275 232.952 60.9083 232.952 60.475V46.025C232.952 45.5917 233.102 45.2333 233.402 44.95C233.702 44.65 234.085 44.5 234.552 44.5C234.969 44.5 235.327 44.65 235.627 44.95C235.927 45.2333 236.077 45.5917 236.077 46.025V60.475Z" fill="#53738E"/>
<path d="M200.065 87.975C202.165 87.975 203.705 88.6283 204.685 89.935C205.688 91.2183 206.19 92.9217 206.19 95.045V104.95C206.19 105.253 206.085 105.51 205.875 105.72C205.688 105.907 205.443 106 205.14 106C204.837 106 204.58 105.907 204.37 105.72C204.183 105.51 204.09 105.253 204.09 104.95V95.15C204.09 93.61 203.717 92.3617 202.97 91.405C202.247 90.425 201.115 89.935 199.575 89.935C198.595 89.935 197.662 90.1683 196.775 90.635C195.912 91.1017 195.212 91.7433 194.675 92.56C194.138 93.3533 193.87 94.2167 193.87 95.15V104.95C193.87 105.253 193.765 105.51 193.555 105.72C193.368 105.907 193.123 106 192.82 106C192.517 106 192.26 105.907 192.05 105.72C191.863 105.51 191.77 105.253 191.77 104.95V95.045C191.77 93.5283 191.42 92.3033 190.72 91.37C190.02 90.4133 188.923 89.935 187.43 89.935C186.473 89.935 185.563 90.1683 184.7 90.635C183.86 91.1017 183.172 91.7317 182.635 92.525C182.122 93.295 181.865 94.135 181.865 95.045V104.95C181.865 105.253 181.76 105.51 181.55 105.72C181.363 105.907 181.118 106 180.815 106C180.512 106 180.255 105.907 180.045 105.72C179.858 105.51 179.765 105.253 179.765 104.95V89.27C179.765 88.9667 179.858 88.7217 180.045 88.535C180.255 88.325 180.512 88.22 180.815 88.22C181.118 88.22 181.363 88.325 181.55 88.535C181.76 88.7217 181.865 88.9667 181.865 89.27V91.3C182.495 90.3433 183.347 89.55 184.42 88.92C185.493 88.29 186.625 87.975 187.815 87.975C189.168 87.975 190.335 88.3017 191.315 88.955C192.295 89.6083 192.995 90.565 193.415 91.825C193.905 90.7983 194.803 89.9 196.11 89.13C197.417 88.36 198.735 87.975 200.065 87.975ZM213.719 104.95C213.719 105.253 213.614 105.51 213.404 105.72C213.217 105.907 212.972 106 212.669 106C212.365 106 212.109 105.907 211.899 105.72C211.712 105.51 211.619 105.253 211.619 104.95V88.85C211.619 88.5467 211.712 88.3017 211.899 88.115C212.109 87.905 212.365 87.8 212.669 87.8C212.972 87.8 213.217 87.905 213.404 88.115C213.614 88.3017 213.719 88.5467 213.719 88.85V104.95ZM212.669 85.455C212.202 85.455 211.84 85.35 211.584 85.14C211.327 84.9067 211.199 84.58 211.199 84.16V83.81C211.199 83.39 211.327 83.075 211.584 82.865C211.864 82.6317 212.237 82.515 212.704 82.515C213.637 82.515 214.104 82.9467 214.104 83.81V84.16C214.104 84.58 213.975 84.9067 213.719 85.14C213.485 85.35 213.135 85.455 212.669 85.455ZM233.699 80.1C234.003 80.1 234.248 80.205 234.434 80.415C234.644 80.6017 234.749 80.8467 234.749 81.15V104.95C234.749 105.253 234.644 105.51 234.434 105.72C234.248 105.907 234.003 106 233.699 106C233.396 106 233.139 105.907 232.929 105.72C232.743 105.51 232.649 105.253 232.649 104.95V102.5C232.066 103.573 231.191 104.483 230.024 105.23C228.881 105.977 227.609 106.35 226.209 106.35C224.669 106.35 223.269 105.953 222.009 105.16C220.773 104.343 219.793 103.223 219.069 101.8C218.346 100.377 217.984 98.7783 217.984 97.005C217.984 95.255 218.346 93.6683 219.069 92.245C219.793 90.8217 220.773 89.7133 222.009 88.92C223.269 88.1033 224.658 87.695 226.174 87.695C227.551 87.695 228.823 88.045 229.989 88.745C231.156 89.4217 232.043 90.3083 232.649 91.405V81.15C232.649 80.8467 232.743 80.6017 232.929 80.415C233.139 80.205 233.396 80.1 233.699 80.1ZM226.419 104.39C227.633 104.39 228.718 104.075 229.674 103.445C230.654 102.815 231.413 101.94 231.949 100.82C232.509 99.6767 232.789 98.405 232.789 97.005C232.789 95.6283 232.509 94.38 231.949 93.26C231.413 92.14 230.654 91.265 229.674 90.635C228.718 89.9817 227.633 89.655 226.419 89.655C225.206 89.655 224.109 89.9817 223.129 90.635C222.173 91.265 221.414 92.14 220.854 93.26C220.318 94.38 220.049 95.6283 220.049 97.005C220.049 98.405 220.318 99.665 220.854 100.785C221.414 101.905 222.173 102.792 223.129 103.445C224.109 104.075 225.206 104.39 226.419 104.39ZM254.754 80.1C255.057 80.1 255.302 80.205 255.489 80.415C255.699 80.6017 255.804 80.8467 255.804 81.15V104.95C255.804 105.253 255.699 105.51 255.489 105.72C255.302 105.907 255.057 106 254.754 106C254.451 106 254.194 105.907 253.984 105.72C253.797 105.51 253.704 105.253 253.704 104.95V102.5C253.121 103.573 252.246 104.483 251.079 105.23C249.936 105.977 248.664 106.35 247.264 106.35C245.724 106.35 244.324 105.953 243.064 105.16C241.827 104.343 240.847 103.223 240.124 101.8C239.401 100.377 239.039 98.7783 239.039 97.005C239.039 95.255 239.401 93.6683 240.124 92.245C240.847 90.8217 241.827 89.7133 243.064 88.92C244.324 88.1033 245.712 87.695 247.229 87.695C248.606 87.695 249.877 88.045 251.044 88.745C252.211 89.4217 253.097 90.3083 253.704 91.405V81.15C253.704 80.8467 253.797 80.6017 253.984 80.415C254.194 80.205 254.451 80.1 254.754 80.1ZM247.474 104.39C248.687 104.39 249.772 104.075 250.729 103.445C251.709 102.815 252.467 101.94 253.004 100.82C253.564 99.6767 253.844 98.405 253.844 97.005C253.844 95.6283 253.564 94.38 253.004 93.26C252.467 92.14 251.709 91.265 250.729 90.635C249.772 89.9817 248.687 89.655 247.474 89.655C246.261 89.655 245.164 89.9817 244.184 90.635C243.227 91.265 242.469 92.14 241.909 93.26C241.372 94.38 241.104 95.6283 241.104 97.005C241.104 98.405 241.372 99.665 241.909 100.785C242.469 101.905 243.227 102.792 244.184 103.445C245.164 104.075 246.261 104.39 247.474 104.39ZM263.594 104.95C263.594 105.253 263.489 105.51 263.279 105.72C263.092 105.907 262.847 106 262.544 106C262.24 106 261.984 105.907 261.774 105.72C261.587 105.51 261.494 105.253 261.494 104.95V81.15C261.494 80.8467 261.587 80.6017 261.774 80.415C261.984 80.205 262.24 80.1 262.544 80.1C262.847 80.1 263.092 80.205 263.279 80.415C263.489 80.6017 263.594 80.8467 263.594 81.15V104.95ZM284.128 96.025C284.128 96.305 284.023 96.55 283.813 96.76C283.603 96.9467 283.358 97.04 283.078 97.04H269.848C269.848 98.44 270.128 99.7 270.688 100.82C271.271 101.917 272.088 102.792 273.138 103.445C274.211 104.075 275.471 104.39 276.918 104.39C278.038 104.39 279.041 104.157 279.928 103.69C280.815 103.223 281.526 102.628 282.063 101.905C282.32 101.695 282.565 101.59 282.798 101.59C283.031 101.59 283.241 101.683 283.428 101.87C283.615 102.057 283.708 102.267 283.708 102.5C283.708 102.757 283.591 103.002 283.358 103.235C282.611 104.145 281.666 104.892 280.523 105.475C279.403 106.058 278.213 106.35 276.953 106.35C275.156 106.35 273.57 105.965 272.193 105.195C270.816 104.425 269.743 103.352 268.973 101.975C268.203 100.575 267.818 98.965 267.818 97.145C267.818 95.2317 268.191 93.5633 268.938 92.14C269.708 90.6933 270.723 89.5967 271.983 88.85C273.243 88.08 274.585 87.695 276.008 87.695C277.408 87.695 278.715 88.0217 279.928 88.675C281.165 89.3283 282.168 90.285 282.938 91.545C283.708 92.805 284.105 94.2983 284.128 96.025ZM276.008 89.725C274.655 89.725 273.395 90.1917 272.228 91.125C271.085 92.0583 270.35 93.4 270.023 95.15H281.958V94.87C281.841 93.82 281.491 92.91 280.908 92.14C280.325 91.3467 279.59 90.7517 278.703 90.355C277.84 89.935 276.941 89.725 276.008 89.725ZM309.701 87.73C310.005 87.73 310.25 87.8233 310.436 88.01C310.646 88.1967 310.751 88.4533 310.751 88.78C310.751 88.8033 310.716 88.955 310.646 89.235L305.256 105.335C305.14 105.545 304.988 105.72 304.801 105.86C304.615 105.977 304.416 106.023 304.206 106C303.996 106 303.81 105.942 303.646 105.825C303.483 105.708 303.355 105.545 303.261 105.335L298.676 94.555L294.581 105.335C294.488 105.522 294.348 105.685 294.161 105.825C293.998 105.942 293.823 106 293.636 106C293.403 106.023 293.181 105.977 292.971 105.86C292.785 105.72 292.656 105.545 292.586 105.335L287.056 89.235C286.986 89.095 286.951 88.9433 286.951 88.78C286.951 88.4767 287.056 88.2317 287.266 88.045C287.476 87.835 287.733 87.73 288.036 87.73C288.246 87.73 288.433 87.8 288.596 87.94C288.783 88.0567 288.911 88.22 288.981 88.43L293.636 102.395L297.801 91.93C297.965 91.4867 298.291 91.265 298.781 91.265C299.248 91.265 299.575 91.4867 299.761 91.93L304.136 102.325L308.721 88.43C308.861 87.9633 309.188 87.73 309.701 87.73ZM329.436 88.115C329.74 88.115 329.985 88.22 330.171 88.43C330.381 88.64 330.486 88.8967 330.486 89.2V104.95C330.486 105.253 330.381 105.51 330.171 105.72C329.985 105.907 329.74 106 329.436 106C329.133 106 328.876 105.907 328.666 105.72C328.48 105.51 328.386 105.253 328.386 104.95V102.605C327.803 103.655 326.928 104.542 325.761 105.265C324.595 105.988 323.323 106.35 321.946 106.35C320.383 106.35 318.971 105.942 317.711 105.125C316.475 104.308 315.495 103.188 314.771 101.765C314.071 100.342 313.721 98.7433 313.721 96.97C313.721 95.1967 314.083 93.61 314.806 92.21C315.53 90.7867 316.51 89.6783 317.746 88.885C319.006 88.0917 320.395 87.695 321.911 87.695C323.311 87.695 324.595 88.0333 325.761 88.71C326.928 89.3867 327.803 90.2733 328.386 91.37V89.2C328.386 88.8967 328.48 88.64 328.666 88.43C328.876 88.22 329.133 88.115 329.436 88.115ZM322.156 104.39C323.37 104.39 324.455 104.075 325.411 103.445C326.391 102.792 327.15 101.905 327.686 100.785C328.246 99.6417 328.526 98.37 328.526 96.97C328.526 95.6167 328.246 94.38 327.686 93.26C327.15 92.14 326.391 91.265 325.411 90.635C324.455 89.9817 323.37 89.655 322.156 89.655C320.943 89.655 319.846 89.97 318.866 90.6C317.91 91.23 317.151 92.105 316.591 93.225C316.055 94.3217 315.786 95.57 315.786 96.97C315.786 98.37 316.055 99.6417 316.591 100.785C317.128 101.905 317.875 102.792 318.831 103.445C319.811 104.075 320.92 104.39 322.156 104.39ZM344.331 87.695C344.798 87.695 345.218 87.7883 345.591 87.975C345.965 88.1617 346.151 88.4417 346.151 88.815C346.151 89.1417 346.058 89.41 345.871 89.62C345.685 89.8067 345.463 89.9 345.206 89.9C345.09 89.9 344.856 89.8417 344.506 89.725C344.18 89.6083 343.865 89.55 343.561 89.55C342.698 89.55 341.835 89.8883 340.971 90.565C340.131 91.2183 339.431 92.07 338.871 93.12C338.335 94.17 338.066 95.2317 338.066 96.305V104.95C338.066 105.253 337.961 105.51 337.751 105.72C337.565 105.907 337.32 106 337.016 106C336.713 106 336.456 105.907 336.246 105.72C336.06 105.51 335.966 105.253 335.966 104.95V89.27C335.966 88.9667 336.06 88.7217 336.246 88.535C336.456 88.325 336.713 88.22 337.016 88.22C337.32 88.22 337.565 88.325 337.751 88.535C337.961 88.7217 338.066 88.9667 338.066 89.27V92.35C338.603 91.02 339.408 89.9233 340.481 89.06C341.578 88.1733 342.861 87.7183 344.331 87.695ZM363.767 96.025C363.767 96.305 363.662 96.55 363.452 96.76C363.242 96.9467 362.997 97.04 362.717 97.04H349.487C349.487 98.44 349.767 99.7 350.327 100.82C350.91 101.917 351.727 102.792 352.777 103.445C353.85 104.075 355.11 104.39 356.557 104.39C357.677 104.39 358.68 104.157 359.567 103.69C360.454 103.223 361.165 102.628 361.702 101.905C361.959 101.695 362.204 101.59 362.437 101.59C362.67 101.59 362.88 101.683 363.067 101.87C363.254 102.057 363.347 102.267 363.347 102.5C363.347 102.757 363.23 103.002 362.997 103.235C362.25 104.145 361.305 104.892 360.162 105.475C359.042 106.058 357.852 106.35 356.592 106.35C354.795 106.35 353.209 105.965 351.832 105.195C350.455 104.425 349.382 103.352 348.612 101.975C347.842 100.575 347.457 98.965 347.457 97.145C347.457 95.2317 347.83 93.5633 348.577 92.14C349.347 90.6933 350.362 89.5967 351.622 88.85C352.882 88.08 354.224 87.695 355.647 87.695C357.047 87.695 358.354 88.0217 359.567 88.675C360.804 89.3283 361.807 90.285 362.577 91.545C363.347 92.805 363.744 94.2983 363.767 96.025ZM355.647 89.725C354.294 89.725 353.034 90.1917 351.867 91.125C350.724 92.0583 349.989 93.4 349.662 95.15H361.597V94.87C361.48 93.82 361.13 92.91 360.547 92.14C359.964 91.3467 359.229 90.7517 358.342 90.355C357.479 89.935 356.58 89.725 355.647 89.725Z" fill="#53738E"/>
<path d="M508.157 155.176C508.557 155.176 508.901 155.32 509.189 155.608C509.493 155.88 509.645 156.224 509.645 156.64V170.536C509.645 170.952 509.509 171.304 509.237 171.592C508.965 171.864 508.605 172 508.157 172C507.709 172 507.341 171.864 507.053 171.592C506.781 171.32 506.645 170.968 506.645 170.536V160.864L502.685 166.912C502.525 167.104 502.341 167.264 502.133 167.392C501.925 167.504 501.709 167.552 501.485 167.536C501.277 167.552 501.069 167.504 500.861 167.392C500.653 167.264 500.469 167.104 500.309 166.912L496.349 160.648V170.536C496.349 170.968 496.221 171.32 495.965 171.592C495.709 171.864 495.373 172 494.957 172C494.557 172 494.229 171.864 493.973 171.592C493.717 171.304 493.589 170.952 493.589 170.536V156.64C493.589 156.24 493.733 155.896 494.021 155.608C494.325 155.32 494.685 155.176 495.101 155.176C495.341 155.176 495.581 155.24 495.821 155.368C496.061 155.48 496.245 155.632 496.373 155.824L501.605 163.864L506.981 155.824C507.109 155.632 507.277 155.48 507.485 155.368C507.709 155.24 507.933 155.176 508.157 155.176ZM525.349 165.592C525.349 166.872 525.061 168.024 524.485 169.048C523.909 170.056 523.117 170.84 522.109 171.4C521.117 171.96 520.021 172.24 518.821 172.24C517.605 172.24 516.501 171.96 515.509 171.4C514.517 170.84 513.733 170.056 513.157 169.048C512.581 168.024 512.293 166.872 512.293 165.592C512.293 164.312 512.581 163.168 513.157 162.16C513.733 161.136 514.517 160.344 515.509 159.784C516.501 159.208 517.605 158.92 518.821 158.92C520.021 158.92 521.117 159.208 522.109 159.784C523.117 160.344 523.909 161.136 524.485 162.16C525.061 163.168 525.349 164.312 525.349 165.592ZM522.469 165.592C522.469 164.808 522.301 164.112 521.965 163.504C521.645 162.88 521.205 162.4 520.645 162.064C520.101 161.728 519.493 161.56 518.821 161.56C518.149 161.56 517.533 161.728 516.973 162.064C516.429 162.4 515.989 162.88 515.653 163.504C515.333 164.112 515.173 164.808 515.173 165.592C515.173 166.376 515.333 167.072 515.653 167.68C515.989 168.288 516.429 168.76 516.973 169.096C517.533 169.432 518.149 169.6 518.821 169.6C519.493 169.6 520.101 169.432 520.645 169.096C521.205 168.76 521.645 168.288 521.965 167.68C522.301 167.072 522.469 166.376 522.469 165.592ZM538.147 154.24C538.563 154.24 538.907 154.376 539.179 154.648C539.451 154.92 539.587 155.272 539.587 155.704V170.536C539.587 170.952 539.451 171.304 539.179 171.592C538.907 171.864 538.563 172 538.147 172C537.731 172 537.387 171.864 537.115 171.592C536.859 171.32 536.723 170.976 536.707 170.56C536.307 171.024 535.763 171.424 535.075 171.76C534.403 172.08 533.691 172.24 532.939 172.24C531.835 172.24 530.835 171.96 529.939 171.4C529.043 170.824 528.331 170.032 527.803 169.024C527.291 168.016 527.035 166.872 527.035 165.592C527.035 164.312 527.291 163.168 527.803 162.16C528.315 161.136 529.011 160.344 529.891 159.784C530.787 159.208 531.771 158.92 532.843 158.92C533.611 158.92 534.331 159.064 535.003 159.352C535.675 159.624 536.243 159.976 536.707 160.408V155.704C536.707 155.288 536.843 154.944 537.115 154.672C537.387 154.384 537.731 154.24 538.147 154.24ZM533.299 169.6C534.339 169.6 535.187 169.224 535.843 168.472C536.499 167.704 536.827 166.744 536.827 165.592C536.827 164.44 536.499 163.48 535.843 162.712C535.187 161.944 534.339 161.56 533.299 161.56C532.275 161.56 531.435 161.944 530.779 162.712C530.123 163.48 529.795 164.44 529.795 165.592C529.795 166.744 530.115 167.704 530.755 168.472C531.411 169.224 532.259 169.6 533.299 169.6ZM554.228 165.28C554.212 165.664 554.06 165.976 553.772 166.216C553.484 166.456 553.148 166.576 552.764 166.576H544.844C545.036 167.52 545.476 168.264 546.164 168.808C546.852 169.336 547.628 169.6 548.492 169.6C549.148 169.6 549.66 169.544 550.028 169.432C550.396 169.304 550.684 169.176 550.892 169.048C551.116 168.904 551.268 168.808 551.348 168.76C551.636 168.616 551.908 168.544 552.164 168.544C552.5 168.544 552.788 168.664 553.028 168.904C553.268 169.144 553.388 169.424 553.388 169.744C553.388 170.176 553.164 170.568 552.716 170.92C552.268 171.288 551.668 171.6 550.916 171.856C550.164 172.112 549.404 172.24 548.636 172.24C547.292 172.24 546.116 171.96 545.108 171.4C544.116 170.84 543.348 170.072 542.804 169.096C542.26 168.104 541.988 166.992 541.988 165.76C541.988 164.384 542.276 163.176 542.852 162.136C543.428 161.096 544.188 160.304 545.132 159.76C546.076 159.2 547.084 158.92 548.156 158.92C549.212 158.92 550.204 159.208 551.132 159.784C552.076 160.36 552.828 161.136 553.388 162.112C553.948 163.088 554.228 164.144 554.228 165.28ZM548.156 161.56C546.3 161.56 545.204 162.432 544.868 164.176H551.156V164.008C551.092 163.336 550.764 162.76 550.172 162.28C549.58 161.8 548.908 161.56 548.156 161.56ZM559.75 170.536C559.75 170.952 559.606 171.304 559.318 171.592C559.046 171.864 558.702 172 558.286 172C557.886 172 557.55 171.864 557.278 171.592C557.006 171.304 556.87 170.952 556.87 170.536V155.704C556.87 155.288 557.006 154.944 557.278 154.672C557.566 154.384 557.918 154.24 558.334 154.24C558.734 154.24 559.07 154.384 559.342 154.672C559.614 154.944 559.75 155.288 559.75 155.704V170.536ZM573.491 158.92C573.907 158.92 574.251 159.056 574.523 159.328C574.795 159.6 574.931 159.952 574.931 160.384V170.536C574.931 170.952 574.795 171.304 574.523 171.592C574.251 171.864 573.907 172 573.491 172C573.075 172 572.731 171.864 572.459 171.592C572.203 171.32 572.067 170.976 572.051 170.56C571.651 171.024 571.107 171.424 570.419 171.76C569.747 172.08 569.035 172.24 568.283 172.24C567.179 172.24 566.179 171.96 565.283 171.4C564.387 170.824 563.675 170.032 563.147 169.024C562.635 168.016 562.379 166.872 562.379 165.592C562.379 164.312 562.635 163.168 563.147 162.16C563.659 161.136 564.355 160.344 565.235 159.784C566.131 159.208 567.115 158.92 568.187 158.92C568.955 158.92 569.675 159.064 570.347 159.352C571.019 159.624 571.587 159.976 572.051 160.408V160.384C572.051 159.968 572.187 159.624 572.459 159.352C572.731 159.064 573.075 158.92 573.491 158.92ZM568.643 169.6C569.683 169.6 570.531 169.224 571.187 168.472C571.843 167.704 572.171 166.744 572.171 165.592C572.171 164.44 571.843 163.48 571.187 162.712C570.531 161.944 569.683 161.56 568.643 161.56C567.619 161.56 566.779 161.944 566.123 162.712C565.467 163.48 565.139 164.44 565.139 165.592C565.139 166.744 565.459 167.704 566.099 168.472C566.755 169.224 567.603 169.6 568.643 169.6ZM592.86 158.92C594.444 158.92 595.54 159.408 596.148 160.384C596.756 161.344 597.06 162.68 597.06 164.392V170.536C597.06 170.952 596.924 171.304 596.652 171.592C596.38 171.864 596.036 172 595.62 172C595.204 172 594.86 171.864 594.588 171.592C594.316 171.304 594.18 170.952 594.18 170.536V164.392C594.18 163.512 594.004 162.824 593.652 162.328C593.316 161.816 592.716 161.56 591.852 161.56C590.956 161.56 590.252 161.832 589.74 162.376C589.244 162.904 588.996 163.576 588.996 164.392V170.536C588.996 170.952 588.86 171.304 588.588 171.592C588.316 171.864 587.972 172 587.556 172C587.14 172 586.796 171.864 586.524 171.592C586.252 171.304 586.116 170.952 586.116 170.536V164.392C586.116 163.512 585.94 162.824 585.588 162.328C585.252 161.816 584.652 161.56 583.788 161.56C582.892 161.56 582.188 161.832 581.676 162.376C581.18 162.904 580.932 163.576 580.932 164.392V170.536C580.932 170.952 580.796 171.304 580.524 171.592C580.252 171.864 579.908 172 579.492 172C579.076 172 578.732 171.864 578.46 171.592C578.188 171.304 578.052 170.952 578.052 170.536V160.624C578.052 160.208 578.188 159.864 578.46 159.592C578.732 159.304 579.076 159.16 579.492 159.16C579.908 159.16 580.252 159.304 580.524 159.592C580.796 159.864 580.932 160.208 580.932 160.624V161.008C581.364 160.432 581.908 159.944 582.564 159.544C583.236 159.128 583.98 158.92 584.796 158.92C586.812 158.92 588.1 159.8 588.66 161.56C589.028 160.888 589.58 160.28 590.316 159.736C591.068 159.192 591.916 158.92 592.86 158.92ZM602.889 170.536C602.889 170.952 602.753 171.304 602.481 171.592C602.209 171.864 601.865 172 601.449 172C601.033 172 600.689 171.864 600.417 171.592C600.145 171.304 600.009 170.952 600.009 170.536V160.624C600.009 160.208 600.145 159.864 600.417 159.592C600.689 159.304 601.033 159.16 601.449 159.16C601.865 159.16 602.209 159.304 602.481 159.592C602.753 159.864 602.889 160.208 602.889 160.624V170.536ZM601.425 157.6C600.881 157.6 600.497 157.512 600.273 157.336C600.049 157.16 599.937 156.848 599.937 156.4V155.944C599.937 155.496 600.057 155.184 600.297 155.008C600.537 154.832 600.921 154.744 601.449 154.744C602.009 154.744 602.401 154.832 602.625 155.008C602.849 155.184 602.961 155.496 602.961 155.944V156.4C602.961 156.864 602.841 157.184 602.601 157.36C602.377 157.52 601.985 157.6 601.425 157.6ZM617.369 165.28C617.353 165.664 617.201 165.976 616.913 166.216C616.625 166.456 616.289 166.576 615.905 166.576H607.985C608.177 167.52 608.617 168.264 609.305 168.808C609.993 169.336 610.769 169.6 611.633 169.6C612.289 169.6 612.801 169.544 613.169 169.432C613.537 169.304 613.825 169.176 614.033 169.048C614.257 168.904 614.409 168.808 614.489 168.76C614.777 168.616 615.049 168.544 615.305 168.544C615.641 168.544 615.929 168.664 616.169 168.904C616.409 169.144 616.529 169.424 616.529 169.744C616.529 170.176 616.305 170.568 615.857 170.92C615.409 171.288 614.809 171.6 614.057 171.856C613.305 172.112 612.545 172.24 611.777 172.24C610.433 172.24 609.257 171.96 608.249 171.4C607.257 170.84 606.489 170.072 605.945 169.096C605.401 168.104 605.129 166.992 605.129 165.76C605.129 164.384 605.417 163.176 605.993 162.136C606.569 161.096 607.329 160.304 608.273 159.76C609.217 159.2 610.225 158.92 611.297 158.92C612.353 158.92 613.345 159.208 614.273 159.784C615.217 160.36 615.969 161.136 616.529 162.112C617.089 163.088 617.369 164.144 617.369 165.28ZM611.297 161.56C609.441 161.56 608.345 162.432 608.009 164.176H614.297V164.008C614.233 163.336 613.905 162.76 613.313 162.28C612.721 161.8 612.049 161.56 611.297 161.56ZM626.635 158.92C628.267 158.92 629.395 159.408 630.019 160.384C630.643 161.344 630.955 162.68 630.955 164.392V170.536C630.955 170.952 630.819 171.304 630.547 171.592C630.275 171.864 629.931 172 629.515 172C629.099 172 628.755 171.864 628.483 171.592C628.211 171.304 628.075 170.952 628.075 170.536V164.392C628.075 163.512 627.891 162.824 627.523 162.328C627.155 161.816 626.523 161.56 625.627 161.56C624.699 161.56 623.971 161.832 623.443 162.376C622.915 162.904 622.651 163.576 622.651 164.392V170.536C622.651 170.952 622.515 171.304 622.243 171.592C621.971 171.864 621.627 172 621.211 172C620.795 172 620.451 171.864 620.179 171.592C619.907 171.304 619.771 170.952 619.771 170.536V160.624C619.771 160.208 619.907 159.864 620.179 159.592C620.451 159.304 620.795 159.16 621.211 159.16C621.627 159.16 621.971 159.304 622.243 159.592C622.515 159.864 622.651 160.208 622.651 160.624V161.032C623.083 160.456 623.643 159.96 624.331 159.544C625.035 159.128 625.803 158.92 626.635 158.92ZM640.26 169.288C640.484 169.288 640.684 169.4 640.86 169.624C641.052 169.832 641.148 170.112 641.148 170.464C641.148 170.896 640.908 171.264 640.428 171.568C639.964 171.856 639.436 172 638.844 172C637.852 172 637.012 171.792 636.324 171.376C635.652 170.944 635.316 170.04 635.316 168.664V162.04H634.212C633.828 162.04 633.508 161.912 633.252 161.656C632.996 161.4 632.868 161.08 632.868 160.696C632.868 160.328 632.996 160.024 633.252 159.784C633.508 159.528 633.828 159.4 634.212 159.4H635.316V157.864C635.316 157.448 635.452 157.104 635.724 156.832C636.012 156.544 636.364 156.4 636.78 156.4C637.18 156.4 637.516 156.544 637.788 156.832C638.06 157.104 638.196 157.448 638.196 157.864V159.4H639.9C640.284 159.4 640.604 159.528 640.86 159.784C641.116 160.04 641.244 160.36 641.244 160.744C641.244 161.112 641.116 161.424 640.86 161.68C640.604 161.92 640.284 162.04 639.9 162.04H638.196V168.544C638.196 168.88 638.284 169.128 638.46 169.288C638.636 169.432 638.876 169.504 639.18 169.504C639.308 169.504 639.484 169.472 639.708 169.408C639.9 169.328 640.084 169.288 640.26 169.288ZM656.107 165.592C656.107 166.872 655.819 168.024 655.243 169.048C654.667 170.056 653.875 170.84 652.867 171.4C651.875 171.96 650.779 172.24 649.579 172.24C648.363 172.24 647.259 171.96 646.267 171.4C645.275 170.84 644.491 170.056 643.915 169.048C643.339 168.024 643.051 166.872 643.051 165.592C643.051 164.312 643.339 163.168 643.915 162.16C644.491 161.136 645.275 160.344 646.267 159.784C647.259 159.208 648.363 158.92 649.579 158.92C650.779 158.92 651.875 159.208 652.867 159.784C653.875 160.344 654.667 161.136 655.243 162.16C655.819 163.168 656.107 164.312 656.107 165.592ZM653.227 165.592C653.227 164.808 653.059 164.112 652.723 163.504C652.403 162.88 651.963 162.4 651.403 162.064C650.859 161.728 650.251 161.56 649.579 161.56C648.907 161.56 648.291 161.728 647.731 162.064C647.187 162.4 646.747 162.88 646.411 163.504C646.091 164.112 645.931 164.808 645.931 165.592C645.931 166.376 646.091 167.072 646.411 167.68C646.747 168.288 647.187 168.76 647.731 169.096C648.291 169.432 648.907 169.6 649.579 169.6C650.251 169.6 650.859 169.432 651.403 169.096C651.963 168.76 652.403 168.288 652.723 167.68C653.059 167.072 653.227 166.376 653.227 165.592ZM675.632 154.24C676.048 154.24 676.392 154.376 676.664 154.648C676.936 154.92 677.072 155.272 677.072 155.704V170.536C677.072 170.952 676.936 171.304 676.664 171.592C676.392 171.864 676.048 172 675.632 172C675.216 172 674.872 171.864 674.6 171.592C674.344 171.32 674.208 170.976 674.192 170.56C673.792 171.024 673.248 171.424 672.56 171.76C671.888 172.08 671.176 172.24 670.424 172.24C669.32 172.24 668.32 171.96 667.424 171.4C666.528 170.824 665.816 170.032 665.288 169.024C664.776 168.016 664.52 166.872 664.52 165.592C664.52 164.312 664.776 163.168 665.288 162.16C665.8 161.136 666.496 160.344 667.376 159.784C668.272 159.208 669.256 158.92 670.328 158.92C671.096 158.92 671.816 159.064 672.488 159.352C673.16 159.624 673.728 159.976 674.192 160.408V155.704C674.192 155.288 674.328 154.944 674.6 154.672C674.872 154.384 675.216 154.24 675.632 154.24ZM670.784 169.6C671.824 169.6 672.672 169.224 673.328 168.472C673.984 167.704 674.312 166.744 674.312 165.592C674.312 164.44 673.984 163.48 673.328 162.712C672.672 161.944 671.824 161.56 670.784 161.56C669.76 161.56 668.92 161.944 668.264 162.712C667.608 163.48 667.28 164.44 667.28 165.592C667.28 166.744 667.6 167.704 668.24 168.472C668.896 169.224 669.744 169.6 670.784 169.6ZM691.713 165.28C691.697 165.664 691.545 165.976 691.257 166.216C690.969 166.456 690.633 166.576 690.249 166.576H682.329C682.521 167.52 682.961 168.264 683.649 168.808C684.337 169.336 685.113 169.6 685.977 169.6C686.633 169.6 687.145 169.544 687.513 169.432C687.881 169.304 688.169 169.176 688.377 169.048C688.601 168.904 688.753 168.808 688.833 168.76C689.121 168.616 689.393 168.544 689.649 168.544C689.985 168.544 690.273 168.664 690.513 168.904C690.753 169.144 690.873 169.424 690.873 169.744C690.873 170.176 690.649 170.568 690.201 170.92C689.753 171.288 689.153 171.6 688.401 171.856C687.649 172.112 686.889 172.24 686.121 172.24C684.777 172.24 683.601 171.96 682.593 171.4C681.601 170.84 680.833 170.072 680.289 169.096C679.745 168.104 679.473 166.992 679.473 165.76C679.473 164.384 679.761 163.176 680.337 162.136C680.913 161.096 681.673 160.304 682.617 159.76C683.561 159.2 684.569 158.92 685.641 158.92C686.697 158.92 687.689 159.208 688.617 159.784C689.561 160.36 690.313 161.136 690.873 162.112C691.433 163.088 691.713 164.144 691.713 165.28ZM685.641 161.56C683.785 161.56 682.689 162.432 682.353 164.176H688.641V164.008C688.577 163.336 688.249 162.76 687.657 162.28C687.065 161.8 686.393 161.56 685.641 161.56ZM711.233 154.24C711.649 154.24 711.993 154.376 712.265 154.648C712.537 154.92 712.673 155.272 712.673 155.704V170.536C712.673 170.952 712.537 171.304 712.265 171.592C711.993 171.864 711.649 172 711.233 172C710.817 172 710.473 171.864 710.201 171.592C709.945 171.32 709.809 170.976 709.793 170.56C709.393 171.024 708.849 171.424 708.161 171.76C707.489 172.08 706.777 172.24 706.025 172.24C704.921 172.24 703.921 171.96 703.025 171.4C702.129 170.824 701.417 170.032 700.889 169.024C700.377 168.016 700.121 166.872 700.121 165.592C700.121 164.312 700.377 163.168 700.889 162.16C701.401 161.136 702.097 160.344 702.977 159.784C703.873 159.208 704.857 158.92 705.929 158.92C706.697 158.92 707.417 159.064 708.089 159.352C708.761 159.624 709.329 159.976 709.793 160.408V155.704C709.793 155.288 709.929 154.944 710.201 154.672C710.473 154.384 710.817 154.24 711.233 154.24ZM706.385 169.6C707.425 169.6 708.273 169.224 708.929 168.472C709.585 167.704 709.913 166.744 709.913 165.592C709.913 164.44 709.585 163.48 708.929 162.712C708.273 161.944 707.425 161.56 706.385 161.56C705.361 161.56 704.521 161.944 703.865 162.712C703.209 163.48 702.881 164.44 702.881 165.592C702.881 166.744 703.201 167.704 703.841 168.472C704.497 169.224 705.345 169.6 706.385 169.6ZM726.186 158.92C726.602 158.92 726.946 159.056 727.218 159.328C727.49 159.6 727.626 159.952 727.626 160.384V170.536C727.626 170.952 727.49 171.304 727.218 171.592C726.946 171.864 726.602 172 726.186 172C725.77 172 725.426 171.864 725.154 171.592C724.898 171.32 724.762 170.976 724.746 170.56C724.346 171.024 723.802 171.424 723.114 171.76C722.442 172.08 721.73 172.24 720.978 172.24C719.874 172.24 718.874 171.96 717.978 171.4C717.082 170.824 716.37 170.032 715.842 169.024C715.33 168.016 715.074 166.872 715.074 165.592C715.074 164.312 715.33 163.168 715.842 162.16C716.354 161.136 717.05 160.344 717.93 159.784C718.826 159.208 719.81 158.92 720.882 158.92C721.65 158.92 722.37 159.064 723.042 159.352C723.714 159.624 724.282 159.976 724.746 160.408V160.384C724.746 159.968 724.882 159.624 725.154 159.352C725.426 159.064 725.77 158.92 726.186 158.92ZM721.338 169.6C722.378 169.6 723.226 169.224 723.882 168.472C724.538 167.704 724.866 166.744 724.866 165.592C724.866 164.44 724.538 163.48 723.882 162.712C723.226 161.944 722.378 161.56 721.338 161.56C720.314 161.56 719.474 161.944 718.818 162.712C718.162 163.48 717.834 164.44 717.834 165.592C717.834 166.744 718.154 167.704 718.794 168.472C719.45 169.224 720.298 169.6 721.338 169.6ZM736.94 169.288C737.164 169.288 737.364 169.4 737.54 169.624C737.732 169.832 737.828 170.112 737.828 170.464C737.828 170.896 737.588 171.264 737.108 171.568C736.644 171.856 736.116 172 735.523 172C734.532 172 733.692 171.792 733.004 171.376C732.332 170.944 731.996 170.04 731.996 168.664V162.04H730.892C730.508 162.04 730.188 161.912 729.932 161.656C729.676 161.4 729.548 161.08 729.548 160.696C729.548 160.328 729.676 160.024 729.932 159.784C730.188 159.528 730.508 159.4 730.892 159.4H731.996V157.864C731.996 157.448 732.132 157.104 732.404 156.832C732.692 156.544 733.044 156.4 733.46 156.4C733.86 156.4 734.196 156.544 734.468 156.832C734.74 157.104 734.876 157.448 734.876 157.864V159.4H736.58C736.964 159.4 737.284 159.528 737.54 159.784C737.796 160.04 737.924 160.36 737.924 160.744C737.924 161.112 737.796 161.424 737.54 161.68C737.284 161.92 736.964 162.04 736.58 162.04H734.876V168.544C734.876 168.88 734.964 169.128 735.14 169.288C735.316 169.432 735.556 169.504 735.86 169.504C735.988 169.504 736.164 169.472 736.388 169.408C736.58 169.328 736.764 169.288 736.94 169.288ZM752.787 165.592C752.787 166.872 752.499 168.024 751.923 169.048C751.347 170.056 750.555 170.84 749.547 171.4C748.555 171.96 747.459 172.24 746.259 172.24C745.043 172.24 743.939 171.96 742.947 171.4C741.955 170.84 741.171 170.056 740.595 169.048C740.019 168.024 739.731 166.872 739.731 165.592C739.731 164.312 740.019 163.168 740.595 162.16C741.171 161.136 741.955 160.344 742.947 159.784C743.939 159.208 745.043 158.92 746.259 158.92C747.459 158.92 748.555 159.208 749.547 159.784C750.555 160.344 751.347 161.136 751.923 162.16C752.499 163.168 752.787 164.312 752.787 165.592ZM749.907 165.592C749.907 164.808 749.739 164.112 749.403 163.504C749.083 162.88 748.643 162.4 748.083 162.064C747.539 161.728 746.931 161.56 746.259 161.56C745.587 161.56 744.971 161.728 744.411 162.064C743.867 162.4 743.427 162.88 743.091 163.504C742.771 164.112 742.611 164.808 742.611 165.592C742.611 166.376 742.771 167.072 743.091 167.68C743.427 168.288 743.867 168.76 744.411 169.096C744.971 169.432 745.587 169.6 746.259 169.6C746.931 169.6 747.539 169.432 748.083 169.096C748.643 168.76 749.083 168.288 749.403 167.68C749.739 167.072 749.907 166.376 749.907 165.592ZM754.449 170.008C754.305 169.816 754.233 169.576 754.233 169.288C754.233 168.872 754.441 168.52 754.857 168.232C755.081 168.088 755.313 168.016 755.553 168.016C755.889 168.016 756.209 168.168 756.513 168.472C756.993 168.968 757.489 169.336 758.001 169.576C758.529 169.816 759.161 169.936 759.897 169.936C761.145 169.888 761.769 169.416 761.769 168.52C761.769 168.056 761.553 167.704 761.121 167.464C760.705 167.224 760.049 166.984 759.153 166.744C758.225 166.488 757.465 166.232 756.873 165.976C756.297 165.72 755.793 165.336 755.361 164.824C754.945 164.296 754.737 163.592 754.737 162.712C754.737 161.944 754.953 161.28 755.385 160.72C755.833 160.144 756.409 159.704 757.113 159.4C757.833 159.08 758.593 158.92 759.393 158.92C760.209 158.92 761.025 159.072 761.841 159.376C762.657 159.68 763.297 160.128 763.761 160.72C763.969 160.976 764.073 161.264 764.073 161.584C764.073 161.952 763.921 162.256 763.617 162.496C763.393 162.672 763.137 162.76 762.849 162.76C762.497 162.76 762.209 162.648 761.985 162.424C761.697 162.072 761.321 161.792 760.857 161.584C760.409 161.376 759.897 161.272 759.321 161.272C758.105 161.272 757.497 161.712 757.497 162.592C757.497 162.944 757.609 163.232 757.833 163.456C758.057 163.664 758.337 163.832 758.673 163.96C759.025 164.072 759.513 164.216 760.137 164.392C761.001 164.632 761.721 164.88 762.297 165.136C762.873 165.392 763.361 165.784 763.761 166.312C764.161 166.84 764.361 167.536 764.361 168.4C764.361 169.184 764.129 169.872 763.665 170.464C763.201 171.04 762.601 171.48 761.865 171.784C761.145 172.088 760.401 172.24 759.633 172.24C758.577 172.24 757.593 172.064 756.681 171.712C755.769 171.36 755.025 170.792 754.449 170.008Z" fill="#53738E"/>
<path d="M112.481 339H108.819V321.227H112.481V339ZM115.887 339V321.227H122.112C124.269 321.227 125.905 321.642 127.02 322.472C128.134 323.294 128.692 324.502 128.692 326.097C128.692 326.968 128.468 327.737 128.021 328.404C127.573 329.063 126.95 329.548 126.153 329.857C127.064 330.085 127.78 330.545 128.301 331.236C128.83 331.928 129.095 332.774 129.095 333.775C129.095 335.484 128.549 336.778 127.459 337.657C126.368 338.536 124.814 338.984 122.796 339H115.887ZM119.549 331.261V336.058H122.686C123.549 336.058 124.22 335.855 124.7 335.448C125.188 335.033 125.433 334.463 125.433 333.739C125.433 332.111 124.59 331.285 122.906 331.261H119.549ZM119.549 328.673H122.259C124.106 328.64 125.03 327.904 125.03 326.463C125.03 325.658 124.794 325.08 124.322 324.73C123.858 324.372 123.121 324.193 122.112 324.193H119.549V328.673ZM136.639 321.227L141.204 334.117L145.745 321.227H150.555V339H146.88V334.142L147.247 325.755L142.449 339H139.935L135.149 325.768L135.516 334.142V339H131.854V321.227H136.639ZM159.979 339V321.227H165.447C167.01 321.227 168.405 321.581 169.634 322.289C170.871 322.988 171.836 323.989 172.527 325.292C173.219 326.585 173.565 328.058 173.565 329.71V330.528C173.565 332.18 173.223 333.649 172.54 334.935C171.864 336.221 170.908 337.218 169.671 337.926C168.434 338.634 167.038 338.992 165.484 339H159.979ZM163.641 324.193V336.058H165.411C166.843 336.058 167.938 335.59 168.694 334.654C169.451 333.718 169.838 332.38 169.854 330.638V329.698C169.854 327.892 169.48 326.524 168.731 325.597C167.982 324.661 166.888 324.193 165.447 324.193H163.641ZM176.238 339V321.227H182.464C184.62 321.227 186.256 321.642 187.371 322.472C188.486 323.294 189.043 324.502 189.043 326.097C189.043 326.968 188.82 327.737 188.372 328.404C187.924 329.063 187.302 329.548 186.504 329.857C187.416 330.085 188.132 330.545 188.653 331.236C189.182 331.928 189.446 332.774 189.446 333.775C189.446 335.484 188.901 336.778 187.811 337.657C186.72 338.536 185.166 338.984 183.147 339H176.238ZM179.9 331.261V336.058H183.038C183.9 336.058 184.572 335.855 185.052 335.448C185.54 335.033 185.784 334.463 185.784 333.739C185.784 332.111 184.942 331.285 183.257 331.261H179.9ZM179.9 328.673H182.61C184.458 328.64 185.381 327.904 185.381 326.463C185.381 325.658 185.145 325.08 184.673 324.73C184.209 324.372 183.473 324.193 182.464 324.193H179.9V328.673ZM204.009 339H191.827V336.583L197.576 330.455C198.366 329.592 198.947 328.84 199.322 328.197C199.704 327.554 199.896 326.944 199.896 326.366C199.896 325.576 199.696 324.958 199.297 324.51C198.899 324.055 198.329 323.827 197.588 323.827C196.791 323.827 196.16 324.103 195.696 324.657C195.241 325.202 195.013 325.922 195.013 326.817H191.473C191.473 325.735 191.729 324.746 192.242 323.851C192.763 322.956 193.495 322.256 194.439 321.751C195.383 321.239 196.453 320.982 197.649 320.982C199.48 320.982 200.901 321.422 201.91 322.301C202.927 323.18 203.436 324.421 203.436 326.024C203.436 326.903 203.208 327.798 202.752 328.709C202.296 329.621 201.515 330.683 200.408 331.896L196.368 336.156H204.009V339Z" fill="#47545F" fill-opacity="0.66"/>
<path d="M113.372 249.227L117.938 262.117L122.479 249.227H127.288V267H123.614V262.142L123.98 253.755L119.183 267H116.668L111.883 253.768L112.249 262.142V267H108.587V249.227H113.372ZM139.703 262.337C139.703 261.645 139.458 261.116 138.97 260.75C138.482 260.376 137.603 259.985 136.333 259.578C135.064 259.163 134.059 258.756 133.318 258.357C131.3 257.267 130.291 255.798 130.291 253.951C130.291 252.99 130.56 252.136 131.097 251.387C131.642 250.63 132.419 250.04 133.428 249.617C134.445 249.194 135.585 248.982 136.846 248.982C138.116 248.982 139.247 249.214 140.24 249.678C141.233 250.134 142.002 250.781 142.547 251.619C143.1 252.457 143.377 253.41 143.377 254.476H139.715C139.715 253.662 139.458 253.031 138.946 252.583C138.433 252.128 137.713 251.9 136.785 251.9C135.89 251.9 135.194 252.091 134.698 252.474C134.201 252.848 133.953 253.344 133.953 253.963C133.953 254.541 134.242 255.025 134.82 255.416C135.406 255.806 136.264 256.172 137.396 256.514C139.479 257.141 140.997 257.918 141.949 258.846C142.901 259.773 143.377 260.929 143.377 262.312C143.377 263.851 142.795 265.059 141.631 265.938C140.468 266.809 138.901 267.244 136.932 267.244C135.564 267.244 134.319 266.996 133.196 266.5C132.073 265.995 131.215 265.307 130.621 264.437C130.035 263.566 129.742 262.557 129.742 261.409H133.416C133.416 263.37 134.588 264.351 136.932 264.351C137.802 264.351 138.482 264.176 138.97 263.826C139.458 263.468 139.703 262.972 139.703 262.337ZM161.309 262.337C161.309 261.645 161.065 261.116 160.577 260.75C160.088 260.376 159.209 259.985 157.94 259.578C156.67 259.163 155.665 258.756 154.925 258.357C152.907 257.267 151.897 255.798 151.897 253.951C151.897 252.99 152.166 252.136 152.703 251.387C153.248 250.63 154.026 250.04 155.035 249.617C156.052 249.194 157.191 248.982 158.453 248.982C159.722 248.982 160.853 249.214 161.846 249.678C162.839 250.134 163.608 250.781 164.153 251.619C164.707 252.457 164.983 253.41 164.983 254.476H161.321C161.321 253.662 161.065 253.031 160.552 252.583C160.04 252.128 159.319 251.9 158.392 251.9C157.496 251.9 156.801 252.091 156.304 252.474C155.808 252.848 155.56 253.344 155.56 253.963C155.56 254.541 155.848 255.025 156.426 255.416C157.012 255.806 157.871 256.172 159.002 256.514C161.085 257.141 162.603 257.918 163.555 258.846C164.507 259.773 164.983 260.929 164.983 262.312C164.983 263.851 164.402 265.059 163.238 265.938C162.074 266.809 160.507 267.244 158.538 267.244C157.171 267.244 155.926 266.996 154.803 266.5C153.68 265.995 152.821 265.307 152.227 264.437C151.641 263.566 151.348 262.557 151.348 261.409H155.022C155.022 263.37 156.194 264.351 158.538 264.351C159.409 264.351 160.088 264.176 160.577 263.826C161.065 263.468 161.309 262.972 161.309 262.337ZM182.049 258.516C182.049 260.176 181.78 261.621 181.243 262.85C180.706 264.07 179.961 265.051 179.009 265.792L181.963 268.111L179.632 270.174L175.848 267.134C175.416 267.208 174.969 267.244 174.505 267.244C173.032 267.244 171.718 266.89 170.562 266.182C169.406 265.474 168.511 264.465 167.876 263.155C167.242 261.836 166.92 260.323 166.912 258.614V257.735C166.912 255.985 167.225 254.447 167.852 253.121C168.487 251.786 169.378 250.765 170.525 250.057C171.681 249.34 172.999 248.982 174.48 248.982C175.962 248.982 177.276 249.34 178.423 250.057C179.579 250.765 180.47 251.786 181.097 253.121C181.731 254.447 182.049 255.981 182.049 257.723V258.516ZM178.338 257.71C178.338 255.847 178.004 254.431 177.337 253.462C176.67 252.494 175.717 252.01 174.48 252.01C173.252 252.01 172.304 252.49 171.636 253.45C170.969 254.402 170.631 255.802 170.623 257.649V258.516C170.623 260.331 170.957 261.739 171.624 262.74C172.291 263.741 173.252 264.241 174.505 264.241C175.734 264.241 176.678 263.761 177.337 262.801C177.996 261.832 178.33 260.424 178.338 258.577V257.71ZM188.396 264.058H196.172V267H184.734V249.227H188.396V264.058ZM213.726 262.337C213.726 261.645 213.482 261.116 212.994 260.75C212.505 260.376 211.626 259.985 210.357 259.578C209.087 259.163 208.082 258.756 207.342 258.357C205.324 257.267 204.314 255.798 204.314 253.951C204.314 252.99 204.583 252.136 205.12 251.387C205.665 250.63 206.443 250.04 207.452 249.617C208.469 249.194 209.608 248.982 210.87 248.982C212.139 248.982 213.27 249.214 214.263 249.678C215.256 250.134 216.025 250.781 216.57 251.619C217.124 252.457 217.4 253.41 217.4 254.476H213.738C213.738 253.662 213.482 253.031 212.969 252.583C212.457 252.128 211.736 251.9 210.809 251.9C209.913 251.9 209.218 252.091 208.721 252.474C208.225 252.848 207.977 253.344 207.977 253.963C207.977 254.541 208.265 255.025 208.843 255.416C209.429 255.806 210.288 256.172 211.419 256.514C213.502 257.141 215.02 257.918 215.972 258.846C216.924 259.773 217.4 260.929 217.4 262.312C217.4 263.851 216.819 265.059 215.655 265.938C214.491 266.809 212.924 267.244 210.955 267.244C209.588 267.244 208.343 266.996 207.22 266.5C206.097 265.995 205.238 265.307 204.644 264.437C204.058 263.566 203.765 262.557 203.765 261.409H207.439C207.439 263.37 208.611 264.351 210.955 264.351C211.826 264.351 212.505 264.176 212.994 263.826C213.482 263.468 213.726 262.972 213.726 262.337ZM225.738 267.244C223.801 267.244 222.222 266.65 221.001 265.462C219.789 264.274 219.183 262.691 219.183 260.713V260.372C219.183 259.045 219.439 257.861 219.952 256.819C220.464 255.77 221.189 254.964 222.125 254.402C223.069 253.833 224.143 253.548 225.347 253.548C227.154 253.548 228.574 254.118 229.607 255.257C230.649 256.396 231.17 258.012 231.17 260.103V261.543H222.759C222.873 262.406 223.215 263.098 223.785 263.619C224.362 264.139 225.091 264.4 225.97 264.4C227.329 264.4 228.391 263.908 229.156 262.923L230.889 264.864C230.36 265.612 229.644 266.198 228.741 266.622C227.837 267.037 226.836 267.244 225.738 267.244ZM225.335 256.404C224.635 256.404 224.065 256.64 223.626 257.112C223.195 257.584 222.918 258.26 222.796 259.139H227.703V258.858C227.687 258.077 227.475 257.474 227.068 257.051C226.661 256.62 226.084 256.404 225.335 256.404ZM240.606 257.1C240.126 257.035 239.703 257.002 239.336 257.002C238.002 257.002 237.127 257.454 236.712 258.357V267H233.184V253.792H236.517L236.614 255.367C237.322 254.154 238.303 253.548 239.556 253.548C239.947 253.548 240.313 253.601 240.655 253.707L240.606 257.1ZM247.479 262.691L249.932 253.792H253.619L249.163 267H245.794L241.338 253.792H245.025L247.479 262.691ZM261.089 267.244C259.153 267.244 257.574 266.65 256.353 265.462C255.14 264.274 254.534 262.691 254.534 260.713V260.372C254.534 259.045 254.791 257.861 255.303 256.819C255.816 255.77 256.54 254.964 257.476 254.402C258.42 253.833 259.494 253.548 260.699 253.548C262.505 253.548 263.925 254.118 264.959 255.257C266.001 256.396 266.521 258.012 266.521 260.103V261.543H258.111C258.225 262.406 258.567 263.098 259.136 263.619C259.714 264.139 260.442 264.4 261.321 264.4C262.68 264.4 263.742 263.908 264.507 262.923L266.241 264.864C265.712 265.612 264.996 266.198 264.092 266.622C263.189 267.037 262.188 267.244 261.089 267.244ZM260.687 256.404C259.987 256.404 259.417 256.64 258.978 257.112C258.546 257.584 258.27 258.26 258.147 259.139H263.055V258.858C263.038 258.077 262.827 257.474 262.42 257.051C262.013 256.62 261.435 256.404 260.687 256.404ZM275.958 257.1C275.477 257.035 275.054 257.002 274.688 257.002C273.353 257.002 272.479 257.454 272.063 258.357V267H268.536V253.792H271.868L271.966 255.367C272.674 254.154 273.654 253.548 274.908 253.548C275.298 253.548 275.665 253.601 276.006 253.707L275.958 257.1Z" fill="#47545F" fill-opacity="0.66"/>
<path d="M657.587 478V460.227H663.056C664.618 460.227 666.014 460.581 667.243 461.289C668.48 461.988 669.444 462.989 670.136 464.292C670.827 465.585 671.173 467.058 671.173 468.71V469.528C671.173 471.18 670.832 472.649 670.148 473.935C669.472 475.221 668.516 476.218 667.279 476.926C666.042 477.634 664.647 477.992 663.092 478H657.587ZM661.249 463.193V475.058H663.019C664.451 475.058 665.546 474.59 666.303 473.654C667.06 472.718 667.446 471.38 667.462 469.638V468.698C667.462 466.892 667.088 465.524 666.339 464.597C665.591 463.661 664.496 463.193 663.056 463.193H661.249ZM681.269 478C681.106 477.683 680.988 477.288 680.915 476.816C680.06 477.768 678.949 478.244 677.582 478.244C676.288 478.244 675.214 477.87 674.359 477.121C673.513 476.372 673.09 475.428 673.09 474.289C673.09 472.889 673.607 471.815 674.64 471.066C675.682 470.318 677.183 469.939 679.145 469.931H680.768V469.174C680.768 468.564 680.609 468.076 680.292 467.709C679.983 467.343 679.49 467.16 678.815 467.16C678.221 467.16 677.753 467.303 677.411 467.587C677.077 467.872 676.911 468.263 676.911 468.759H673.383C673.383 467.994 673.619 467.286 674.091 466.635C674.563 465.984 675.23 465.476 676.093 465.109C676.955 464.735 677.924 464.548 678.998 464.548C680.626 464.548 681.916 464.959 682.868 465.781C683.828 466.595 684.308 467.742 684.308 469.223V474.948C684.316 476.201 684.491 477.15 684.833 477.792V478H681.269ZM678.351 475.546C678.872 475.546 679.352 475.432 679.792 475.205C680.231 474.969 680.556 474.655 680.768 474.265V471.994H679.45C677.684 471.994 676.744 472.604 676.63 473.825L676.618 474.033C676.618 474.472 676.772 474.834 677.082 475.119C677.391 475.404 677.814 475.546 678.351 475.546ZM691.242 461.545V464.792H693.5V467.38H691.242V473.972C691.242 474.46 691.335 474.81 691.522 475.021C691.71 475.233 692.068 475.339 692.597 475.339C692.987 475.339 693.333 475.31 693.634 475.253V477.927C692.943 478.138 692.23 478.244 691.498 478.244C689.024 478.244 687.763 476.995 687.714 474.497V467.38H685.785V464.792H687.714V461.545H691.242ZM703.119 478C702.956 477.683 702.838 477.288 702.765 476.816C701.911 477.768 700.8 478.244 699.433 478.244C698.139 478.244 697.064 477.87 696.21 477.121C695.364 476.372 694.94 475.428 694.94 474.289C694.94 472.889 695.457 471.815 696.491 471.066C697.532 470.318 699.034 469.939 700.995 469.931H702.619V469.174C702.619 468.564 702.46 468.076 702.143 467.709C701.833 467.343 701.341 467.16 700.666 467.16C700.071 467.16 699.604 467.303 699.262 467.587C698.928 467.872 698.761 468.263 698.761 468.759H695.233C695.233 467.994 695.469 467.286 695.941 466.635C696.413 465.984 697.081 465.476 697.943 465.109C698.806 464.735 699.774 464.548 700.849 464.548C702.476 464.548 703.766 464.959 704.718 465.781C705.679 466.595 706.159 467.742 706.159 469.223V474.948C706.167 476.201 706.342 477.15 706.684 477.792V478H703.119ZM700.202 475.546C700.722 475.546 701.203 475.432 701.642 475.205C702.082 474.969 702.407 474.655 702.619 474.265V471.994H701.3C699.534 471.994 698.594 472.604 698.48 473.825L698.468 474.033C698.468 474.472 698.623 474.834 698.932 475.119C699.241 475.404 699.665 475.546 700.202 475.546ZM713.886 460.227L718.451 473.117L722.992 460.227H727.802V478H724.127V473.142L724.494 464.755L719.696 478H717.182L712.396 464.768L712.763 473.142V478H709.101V460.227H713.886ZM738.422 478C738.259 477.683 738.141 477.288 738.068 476.816C737.213 477.768 736.103 478.244 734.735 478.244C733.441 478.244 732.367 477.87 731.513 477.121C730.666 476.372 730.243 475.428 730.243 474.289C730.243 472.889 730.76 471.815 731.793 471.066C732.835 470.318 734.337 469.939 736.298 469.931H737.921V469.174C737.921 468.564 737.763 468.076 737.445 467.709C737.136 467.343 736.644 467.16 735.968 467.16C735.374 467.16 734.906 467.303 734.564 467.587C734.231 467.872 734.064 468.263 734.064 468.759H730.536C730.536 467.994 730.772 467.286 731.244 466.635C731.716 465.984 732.383 465.476 733.246 465.109C734.109 464.735 735.077 464.548 736.151 464.548C737.779 464.548 739.069 464.959 740.021 465.781C740.981 466.595 741.461 467.742 741.461 469.223V474.948C741.47 476.201 741.645 477.15 741.986 477.792V478H738.422ZM735.504 475.546C736.025 475.546 736.505 475.432 736.945 475.205C737.384 474.969 737.71 474.655 737.921 474.265V471.994H736.603C734.837 471.994 733.897 472.604 733.783 473.825L733.771 474.033C733.771 474.472 733.926 474.834 734.235 475.119C734.544 475.404 734.967 475.546 735.504 475.546ZM751.593 468.1C751.113 468.035 750.69 468.002 750.324 468.002C748.989 468.002 748.114 468.454 747.699 469.357V478H744.171V464.792H747.504L747.602 466.367C748.31 465.154 749.29 464.548 750.543 464.548C750.934 464.548 751.3 464.601 751.642 464.707L751.593 468.1ZM758.136 461.545V464.792H760.395V467.38H758.136V473.972C758.136 474.46 758.23 474.81 758.417 475.021C758.604 475.233 758.962 475.339 759.491 475.339C759.882 475.339 760.228 475.31 760.529 475.253V477.927C759.837 478.138 759.125 478.244 758.393 478.244C755.919 478.244 754.657 476.995 754.608 474.497V467.38H752.68V464.792H754.608V461.545H758.136Z" fill="#47545F" fill-opacity="0.66"/>
<path d="M113.372 467.227L117.938 480.117L122.479 467.227H127.288V485H123.614V480.142L123.98 471.755L119.183 485H116.668L111.883 471.768L112.249 480.142V485H108.587V467.227H113.372ZM135.186 480.007L137.627 471.792H141.412L136.102 487.051L135.809 487.747C135.019 489.472 133.717 490.334 131.902 490.334C131.39 490.334 130.869 490.257 130.34 490.103V487.429L130.877 487.441C131.544 487.441 132.041 487.34 132.366 487.136C132.7 486.933 132.96 486.595 133.147 486.123L133.562 485.037L128.936 471.792H132.732L135.186 480.007ZM152.251 480.337C152.251 479.645 152.007 479.116 151.519 478.75C151.031 478.376 150.152 477.985 148.882 477.578C147.613 477.163 146.608 476.756 145.867 476.357C143.849 475.267 142.84 473.798 142.84 471.951C142.84 470.99 143.108 470.136 143.646 469.387C144.191 468.63 144.968 468.04 145.977 467.617C146.994 467.194 148.134 466.982 149.395 466.982C150.665 466.982 151.796 467.214 152.789 467.678C153.781 468.134 154.55 468.781 155.096 469.619C155.649 470.457 155.926 471.41 155.926 472.476H152.264C152.264 471.662 152.007 471.031 151.495 470.583C150.982 470.128 150.262 469.9 149.334 469.9C148.439 469.9 147.743 470.091 147.247 470.474C146.75 470.848 146.502 471.344 146.502 471.963C146.502 472.541 146.791 473.025 147.369 473.416C147.955 473.806 148.813 474.172 149.944 474.514C152.028 475.141 153.545 475.918 154.498 476.846C155.45 477.773 155.926 478.929 155.926 480.312C155.926 481.851 155.344 483.059 154.18 483.938C153.016 484.809 151.45 485.244 149.48 485.244C148.113 485.244 146.868 484.996 145.745 484.5C144.622 483.995 143.764 483.307 143.169 482.437C142.583 481.566 142.291 480.557 142.291 479.409H145.965C145.965 481.37 147.137 482.351 149.48 482.351C150.351 482.351 151.031 482.176 151.519 481.826C152.007 481.468 152.251 480.972 152.251 480.337ZM172.991 476.516C172.991 478.176 172.723 479.621 172.186 480.85C171.648 482.07 170.904 483.051 169.952 483.792L172.906 486.111L170.574 488.174L166.79 485.134C166.359 485.208 165.911 485.244 165.447 485.244C163.974 485.244 162.66 484.89 161.504 484.182C160.349 483.474 159.454 482.465 158.819 481.155C158.184 479.836 157.863 478.323 157.854 476.614V475.735C157.854 473.985 158.168 472.447 158.794 471.121C159.429 469.786 160.32 468.765 161.468 468.057C162.623 467.34 163.942 466.982 165.423 466.982C166.904 466.982 168.218 467.34 169.366 468.057C170.521 468.765 171.412 469.786 172.039 471.121C172.674 472.447 172.991 473.981 172.991 475.723V476.516ZM169.28 475.71C169.28 473.847 168.947 472.431 168.279 471.462C167.612 470.494 166.66 470.01 165.423 470.01C164.194 470.01 163.246 470.49 162.579 471.45C161.911 472.402 161.574 473.802 161.565 475.649V476.516C161.565 478.331 161.899 479.739 162.566 480.74C163.234 481.741 164.194 482.241 165.447 482.241C166.676 482.241 167.62 481.761 168.279 480.801C168.938 479.832 169.272 478.424 169.28 476.577V475.71ZM179.339 482.058H187.115V485H175.677V467.227H179.339V482.058Z" fill="#47545F" fill-opacity="0.66"/>
<path d="M123.187 404.516C123.187 406.266 122.877 407.8 122.259 409.118C121.64 410.437 120.753 411.454 119.598 412.17C118.45 412.886 117.132 413.244 115.643 413.244C114.17 413.244 112.855 412.89 111.7 412.182C110.544 411.474 109.649 410.465 109.014 409.155C108.379 407.836 108.058 406.323 108.05 404.614V403.735C108.05 401.985 108.363 400.447 108.99 399.121C109.625 397.786 110.516 396.765 111.663 396.057C112.819 395.34 114.137 394.982 115.618 394.982C117.099 394.982 118.414 395.34 119.561 396.057C120.717 396.765 121.608 397.786 122.234 399.121C122.869 400.447 123.187 401.981 123.187 403.723V404.516ZM119.476 403.71C119.476 401.847 119.142 400.431 118.475 399.462C117.807 398.494 116.855 398.01 115.618 398.01C114.389 398.01 113.441 398.49 112.774 399.45C112.107 400.402 111.769 401.802 111.761 403.649V404.516C111.761 406.331 112.094 407.739 112.762 408.74C113.429 409.741 114.389 410.241 115.643 410.241C116.871 410.241 117.815 409.761 118.475 408.801C119.134 407.832 119.467 406.424 119.476 404.577V403.71ZM132.427 406.494H129.51V413H125.848V395.227H132.452C134.551 395.227 136.171 395.694 137.31 396.63C138.449 397.566 139.019 398.889 139.019 400.598C139.019 401.81 138.755 402.823 138.226 403.637C137.705 404.443 136.911 405.086 135.845 405.566L139.69 412.829V413H135.76L132.427 406.494ZM129.51 403.527H132.464C133.383 403.527 134.096 403.295 134.6 402.832C135.105 402.36 135.357 401.713 135.357 400.891C135.357 400.052 135.117 399.393 134.637 398.913C134.165 398.433 133.436 398.193 132.452 398.193H129.51V403.527ZM151.849 409.338H145.428L144.207 413H140.313L146.929 395.227H150.323L156.976 413H153.082L151.849 409.338ZM146.417 406.372H150.86L148.626 399.719L146.417 406.372ZM172.32 407.08C172.181 408.992 171.473 410.498 170.196 411.596C168.926 412.695 167.25 413.244 165.167 413.244C162.888 413.244 161.093 412.479 159.783 410.949C158.481 409.411 157.83 407.303 157.83 404.626V403.54C157.83 401.831 158.131 400.325 158.733 399.023C159.336 397.721 160.194 396.724 161.309 396.032C162.432 395.332 163.734 394.982 165.215 394.982C167.266 394.982 168.918 395.532 170.171 396.63C171.425 397.729 172.149 399.271 172.344 401.257H168.682C168.593 400.109 168.271 399.279 167.718 398.767C167.173 398.246 166.338 397.985 165.215 397.985C163.995 397.985 163.079 398.425 162.469 399.304C161.867 400.174 161.557 401.529 161.541 403.369V404.711C161.541 406.632 161.83 408.036 162.408 408.923C162.994 409.81 163.913 410.253 165.167 410.253C166.298 410.253 167.14 409.997 167.693 409.484C168.255 408.964 168.576 408.162 168.658 407.08H172.32ZM178.387 410.058H186.163V413H174.725V395.227H178.387V410.058ZM198.968 405.297H191.937V410.058H200.188V413H188.274V395.227H200.164V398.193H191.937V402.429H198.968V405.297Z" fill="#47545F" fill-opacity="0.66"/>
<path d="M68.6225 69.4647L69.6214 69.5119L68.6225 69.4647ZM155.984 53.4723L156.114 45.3083L147.95 45.178L147.82 53.342L155.984 53.4723ZM66.3397 187.213C66.3272 186.661 65.8695 186.223 65.3173 186.236C64.7652 186.248 64.3277 186.706 64.3402 187.258L66.3397 187.213ZM64.2428 177.008C64.2427 177.56 64.6904 178.008 65.2427 178.008C65.795 178.008 66.2427 177.56 66.2428 177.008L64.2428 177.008ZM66.3076 166.783C66.3141 166.231 65.8716 165.778 65.3193 165.772C64.7671 165.765 64.3142 166.208 64.3078 166.76L66.3076 166.783ZM64.4692 156.497C64.4585 157.049 64.8974 157.506 65.4496 157.516C66.0018 157.527 66.4581 157.088 66.4688 156.536L64.4692 156.497ZM66.6977 146.313C66.7116 145.761 66.2753 145.302 65.7232 145.289C65.1711 145.275 64.7123 145.711 64.6984 146.263L66.6977 146.313ZM64.9808 136.009C64.9644 136.561 65.3986 137.022 65.9506 137.038C66.5027 137.055 66.9635 136.621 66.9799 136.069L64.9808 136.009ZM67.3051 125.819C67.3237 125.267 66.8912 124.804 66.3393 124.786C65.7873 124.767 65.3248 125.2 65.3063 125.752L67.3051 125.819ZM65.666 115.54C65.6457 116.092 66.0767 116.556 66.6286 116.576C67.1805 116.596 67.6444 116.165 67.6647 115.614L65.666 115.54ZM68.0567 105.362C68.0786 104.81 67.6489 104.345 67.0971 104.324C66.5452 104.302 66.0801 104.731 66.0583 105.283L68.0567 105.362ZM66.4773 95.0304C66.4541 95.5822 66.8826 96.0484 67.4344 96.0716C67.9862 96.0948 68.4524 95.6663 68.4756 95.1145L66.4773 95.0304ZM68.9165 84.9091C68.941 84.3573 68.5135 83.8902 67.9617 83.8658C67.41 83.8414 66.9429 84.2688 66.9185 84.8206L68.9165 84.9091ZM67.3818 74.5927C67.3562 75.1444 67.7828 75.6124 68.3345 75.6379C68.8862 75.6634 69.3541 75.2369 69.3796 74.6852L67.3818 74.5927ZM69.9618 64.0808C70.0053 63.5302 69.5942 63.0486 69.0437 63.0051C68.4931 62.9616 68.0115 63.3727 67.968 63.9232L69.9618 64.0808ZM69.2121 53.2869C69.1248 53.8322 69.496 54.3451 70.0414 54.4325C70.5867 54.5198 71.0996 54.1485 71.1869 53.6032L69.2121 53.2869ZM73.4527 43.2245C73.6054 42.6938 73.299 42.1397 72.7683 41.9869C72.2376 41.8342 71.6835 42.1406 71.5307 42.6713L73.4527 43.2245ZM75.464 32.5546C75.2095 33.0447 75.4005 33.6484 75.8907 33.9029C76.3808 34.1574 76.9845 33.9663 77.239 33.4762L75.464 32.5546ZM83.3535 25.1982C83.7593 24.8236 83.7847 24.191 83.4101 23.7851C83.0355 23.3793 82.4029 23.3539 81.997 23.7285L83.3535 25.1982ZM91.6749 18.3823C91.1407 18.5226 90.8214 19.0693 90.9617 19.6035C91.102 20.1377 91.6487 20.457 92.1829 20.3167L91.6749 18.3823ZM102.405 19.8833C102.952 19.9604 103.457 19.5795 103.534 19.0326C103.612 18.4857 103.231 17.9799 102.684 17.9029L102.405 19.8833ZM113.219 20.7891C112.705 20.5873 112.124 20.8405 111.923 21.3546C111.721 21.8687 111.974 22.449 112.488 22.6508L113.219 20.7891ZM121.996 27.2453C122.477 27.5177 123.087 27.349 123.359 26.8685C123.632 26.388 123.463 25.7777 122.982 25.5054L121.996 27.2453ZM132.105 31.304C131.653 30.987 131.029 31.0965 130.712 31.5487C130.395 32.0009 130.505 32.6246 130.957 32.9416L132.105 31.304ZM139.427 39.3681C139.855 39.7171 140.485 39.653 140.834 39.225C141.183 38.7969 141.119 38.167 140.691 37.818L139.427 39.3681ZM148.83 44.9016C148.425 44.5256 147.792 44.5489 147.417 44.9535C147.041 45.3581 147.064 45.9908 147.468 46.3667L148.83 44.9016ZM65.5327 192.344C66.5297 192.266 66.5297 192.266 66.5297 192.266C66.5297 192.266 66.5297 192.266 66.5297 192.266C66.5297 192.266 66.5297 192.266 66.5297 192.266C66.5297 192.266 66.5297 192.266 66.5297 192.266C66.5297 192.266 66.5296 192.265 66.5295 192.264C66.5294 192.262 66.5291 192.259 66.5288 192.254C66.5281 192.245 66.527 192.229 66.5255 192.208C66.5226 192.166 66.5182 192.1 66.5126 192.008C66.5014 191.825 66.4855 191.54 66.4669 191.139C66.4296 190.335 66.3817 189.066 66.3397 187.213L64.3402 187.258C64.3825 189.125 64.431 190.41 64.469 191.231C64.4881 191.642 64.5045 191.936 64.5163 192.13C64.5222 192.227 64.527 192.298 64.5303 192.346C64.5319 192.37 64.5333 192.388 64.5342 192.401C64.5346 192.407 64.535 192.412 64.5353 192.416C64.5354 192.417 64.5355 192.419 64.5356 192.42C64.5356 192.42 64.5357 192.421 64.5357 192.421C64.5357 192.421 64.5357 192.421 64.5357 192.422C64.5357 192.422 64.5357 192.422 64.5357 192.422C64.5358 192.422 64.5358 192.422 65.5327 192.344ZM66.2428 177.008C66.2431 174.113 66.2617 170.726 66.3076 166.783L64.3078 166.76C64.2618 170.71 64.2431 174.105 64.2428 177.008L66.2428 177.008ZM66.4688 156.536C66.5298 153.39 66.6053 149.988 66.6977 146.313L64.6984 146.263C64.6058 149.941 64.5302 153.347 64.4692 156.497L66.4688 156.536ZM66.9799 136.069C67.0764 132.829 67.1844 129.416 67.3051 125.819L65.3063 125.752C65.1854 129.351 65.0773 132.767 64.9808 136.009L66.9799 136.069ZM67.6647 115.614C67.7855 112.331 67.916 108.915 68.0567 105.362L66.0583 105.283C65.9174 108.838 65.7869 112.255 65.666 115.54L67.6647 115.614ZM68.4756 95.1145C68.6142 91.8197 68.7611 88.419 68.9165 84.9091L66.9185 84.8206C66.763 88.3319 66.6161 91.7342 66.4773 95.0304L68.4756 95.1145ZM69.3796 74.6852C69.4583 72.9843 69.5389 71.26 69.6214 69.5119L67.6237 69.4176C67.5411 71.1663 67.4605 72.8912 67.3818 74.5927L69.3796 74.6852ZM69.6214 69.5119C69.7099 67.6385 69.8237 65.8287 69.9618 64.0808L67.968 63.9232C67.8281 65.6932 67.713 67.5241 67.6237 69.4176L69.6214 69.5119ZM71.1869 53.6032C71.8018 49.7641 72.5632 46.3148 73.4527 43.2245L71.5307 42.6713C70.616 45.8494 69.838 49.3788 69.2121 53.2869L71.1869 53.6032ZM77.239 33.4762C79.0538 29.9807 81.1158 27.2634 83.3535 25.1982L81.997 23.7285C79.5647 25.9734 77.369 28.8853 75.464 32.5546L77.239 33.4762ZM92.1829 20.3167C95.4085 19.4696 98.8489 19.3822 102.405 19.8833L102.684 17.9029C98.9227 17.3728 95.208 17.4544 91.6749 18.3823L92.1829 20.3167ZM112.488 22.6508C115.696 23.9098 118.891 25.4856 121.996 27.2453L122.982 25.5054C119.813 23.7092 116.532 22.0893 113.219 20.7891L112.488 22.6508ZM130.957 32.9416C134.023 35.0915 136.88 37.2917 139.427 39.3681L140.691 37.818C138.114 35.7165 135.218 33.4863 132.105 31.304L130.957 32.9416ZM147.468 46.3667C148.673 47.4863 149.621 48.4023 150.266 49.0373C150.589 49.3548 150.835 49.602 151.001 49.7692C151.084 49.8528 151.146 49.9163 151.188 49.9587C151.209 49.9799 151.224 49.9957 151.234 50.0062C151.239 50.0114 151.243 50.0152 151.245 50.0177C151.247 50.0189 151.247 50.0198 151.248 50.0203C151.248 50.0206 151.248 50.0208 151.249 50.0209C151.249 50.0209 151.249 50.0209 151.249 50.0209C151.249 50.0209 151.249 50.0209 151.249 50.0209C151.249 50.0209 151.249 50.0209 151.967 49.3251C152.685 48.6294 152.685 48.6294 152.685 48.6293C152.685 48.6293 152.685 48.6293 152.685 48.6292C152.685 48.6291 152.685 48.629 152.685 48.6289C152.684 48.6286 152.684 48.6283 152.684 48.6279C152.683 48.627 152.682 48.6258 152.68 48.6242C152.677 48.6211 152.673 48.6166 152.667 48.6107C152.656 48.599 152.639 48.5818 152.617 48.5593C152.573 48.5142 152.507 48.4478 152.422 48.3615C152.25 48.1887 151.998 47.9356 151.669 47.612C151.012 46.9649 150.05 46.0355 148.83 44.9016L147.468 46.3667ZM68.6225 69.4647L70.6203 69.559L68.6225 69.4647ZM160 57.6194L160.261 41.2915L143.933 41.0309L143.673 57.3588L160 57.6194ZM67.3395 187.19C67.3145 186.086 66.399 185.211 65.2947 185.236C64.1904 185.261 63.3155 186.177 63.3405 187.281L67.3395 187.19ZM63.2428 177.008C63.2427 178.112 64.138 179.008 65.2425 179.008C66.3471 179.008 67.2427 178.113 67.2428 177.008L63.2428 177.008ZM67.3076 166.795C67.3204 165.69 66.4355 164.785 65.331 164.772C64.2265 164.759 63.3207 165.644 63.3078 166.748L67.3076 166.795ZM63.4694 156.478C63.448 157.582 64.3259 158.495 65.4302 158.516C66.5346 158.538 67.4472 157.66 67.4686 156.555L63.4694 156.478ZM67.6974 146.338C67.7252 145.234 66.8526 144.317 65.7484 144.289C64.6441 144.261 63.7265 145.134 63.6987 146.238L67.6974 146.338ZM63.9813 135.979C63.9484 137.083 64.8168 138.005 65.9209 138.038C67.0249 138.071 67.9466 137.202 67.9795 136.098L63.9813 135.979ZM68.3046 125.852C68.3416 124.748 67.4768 123.823 66.3728 123.786C65.2689 123.749 64.3439 124.614 64.3068 125.718L68.3046 125.852ZM64.6667 115.503C64.6261 116.607 65.488 117.535 66.5918 117.575C67.6956 117.616 68.6234 116.754 68.664 115.65L64.6667 115.503ZM69.0559 105.402C69.0996 104.298 68.2403 103.368 67.1366 103.324C66.0329 103.281 65.1028 104.14 65.059 105.244L69.0559 105.402ZM65.4782 94.9884C65.4318 96.092 66.2888 97.0243 67.3924 97.0707C68.496 97.1171 69.4282 96.2602 69.4747 95.1566L65.4782 94.9884ZM69.9155 84.9533C69.9644 83.8498 69.1095 82.9157 68.006 82.8668C66.9025 82.8179 65.9683 83.6729 65.9195 84.7763L69.9155 84.9533ZM66.3828 74.5465C66.3318 75.6499 67.1849 76.5858 68.2882 76.6368C69.3916 76.6879 70.3275 75.8348 70.3786 74.7314L66.3828 74.5465ZM70.9587 64.1595C71.0457 63.0584 70.2236 62.0952 69.1224 62.0082C68.0213 61.9212 67.0581 62.7433 66.9711 63.8444L70.9587 64.1595ZM68.2247 53.1288C68.05 54.2194 68.7926 55.2452 69.8832 55.4199C70.9739 55.5946 71.9997 54.852 72.1743 53.7613L68.2247 53.1288ZM74.4137 43.5011C74.7192 42.4397 74.1064 41.3315 73.0449 41.026C71.9834 40.7204 70.8753 41.3332 70.5697 42.3947L74.4137 43.5011ZM74.5764 32.0938C74.0675 33.0741 74.4496 34.2814 75.4299 34.7904C76.4102 35.2994 77.6175 34.9173 78.1265 33.9369L74.5764 32.0938ZM84.0317 25.9331C84.8434 25.1839 84.8941 23.9186 84.1449 23.1069C83.3958 22.2952 82.1305 22.2445 81.3188 22.9936L84.0317 25.9331ZM91.4209 17.4151C90.3525 17.6957 89.7139 18.7892 89.9945 19.8575C90.275 20.9258 91.3685 21.5645 92.4369 21.2839L91.4209 17.4151ZM102.265 20.8735C103.359 21.0276 104.371 20.2659 104.525 19.1722C104.679 18.0784 103.917 17.0668 102.823 16.9126L102.265 20.8735ZM113.584 19.8582C112.556 19.4546 111.395 19.961 110.992 20.9892C110.588 22.0175 111.095 23.1781 112.123 23.5817L113.584 19.8582ZM121.503 28.1153C122.464 28.66 123.685 28.3225 124.229 27.3616C124.774 26.4006 124.436 25.1801 123.475 24.6354L121.503 28.1153ZM132.679 30.4852C131.775 29.8511 130.528 30.0702 129.893 30.9747C129.259 31.8791 129.478 33.1263 130.383 33.7604L132.679 30.4852ZM138.796 40.1432C139.652 40.8412 140.911 40.713 141.609 39.8568C142.307 39.0007 142.179 37.7409 141.323 37.0429L138.796 40.1432ZM149.51 44.169C148.701 43.4171 147.436 43.4636 146.684 44.2728C145.932 45.082 145.979 46.3475 146.788 47.0993L149.51 44.169ZM65.5327 192.344C67.5266 192.188 67.5267 192.188 67.5267 192.188C67.5267 192.189 67.5267 192.189 67.5267 192.189C67.5267 192.189 67.5267 192.189 67.5267 192.189C67.5267 192.189 67.5267 192.189 67.5267 192.189C67.5267 192.19 67.5267 192.189 67.5267 192.189C67.5266 192.187 67.5264 192.185 67.5261 192.181C67.5255 192.173 67.5245 192.159 67.5231 192.139C67.5204 192.099 67.5162 192.036 67.5107 191.947C67.4999 191.769 67.4842 191.489 67.4658 191.092C67.429 190.298 67.3813 189.037 67.3395 187.19L63.3405 187.281C63.3829 189.155 63.4316 190.448 63.4701 191.277C63.4893 191.693 63.506 191.992 63.5182 192.191C63.5242 192.29 63.5291 192.364 63.5327 192.415C63.5344 192.441 63.5358 192.46 63.5369 192.474C63.5374 192.481 63.5378 192.487 63.5381 192.491C63.5383 192.493 63.5384 192.495 63.5385 192.497C63.5386 192.497 63.5386 192.498 63.5387 192.498C63.5387 192.499 63.5387 192.499 63.5387 192.499C63.5388 192.499 63.5388 192.499 63.5388 192.5C63.5388 192.5 63.5388 192.5 65.5327 192.344ZM67.2428 177.008C67.2431 174.118 67.2617 170.735 67.3076 166.795L63.3078 166.748C63.2618 170.702 63.2431 174.1 63.2428 177.008L67.2428 177.008ZM67.4686 156.555C67.5296 153.411 67.605 150.011 67.6974 146.338L63.6987 146.238C63.6061 149.918 63.5305 153.326 63.4694 156.478L67.4686 156.555ZM67.9795 136.098C68.0759 132.86 68.1839 129.448 68.3046 125.852L64.3068 125.718C64.1859 129.319 64.0778 132.736 63.9813 135.979L67.9795 136.098ZM68.664 115.65C68.7848 112.368 68.9152 108.954 69.0559 105.402L65.059 105.244C64.9182 108.799 64.7876 112.217 64.6667 115.503L68.664 115.65ZM69.4747 95.1566C69.6133 91.8625 69.7601 88.4625 69.9155 84.9533L65.9195 84.7763C65.7639 88.2884 65.617 91.6914 65.4782 94.9884L69.4747 95.1566ZM70.3786 74.7314C70.4572 73.0308 70.5378 71.3068 70.6203 69.559L66.6248 69.3704C66.5422 71.1194 66.4616 72.8447 66.3828 74.5465L70.3786 74.7314ZM70.6203 69.559C70.7083 67.6957 70.8214 65.8964 70.9587 64.1595L66.9711 63.8444C66.8304 65.6254 66.7146 67.4669 66.6248 69.3704L70.6203 69.559ZM72.1743 53.7613C72.7837 49.9567 73.5368 46.5475 74.4137 43.5011L70.5697 42.3947C69.6423 45.6167 68.8561 49.1861 68.2247 53.1288L72.1743 53.7613ZM78.1265 33.9369C79.8962 30.5283 81.8913 27.9085 84.0317 25.9331L81.3188 22.9936C78.7891 25.3284 76.5267 28.3376 74.5764 32.0938L78.1265 33.9369ZM92.4369 21.2839C95.5088 20.4772 98.8121 20.3869 102.265 20.8735L102.823 16.9126C98.9596 16.3682 95.1077 16.4468 91.4209 17.4151L92.4369 21.2839ZM112.123 23.5817C115.278 24.82 118.43 26.3737 121.503 28.1153L123.475 24.6354C120.274 22.821 116.95 21.1791 113.584 19.8582L112.123 23.5817ZM130.383 33.7604C133.426 35.8942 136.264 38.0793 138.796 40.1432L141.323 37.0429C138.73 34.9289 135.815 32.6836 132.679 30.4852L130.383 33.7604ZM146.788 47.0993C147.985 48.2117 148.926 49.1211 149.564 49.75C149.884 50.0644 150.128 50.3087 150.291 50.473C150.372 50.5552 150.433 50.6174 150.473 50.6584C150.494 50.6789 150.508 50.6941 150.518 50.7039C150.523 50.7087 150.526 50.7122 150.528 50.7144C150.529 50.7154 150.53 50.7162 150.53 50.7165C150.53 50.7167 150.53 50.7168 150.53 50.7168C150.53 50.7168 150.53 50.7168 150.53 50.7168C150.53 50.7168 150.53 50.7167 150.53 50.7167C150.53 50.7167 150.53 50.7166 151.967 49.3251C153.403 47.9337 153.403 47.9336 153.403 47.9335C153.403 47.9335 153.403 47.9334 153.403 47.9334C153.403 47.9332 153.403 47.9331 153.403 47.9329C153.402 47.9326 153.402 47.9322 153.401 47.9316C153.4 47.9306 153.399 47.9292 153.397 47.9275C153.394 47.9241 153.389 47.9192 153.383 47.913C153.371 47.9006 153.354 47.8827 153.331 47.8595C153.286 47.8131 153.219 47.7454 153.132 47.6576C152.958 47.482 152.702 47.226 152.37 46.8994C151.707 46.2462 150.739 45.31 149.51 44.169L146.788 47.0993Z" fill="#80D2EB"/>
<path d="M83.033 243.354C83.0332 243.354 83.0321 243.356 83.0294 243.36C83.0315 243.356 83.0328 243.354 83.033 243.354ZM82.046 243.062C82.4451 243.227 82.7118 243.378 82.8752 243.5C82.7118 243.622 82.4451 243.773 82.046 243.938C81.133 244.316 79.7513 244.678 77.9698 244.99C74.4229 245.611 69.4834 246 64 246C58.5166 246 53.5771 245.611 50.0302 244.99C48.2487 244.678 46.867 244.316 45.954 243.938C45.5549 243.773 45.2882 243.622 45.1248 243.5C45.2882 243.378 45.5549 243.227 45.954 243.062C46.867 242.684 48.2487 242.322 50.0302 242.01C53.5771 241.389 58.5166 241 64 241C69.4834 241 74.4229 241.389 77.9698 242.01C79.7513 242.322 81.133 242.684 82.046 243.062ZM44.967 243.354C44.9671 243.354 44.9685 243.356 44.9706 243.36C44.9679 243.356 44.9668 243.354 44.967 243.354ZM44.967 243.646C44.9668 243.646 44.9679 243.644 44.9706 243.64C44.9685 243.644 44.9671 243.646 44.967 243.646ZM83.0294 243.64C83.0321 243.644 83.0332 243.646 83.033 243.646C83.0329 243.646 83.0315 243.644 83.0294 243.64Z" stroke="#80D2EB" stroke-width="2"/>
<path d="M45 251C45 251 46.9 254 64 254C81.1 254 83 251 83 251" stroke="#80D2EB" stroke-width="2" stroke-linecap="round"/>
<line x1="45" y1="251" x2="45" y2="244" stroke="#80D2EB" stroke-width="2" stroke-linecap="round"/>
<line x1="83" y1="251" x2="83" y2="244" stroke="#80D2EB" stroke-width="2" stroke-linecap="round"/>
<path d="M45 258C45 258 46.9 261 64 261C81.1 261 83 258 83 258" stroke="#80D2EB" stroke-width="2" stroke-linecap="round"/>
<line x1="45" y1="258" x2="45" y2="251" stroke="#80D2EB" stroke-width="2" stroke-linecap="round"/>
<line x1="83" y1="258" x2="83" y2="251" stroke="#80D2EB" stroke-width="2" stroke-linecap="round"/>
<path d="M45 265C45 265 46.9 268 64 268C81.1 268 83 265 83 265" stroke="#80D2EB" stroke-width="2" stroke-linecap="round"/>
<line x1="45" y1="265" x2="45" y2="258" stroke="#80D2EB" stroke-width="2" stroke-linecap="round"/>
<line x1="83" y1="265" x2="83" y2="258" stroke="#80D2EB" stroke-width="2" stroke-linecap="round"/>
<ellipse cx="581.5" cy="432.25" rx="58.5" ry="12.25" fill="white"/>
<path d="M639 432.25C639 432.749 638.763 433.338 638.096 434.02C637.426 434.706 636.386 435.416 634.959 436.122C632.109 437.533 627.919 438.832 622.661 439.933C612.16 442.132 597.607 443.5 581.5 443.5C565.393 443.5 550.84 442.132 540.339 439.933C535.081 438.832 530.891 437.533 528.041 436.122C526.614 435.416 525.574 434.706 524.904 434.02C524.237 433.338 524 432.749 524 432.25C524 431.751 524.237 431.162 524.904 430.48C525.574 429.794 526.614 429.084 528.041 428.378C530.891 426.967 535.081 425.668 540.339 424.567C550.84 422.368 565.393 421 581.5 421C597.607 421 612.16 422.368 622.661 424.567C627.919 425.668 632.109 426.967 634.959 428.378C636.386 429.084 637.426 429.794 638.096 430.48C638.763 431.162 639 431.751 639 432.25Z" stroke="#53738E" stroke-opacity="0.23" stroke-width="2"/>
<path d="M525.925 458.5C525.925 458.5 531.482 469 581.5 469C631.517 469 637.075 458.5 637.075 458.5" stroke="#53738E" stroke-opacity="0.23" stroke-width="2" stroke-linecap="round"/>
<line x1="527.85" y1="461" x2="527.85" y2="431.5" stroke="#53738E" stroke-opacity="0.23" stroke-width="2" stroke-linecap="round"/>
<line x1="639" y1="461" x2="639" y2="431.5" stroke="#53738E" stroke-opacity="0.23" stroke-width="2" stroke-linecap="round"/>
<path d="M525.925 483C525.925 483 531.482 493.5 581.5 493.5C631.517 493.5 637.075 483 637.075 483" stroke="#53738E" stroke-opacity="0.23" stroke-width="2" stroke-linecap="round"/>
<line x1="527.85" y1="485.5" x2="527.85" y2="456" stroke="#53738E" stroke-opacity="0.23" stroke-width="2" stroke-linecap="round"/>
<line x1="639" y1="485.5" x2="639" y2="456" stroke="#53738E" stroke-opacity="0.23" stroke-width="2" stroke-linecap="round"/>
<path d="M525.925 507.5C525.925 507.5 531.482 518 581.5 518C631.517 518 637.075 507.5 637.075 507.5" stroke="#53738E" stroke-opacity="0.23" stroke-width="2" stroke-linecap="round"/>
<line x1="527.85" y1="510" x2="527.85" y2="480.5" stroke="#53738E" stroke-opacity="0.23" stroke-width="2" stroke-linecap="round"/>
<line x1="639" y1="510" x2="639" y2="480.5" stroke="#53738E" stroke-opacity="0.23" stroke-width="2" stroke-linecap="round"/>
<rect x="499.13" y="251.032" width="42.7339" height="23.4051" rx="2.5" stroke="#80D2EB" stroke-opacity="0.7" stroke-width="5"/>
<rect x="590.62" y="257.487" width="42.7339" height="23.4051" rx="2.5" stroke="#80D2EB" stroke-opacity="0.7" stroke-width="5"/>
<rect x="590.62" y="306.551" width="42.7339" height="23.4051" rx="2.5" stroke="#80D2EB" stroke-opacity="0.7" stroke-width="5"/>
<rect x="670.839" y="226.5" width="42.7339" height="23.4051" rx="2.5" stroke="#80D2EB" stroke-opacity="0.7" stroke-width="5"/>
<rect x="743.766" y="226.5" width="42.7339" height="23.4051" rx="2.5" stroke="#80D2EB" stroke-opacity="0.7" stroke-width="5"/>
<rect x="499.13" y="300.741" width="42.7339" height="23.4051" rx="2.5" stroke="#80D2EB" stroke-opacity="0.7" stroke-width="5"/>
<rect x="499.13" y="351.095" width="42.7339" height="23.4051" rx="2.5" stroke="#80D2EB" stroke-opacity="0.7" stroke-width="5"/>
<rect x="670.839" y="351.095" width="42.7339" height="23.4051" rx="2.5" stroke="#80D2EB" stroke-opacity="0.7" stroke-width="5"/>
<path d="M738.521 229.81L729.996 238.778L738.521 247.25" stroke="#80D2EB" stroke-opacity="0.7" stroke-width="4" stroke-linecap="round"/>
<line x1="720.062" y1="238.139" x2="737.277" y2="238.139" stroke="#80D2EB" stroke-opacity="0.7" stroke-width="4" stroke-linecap="round"/>
<path d="M665.594 229.81L657.069 238.778L665.594 247.25" stroke="#80D2EB" stroke-opacity="0.7" stroke-width="4" stroke-linecap="round"/>
<line x1="647.135" y1="238.139" x2="664.35" y2="238.139" stroke="#80D2EB" stroke-opacity="0.7" stroke-width="4" stroke-linecap="round"/>
<path d="M548.341 320.845L556.867 311.876L548.341 303.405" stroke="#80D2EB" stroke-opacity="0.7" stroke-width="4" stroke-linecap="round" stroke-linejoin="round"/>
<path d="M584.38 319.553L574.332 319.553L574.332 311.806L548.341 311.806" stroke="#80D2EB" stroke-opacity="0.7" stroke-width="4" stroke-linecap="round" stroke-linejoin="round"/>
<path d="M665.594 355.696L657.069 363.669L665.594 371.199" stroke="#80D2EB" stroke-opacity="0.7" stroke-width="4" stroke-linecap="round"/>
<line x1="647.135" y1="362.878" x2="664.35" y2="362.878" stroke="#80D2EB" stroke-opacity="0.7" stroke-width="4" stroke-linecap="round"/>
<path d="M549.667 262.734H572.097V266.608H583.479" stroke="#80D2EB" stroke-opacity="0.7" stroke-width="4" stroke-linecap="round" stroke-linejoin="round"/>
<path d="M493.992 312.443H490V286.232H572.168V272.418H583.479" stroke="#80D2EB" stroke-opacity="0.7" stroke-width="4" stroke-linecap="round" stroke-linejoin="round"/>
<path d="M639.169 320.907L646.461 320.835V363.443" stroke="#80D2EB" stroke-opacity="0.7" stroke-width="4" stroke-linecap="round" stroke-linejoin="round"/>
<path d="M639.169 315.671H719.388V238.848" stroke="#80D2EB" stroke-opacity="0.7" stroke-width="4" stroke-linecap="round" stroke-linejoin="round"/>
<path d="M549.004 363.443H564.916H574.86V324.709H584.805" stroke="#80D2EB" stroke-opacity="0.7" stroke-width="4" stroke-linecap="round" stroke-linejoin="round"/>
<path d="M640.494 269.19H644.325H646.719V238.848H649.113" stroke="#80D2EB" stroke-opacity="0.7" stroke-width="4" stroke-linecap="round" stroke-linejoin="round"/>
<path d="M212.576 127.265L212.265 135.424L220.424 135.735L220.735 127.576L212.576 127.265ZM286.5 166.5L286.659 165.513L286.659 165.513L286.5 166.5ZM438.751 167.16C439.116 166.745 439.075 166.113 438.66 165.749L431.899 159.808C431.484 159.444 430.853 159.484 430.488 159.899C430.123 160.314 430.164 160.946 430.579 161.311L436.589 166.591L431.308 172.601C430.943 173.016 430.984 173.647 431.399 174.012C431.814 174.377 432.446 174.336 432.81 173.921L438.751 167.16ZM216.5 131.5C215.766 132.18 215.767 132.18 215.767 132.18C215.767 132.18 215.767 132.18 215.767 132.18C215.767 132.18 215.767 132.18 215.767 132.18C215.767 132.181 215.768 132.181 215.768 132.181C215.769 132.182 215.77 132.183 215.771 132.184C215.773 132.187 215.776 132.19 215.781 132.195C215.789 132.204 215.802 132.217 215.818 132.234C215.85 132.268 215.897 132.318 215.958 132.382C216.082 132.511 216.265 132.699 216.507 132.942C216.991 133.427 217.709 134.128 218.655 135.002L220.012 133.532C219.087 132.678 218.389 131.996 217.923 131.529C217.691 131.296 217.516 131.117 217.401 130.997C217.343 130.937 217.3 130.892 217.273 130.862C217.259 130.847 217.248 130.836 217.242 130.829C217.239 130.826 217.236 130.823 217.235 130.822C217.234 130.821 217.234 130.821 217.234 130.82C217.233 130.82 217.233 130.82 217.233 130.82C217.233 130.82 217.233 130.82 217.233 130.82C217.233 130.82 217.233 130.82 217.233 130.82C217.234 130.82 217.234 130.82 216.5 131.5ZM224.763 140.218C226.625 141.698 228.765 143.311 231.175 144.993L232.32 143.354C229.946 141.696 227.839 140.108 226.008 138.652L224.763 140.218ZM237.873 149.382C240.041 150.713 242.359 152.052 244.823 153.373L245.768 151.611C243.34 150.309 241.056 148.989 238.92 147.677L237.873 149.382ZM251.981 156.945C254.332 158.034 256.789 159.089 259.349 160.094L260.08 158.232C257.558 157.242 255.138 156.203 252.821 155.13L251.981 156.945ZM266.893 162.795C269.375 163.6 271.938 164.349 274.581 165.031L275.08 163.094C272.478 162.423 269.954 161.685 267.51 160.892L266.893 162.795ZM282.395 166.79C283.694 167.04 285.009 167.273 286.341 167.487L286.659 165.513C285.348 165.302 284.053 165.073 282.774 164.826L282.395 166.79ZM286.341 167.487C287.682 167.703 289.083 167.905 290.538 168.094L290.796 166.111C289.359 165.924 287.978 165.725 286.659 165.513L286.341 167.487ZM298.934 169C301.626 169.239 304.444 169.448 307.365 169.628L307.488 167.631C304.583 167.452 301.783 167.245 299.111 167.008L298.934 169ZM315.817 170.06C318.568 170.175 321.385 170.27 324.251 170.346L324.304 168.347C321.447 168.271 318.641 168.177 315.901 168.062L315.817 170.06ZM332.693 170.517C335.482 170.557 338.302 170.582 341.141 170.594L341.149 168.594C338.317 168.582 335.503 168.557 332.722 168.517L332.693 170.517ZM349.576 170.592C352.388 170.579 355.205 170.555 358.015 170.522L357.991 168.522C355.186 168.556 352.374 168.579 349.568 168.592L349.576 170.592ZM366.448 170.393C369.287 170.34 372.106 170.279 374.891 170.211L374.843 168.211C372.061 168.28 369.246 168.341 366.411 168.393L366.448 170.393ZM383.32 169.981C386.19 169.896 389.006 169.804 391.754 169.708L391.685 167.709C388.94 167.805 386.126 167.897 383.261 167.982L383.32 169.981ZM400.186 169.394C403.115 169.278 405.935 169.159 408.623 169.041L408.535 167.043C405.849 167.161 403.032 167.28 400.107 167.395L400.186 169.394ZM417.038 168.651C420.137 168.5 422.968 168.355 425.478 168.221L425.372 166.224C422.865 166.358 420.037 166.503 416.941 166.653L417.038 168.651ZM433.902 167.751C435.243 167.672 436.283 167.609 436.988 167.565C437.341 167.544 437.61 167.527 437.79 167.515C437.881 167.51 437.949 167.505 437.995 167.502C438.018 167.501 438.035 167.5 438.047 167.499C438.053 167.499 438.057 167.498 438.06 167.498C438.061 167.498 438.062 167.498 438.063 167.498C438.064 167.498 438.064 167.498 438.064 167.498C438.064 167.498 438.064 167.498 438.064 167.498C438.064 167.498 438.064 167.498 438.064 167.498C438.064 167.498 438.064 167.498 438 166.5C437.936 165.502 437.936 165.502 437.936 165.502C437.935 165.502 437.935 165.502 437.935 165.502C437.935 165.502 437.935 165.502 437.935 165.502C437.935 165.502 437.935 165.502 437.935 165.502C437.934 165.502 437.933 165.502 437.931 165.502C437.929 165.503 437.924 165.503 437.919 165.503C437.907 165.504 437.89 165.505 437.867 165.506C437.822 165.509 437.754 165.514 437.664 165.519C437.484 165.531 437.216 165.548 436.865 165.569C436.161 165.613 435.123 165.676 433.785 165.754L433.902 167.751ZM208.652 123.03L208.03 139.348L224.348 139.97L224.97 123.652L208.652 123.03ZM286.5 166.5L286.817 164.525L286.817 164.525L286.5 166.5ZM439.502 167.82C440.231 166.99 440.15 165.727 439.32 164.998L425.799 153.116C424.969 152.387 423.705 152.469 422.976 153.298C422.247 154.128 422.328 155.392 423.158 156.121L435.177 166.682L424.616 178.701C423.887 179.531 423.969 180.795 424.798 181.524C425.628 182.253 426.892 182.171 427.621 181.342L439.502 167.82ZM216.5 131.5C215.033 132.859 215.033 132.859 215.033 132.86C215.033 132.86 215.033 132.86 215.033 132.86C215.034 132.86 215.034 132.86 215.034 132.86C215.034 132.861 215.035 132.861 215.035 132.862C215.036 132.863 215.037 132.864 215.039 132.866C215.042 132.869 215.045 132.873 215.05 132.878C215.06 132.888 215.073 132.902 215.09 132.92C215.124 132.956 215.173 133.008 215.237 133.075C215.365 133.208 215.553 133.401 215.799 133.648C216.292 134.142 217.02 134.853 217.977 135.736L220.691 132.798C219.776 131.953 219.088 131.281 218.631 130.823C218.403 130.594 218.233 130.42 218.122 130.304C218.067 130.246 218.026 130.203 218 130.176C217.987 130.162 217.978 130.152 217.972 130.146C217.97 130.143 217.968 130.141 217.967 130.141C217.967 130.14 217.966 130.14 217.966 130.14C217.966 130.14 217.966 130.14 217.967 130.14C217.967 130.14 217.967 130.14 217.967 130.14C217.967 130.14 217.967 130.141 217.967 130.141C217.967 130.141 217.967 130.141 216.5 131.5ZM224.141 141.001C226.018 142.493 228.175 144.118 230.602 145.813L232.892 142.534C230.537 140.889 228.446 139.313 226.63 137.869L224.141 141.001ZM237.35 150.234C239.534 151.575 241.869 152.924 244.35 154.255L246.24 150.729C243.83 149.437 241.563 148.127 239.443 146.825L237.35 150.234ZM251.561 157.853C253.93 158.949 256.405 160.013 258.984 161.025L260.445 157.301C257.943 156.319 255.541 155.287 253.241 154.223L251.561 157.853ZM266.585 163.746C269.085 164.557 271.668 165.312 274.331 165.999L275.33 162.126C272.748 161.46 270.244 160.728 267.819 159.941L266.585 163.746ZM282.206 167.772C283.515 168.024 284.84 168.259 286.183 168.475L286.817 164.525C285.517 164.316 284.232 164.089 282.963 163.844L282.206 167.772ZM286.183 168.475C287.534 168.692 288.945 168.896 290.409 169.086L290.925 165.12C289.496 164.934 288.126 164.736 286.817 164.525L286.183 168.475ZM298.845 169.996C301.548 170.236 304.375 170.445 307.304 170.626L307.55 166.633C304.652 166.455 301.861 166.248 299.199 166.012L298.845 169.996ZM315.776 171.059C318.532 171.175 321.354 171.269 324.225 171.346L324.331 167.347C321.478 167.271 318.677 167.177 315.943 167.063L315.776 171.059ZM332.679 171.517C335.471 171.557 338.295 171.582 341.137 171.594L341.154 167.594C338.324 167.582 335.514 167.557 332.736 167.517L332.679 171.517ZM349.581 171.592C352.395 171.579 355.215 171.555 358.027 171.522L357.979 167.522C355.176 167.556 352.367 167.579 349.563 167.592L349.581 171.592ZM366.467 171.393C369.308 171.34 372.129 171.279 374.916 171.211L374.818 167.212C372.038 167.28 369.225 167.341 366.393 167.393L366.467 171.393ZM383.35 170.981C386.221 170.895 389.04 170.803 391.789 170.707L391.65 166.71C388.906 166.806 386.095 166.897 383.231 166.983L383.35 170.981ZM400.225 170.393C403.156 170.277 405.977 170.158 408.667 170.04L408.491 166.044C405.807 166.162 402.991 166.28 400.067 166.396L400.225 170.393ZM417.086 169.65C420.188 169.499 423.02 169.354 425.532 169.22L425.319 165.226C422.813 165.359 419.987 165.504 416.892 165.654L417.086 169.65ZM433.961 168.749C435.303 168.671 436.344 168.607 437.05 168.564C437.403 168.542 437.672 168.525 437.853 168.513C437.944 168.508 438.013 168.503 438.059 168.5C438.082 168.499 438.099 168.498 438.111 168.497C438.117 168.497 438.121 168.496 438.124 168.496C438.126 168.496 438.127 168.496 438.128 168.496C438.128 168.496 438.128 168.496 438.128 168.496C438.129 168.496 438.129 168.496 438.129 168.496C438.129 168.496 438.129 168.496 438.129 168.496C438.129 168.496 438.129 168.496 438 166.5C437.871 164.504 437.871 164.504 437.871 164.504C437.871 164.504 437.871 164.504 437.871 164.504C437.871 164.504 437.871 164.504 437.871 164.504C437.871 164.504 437.871 164.504 437.87 164.504C437.87 164.504 437.868 164.504 437.867 164.504C437.864 164.505 437.86 164.505 437.854 164.505C437.843 164.506 437.826 164.507 437.804 164.509C437.759 164.511 437.691 164.516 437.601 164.521C437.422 164.533 437.154 164.55 436.803 164.571C436.101 164.615 435.064 164.678 433.726 164.756L433.961 168.749Z" fill="#80D2EB"/>
</svg>
